<svg xmlns="http://www.w3.org/2000/svg" width="820" height="652.037" viewBox="0 0 820 652.037">
  <g id="Group_3" data-name="Group 3" transform="translate(-968 -194)">
    <circle id="Ellipse_1" data-name="Ellipse 1" cx="40" cy="40" r="40" transform="translate(1390.412 437.523)" fill="#e6e6e6"/>
    <path id="Path_1" data-name="Path 1" d="M657.5,384.5l-41.8-41.8a44.274,44.274,0,0,0-13.3-61.2h0c-.4-.2-.7-.5-1.1-.7a44.3,44.3,0,1,0,1.1,75.2l41.8,41.8a9.4,9.4,0,0,0,13.3-13.3Zm-56.7-43.4a31.627,31.627,0,1,1,9.3-22.4A31.6,31.6,0,0,1,600.8,341.1Z" transform="translate(863.564 144.216)" fill="#3f3d56"/>
    <path id="Path_2" data-name="Path 2" d="M809.839,376.1c89.3,99.713-169.6,243.425-378.669,243.425S77.29,508.179,52.418,376.1C-7.842,55.887,565.8-147.67,431.17,132.674,234.867,541.3,739.48,297.542,809.839,376.1Z" transform="translate(960.035 193.976)" fill="#e6e6e6"/>
    <path id="Path_3" data-name="Path 3" d="M761.839,404.1c89.3,99.713-169.6,243.425-378.669,243.425S29.29,536.179,4.418,404.1C-55.842,83.887,517.8-119.67,383.17,160.674,186.867,569.3,691.48,325.542,761.839,404.1Z" transform="translate(968.035 198.513)" fill="#3f3d56"/>
    <path id="Path_4" data-name="Path 4" d="M149.6,196.8C74.5,193.5,16.3,177.3,17.1,160c.5-10.4,21.7-18.8,58.3-23a1,1,0,1,1,.2,2h0c-34.5,3.9-56.1,12-56.5,21.1-.7,15.7,59.1,31.6,130.6,34.8s132.5-7.5,133.1-23.2c.4-9.1-20.6-19.1-54.8-26a1.02,1.02,0,1,1,.4-2h0c36.3,7.4,56.9,17.6,56.4,28.1C284.1,189.1,224.7,200.1,149.6,196.8Z" transform="translate(960.035 171.465)" fill="#5271ff"/>
    <path id="Path_5" data-name="Path 5" d="M82.9,199.7A77.135,77.135,0,0,0,216,205.3,1208.224,1208.224,0,0,1,82.9,199.7Z" transform="translate(960.035 162.032)" fill="#5271ff"/>
    <path id="Path_6" data-name="Path 6" d="M224.3,184.2a76.97,76.97,0,1,0-147.8-5.7A571.69,571.69,0,0,0,224.3,184.2Z" transform="translate(958.235 175.011)" fill="#5271ff"/>
    <circle id="Ellipse_2" data-name="Ellipse 2" cx="9" cy="9" r="9" transform="translate(1122.926 308.576)" fill="#fff"/>
    <circle id="Ellipse_3" data-name="Ellipse 3" cx="15" cy="15" r="15" transform="translate(1067.535 309.901)" fill="#fff"/>
    <circle id="Ellipse_4" data-name="Ellipse 4" cx="10" cy="10" r="10" transform="translate(1244.408 306.224)" fill="#5271ff"/>
    <ellipse id="Ellipse_5" data-name="Ellipse 5" cx="5.3" cy="6" rx="5.3" ry="6" transform="translate(1225.672 545.42)" fill="#e6e6e6"/>
    <circle id="Ellipse_6" data-name="Ellipse 6" cx="6" cy="6" r="6" transform="translate(1160.849 632.243)" fill="#e6e6e6"/>
    <circle id="Ellipse_7" data-name="Ellipse 7" cx="3" cy="3" r="3" transform="translate(1064.535 497.875)" fill="#e6e6e6"/>
    <circle id="Ellipse_8" data-name="Ellipse 8" cx="3" cy="3" r="3" transform="translate(1294.019 669.315)" fill="#e6e6e6"/>
    <circle id="Ellipse_9" data-name="Ellipse 9" cx="3" cy="3" r="3" transform="translate(1067.535 626.095)" fill="#e6e6e6"/>
    <circle id="Ellipse_10" data-name="Ellipse 10" cx="3" cy="3" r="3" transform="translate(1555.008 699.4)" fill="#e6e6e6"/>
    <circle id="Ellipse_11" data-name="Ellipse 11" cx="3" cy="3" r="3" transform="translate(1431.249 628.637)" fill="#e6e6e6"/>
    <circle id="Ellipse_12" data-name="Ellipse 12" cx="3" cy="3" r="3" transform="translate(1271.288 377.792)" fill="#e6e6e6"/>
    <circle id="Ellipse_13" data-name="Ellipse 13" cx="3" cy="3" r="3" transform="translate(1291.494 262.876)" fill="#e6e6e6"/>
    <circle id="Ellipse_14" data-name="Ellipse 14" cx="3" cy="3" r="3" transform="translate(1462.063 710.4)" fill="#e6e6e6"/>
    <circle id="Ellipse_15" data-name="Ellipse 15" cx="3" cy="3" r="3" transform="translate(1155.106 707.4)" fill="#e6e6e6"/>
    <circle id="Ellipse_16" data-name="Ellipse 16" cx="3" cy="3" r="3" transform="translate(1549.957 635.417)" fill="#e6e6e6"/>
    <circle id="Ellipse_17" data-name="Ellipse 17" cx="9" cy="9" r="9" transform="translate(1099.435 376.329)" fill="#fff"/>
    <circle id="Ellipse_18" data-name="Ellipse 18" cx="29" cy="29" r="29" transform="translate(1115.632 467.417)" fill="none"/>
    <path id="Path_7" data-name="Path 7" d="M816.9,317.9a4.714,4.714,0,0,0-.6,1.5l-47.8,13.3-8.6-8.4-14.4,11.3L759.3,352a8.153,8.153,0,0,0,9.4,2.2l51.6-22.8a10.486,10.486,0,1,0-2.6-14.6h0a4.438,4.438,0,0,0-.8,1.1Z" transform="translate(798.228 134.859)" fill="#ffb8b8"/>
    <path id="Path_8" data-name="Path 8" d="M766.7,333.5l-17.9,14a4.477,4.477,0,0,1-6.3-.8h0a1,1,0,0,0-.4-.5L731,326.4a12.472,12.472,0,1,1,19.7-15.3L767,326.7a4.439,4.439,0,0,1,.2,6.3l-.1.1c0,.1-.2.3-.4.4Z" transform="translate(819.23 134.828)" fill="#6c63ff"/>
    <path id="Path_9" data-name="Path 9" d="M821.4,311.3l18.2,8.2a3.189,3.189,0,0,1,1.6,4.2l-2.2,4.8a.917.917,0,0,1,.5,1.3v.1l-.9,1.9a.917.917,0,0,1-1.3.5h-.1l-.9,1.9a.917.917,0,0,1,.5,1.3v.1l-.9,1.9a.917.917,0,0,1-1.3.5h-.1l-11.6,25.8a3.189,3.189,0,0,1-4.2,1.6l-18.2-8.2a3.189,3.189,0,0,1-1.6-4.2L817,312.8A3.554,3.554,0,0,1,821.4,311.3Z" transform="translate(801.594 131.951)" fill="#3f3d56"/>
    <path id="Path_10" data-name="Path 10" d="M804.1,354.7l14.6,6.6a3.038,3.038,0,0,0,4-1.5h0l6.7-15,2.3-5.2,6.1-13.6a3.038,3.038,0,0,0-1.5-4h0l-4.6-2.1-10-4.5a3.038,3.038,0,0,0-4,1.5h0L811.8,330l-6.7,14.9-2.6,5.7A3.255,3.255,0,0,0,804.1,354.7Z" transform="translate(801.419 132.036)" fill="#f2f2f2"/>
    <path id="Path_11" data-name="Path 11" d="M773.6,540.4h12.2l5.9-47.2H773.6Z" transform="translate(836.028 114.412)" fill="#ffb8b8"/>
    <path id="Path_12" data-name="Path 12" d="M770.5,536.4h24.1A15.407,15.407,0,0,1,810,551.8h0v.5H770.5Z" transform="translate(833.725 111.068)" fill="#2f2e41"/>
    <path id="Path_13" data-name="Path 13" d="M805.6,537.4h12.2l5.9-47.2H805.6Z" transform="translate(802.249 114.896)" fill="#ffb8b8"/>
    <path id="Path_14" data-name="Path 14" d="M802.5,533.4h24.1A15.407,15.407,0,0,1,842,548.8h0v.5H802.5Z" transform="translate(776.399 113.462)" fill="#2f2e41"/>
    <path id="Path_15" data-name="Path 15" d="M718.6,429.5a39.467,39.467,0,0,0,36.9,26.8h.6c6.3.2,13.8-1.9,21-4.8,14.4-5.8,28.2-15.1,31.9-17.6l-6.2,59.8-2.5,24.2a4.464,4.464,0,0,0,3.9,4.9h16a4.592,4.592,0,0,0,4.4-3.4l25.6-97.6a18.806,18.806,0,0,0-13.4-23.1c-.1,0-.1,0-.2-.1a20.748,20.748,0,0,0-6.1-.6l-53.3,3.6,3.7-14.9-47.5-3.2-.1.1c-1.1.8-2.2,1.7-3.3,2.6a36.689,36.689,0,0,0-7,7.7A39.459,39.459,0,0,0,718.6,429.5Z" transform="translate(802.335 122.974)" fill="#2f2e41"/>
    <path id="Path_16" data-name="Path 16" d="M718.6,429.5a39.467,39.467,0,0,0,36.9,26.8,197.533,197.533,0,0,0,22.6-13.4l-.9,8.6-7.8,75.4a4.464,4.464,0,0,0,3.9,4.9h16a4.592,4.592,0,0,0,4.4-3.4l9.2-34.8,16.5-62.8A18.806,18.806,0,0,0,806,407.7c-.1,0-.1,0-.2-.1a20.748,20.748,0,0,0-6.1-.6l-53.3,3.6,3.7-14.9-27-1.8A38.888,38.888,0,0,0,718.6,429.5Z" transform="translate(800.058 132.703)" fill="#2f2e41"/>
    <path id="Path_17" data-name="Path 17" d="M730,389.8h-.4L721.3,349c-.1-.4-6.9-35.5,13.9-53.9l.4-2.5a4.485,4.485,0,0,1,5-3.8h.1a1.854,1.854,0,0,1,.7.2l19.6,6a4.462,4.462,0,0,1,3,5.4l-1.9,7.2c2.6,3.1,33.7,40.5,22.9,69.3l-4.8,19Z" transform="translate(795.479 130.703)" fill="#5271ff"/>
    <path id="Path_18" data-name="Path 18" d="M811.3,358a6.419,6.419,0,0,0-1.3,1l-47.9-12.9L759,334.5l-18.2,2.4,3.5,21.1a8.064,8.064,0,0,0,7,6.6l56,6.6a10.494,10.494,0,1,0,5.2-13.9,3.458,3.458,0,0,1-1.2.7Z" transform="translate(791.51 140.492)" fill="#ffb8b8"/>
    <path id="Path_19" data-name="Path 19" d="M760.3,345.9l-22.5,2.9a4.485,4.485,0,0,1-5-3.8v-.8l.4-22.7a12.5,12.5,0,0,1,24.8-3.1l6.1,21.7a4.526,4.526,0,0,1-3.1,5.6A1.445,1.445,0,0,1,760.3,345.9Z" transform="translate(798.633 140.878)" fill="#5271ff"/>
    <circle id="Ellipse_19" data-name="Ellipse 19" cx="24.6" cy="24.6" r="24.6" transform="translate(1527.616 383.323)" fill="#ffb8b8"/>
    <path id="Path_20" data-name="Path 20" d="M752.6,260.9l-3.1-5.6c-5.8,23.7,4.5,43.4,4.5,43.4L714.1,280l.4-6.6-4,4.5-5.7-3.1-.7-4.3-4.3,1.1,15.6-28.4c15.2-27,37.3-16.7,37.3-16.7,35.1-1.7,30.8,33,30.8,33Z" transform="translate(798.981 146.288)" fill="#464555"/>
    <ellipse id="Ellipse_20" data-name="Ellipse 20" cx="12.2" cy="47.5" rx="12.2" ry="47.5" transform="matrix(0.842, -0.54, 0.54, 0.842, 1301.62, 502.881)" fill="#3f3d56"/>
    <circle id="Ellipse_21" data-name="Ellipse 21" cx="6" cy="6" r="6" transform="translate(1368.137 512.586)" fill="#e6e6e6"/>
    <ellipse id="Ellipse_22" data-name="Ellipse 22" cx="27.9" cy="28.7" rx="27.9" ry="28.7" transform="translate(1195.798 615.494)"/>
    <ellipse id="Ellipse_23" data-name="Ellipse 23" cx="7.3" cy="6.7" rx="7.3" ry="6.7" transform="translate(1435.925 458.845)" fill="#ccc"/>
    <path id="Path_21" data-name="Path 21" d="M591.5,337.9c-8.3,8.6-22.5,9.5-32.1,2.1l2-5a5.865,5.865,0,0,1,5-3.1l1.3-.1,3-2.3s8-.3,7.9-.4l4.9,2.7h0l1.9.1a5.865,5.865,0,0,1,5,3.1Z" transform="translate(868.997 143.11)" fill="#ccc"/>
    <path id="Path_22" data-name="Path 22" d="M581.4,315.7a8.152,8.152,0,0,0-4-4.9,6.757,6.757,0,0,0-5.2-.9c-1.7.5-3.2,2-3.1,3.7a1.734,1.734,0,0,0-1.8.5,5.071,5.071,0,0,0-.9,1.6,9.574,9.574,0,0,0,.1,5.8v.3a2.852,2.852,0,0,0,1.9-1.5,15.057,15.057,0,0,1,1.1-2.2,2.766,2.766,0,0,1,2-1.3l-.1,1.2,2.2-1a6.114,6.114,0,0,0-.5,1.2c.6-.2,1.3-.5,1.9-.7-.1.4-.1.7-.2,1.1a2.951,2.951,0,0,1,3.9-1.2c.1,0,.1,0,.1.1a4.469,4.469,0,0,1,1.6,2,10.855,10.855,0,0,1,.4,2.5A8.633,8.633,0,0,0,581.4,315.7Z" transform="translate(869.483 146.336)" fill="#ccc"/>
    <ellipse id="Ellipse_24" data-name="Ellipse 24" cx="27" cy="27.6" rx="27" ry="27.6" transform="translate(1324.452 713.4)" fill="#5271ff"/>
  </g>
</svg>
