<svg xmlns="http://www.w3.org/2000/svg" width="114.78" height="18.86" viewBox="0 0 114.78 18.86">
  <path id="iit_b" d="M.7,1H3.3V15H.7ZM7.086,1h2.6V15h-2.6Zm9.227,2.2h-4.64V1h11.88V3.2h-4.64V15h-2.6ZM40.951,7.72A3.67,3.67,0,0,1,42.791,9a3.491,3.491,0,0,1,.68,2.2,3.264,3.264,0,0,1-1.4,2.82,7.091,7.091,0,0,1-4.08.98h-6.96V1h6.56a6.392,6.392,0,0,1,3.82.98,3.091,3.091,0,0,1,1.34,2.66,3.506,3.506,0,0,1-.48,1.84A3.286,3.286,0,0,1,40.951,7.72Zm-7.32-4.68V6.9h3.68a3.75,3.75,0,0,0,2.08-.48,1.632,1.632,0,0,0,.74-1.44,1.6,1.6,0,0,0-.74-1.44,3.631,3.631,0,0,0-2.08-.5Zm4.2,9.92q3.02,0,3.02-2.02t-3.02-2.02h-4.2v4.04Zm12.975,2.18a6.059,6.059,0,0,1-2.92-.7,5.2,5.2,0,0,1-2.04-1.94,5.621,5.621,0,0,1-.72-2.84,5.512,5.512,0,0,1,.72-2.82,5.2,5.2,0,0,1,2.04-1.94,6.482,6.482,0,0,1,5.86,0,5.055,5.055,0,0,1,2.02,1.94,5.4,5.4,0,0,1,.74,2.82,5.5,5.5,0,0,1-.74,2.84,5.055,5.055,0,0,1-2.02,1.94A6.1,6.1,0,0,1,50.806,15.14Zm0-2.14a3.055,3.055,0,0,0,2.28-.92,3.312,3.312,0,0,0,.9-2.42,3.312,3.312,0,0,0-.9-2.42,3.285,3.285,0,0,0-4.56,0,3.355,3.355,0,0,0-.88,2.42,3.355,3.355,0,0,0,.88,2.42A3.055,3.055,0,0,0,50.806,13ZM72.377,4.2a4.324,4.324,0,0,1,3.2,1.18,4.707,4.707,0,0,1,1.18,3.5V15h-2.5V9.2a3.086,3.086,0,0,0-.62-2.1,2.221,2.221,0,0,0-1.78-.72,2.592,2.592,0,0,0-2.02.84,3.349,3.349,0,0,0-.76,2.36V15h-2.5V9.2a3.086,3.086,0,0,0-.62-2.1,2.221,2.221,0,0,0-1.78-.72,2.647,2.647,0,0,0-2.04.82,3.439,3.439,0,0,0-.74,2.38V15H58.9V4.32h2.38V5.68a3.887,3.887,0,0,1,1.5-1.1,5.093,5.093,0,0,1,2-.38,4.68,4.68,0,0,1,2.12.46,3.381,3.381,0,0,1,1.48,1.32,4.365,4.365,0,0,1,1.7-1.3A5.423,5.423,0,0,1,72.377,4.2Zm13.495,0a5.612,5.612,0,0,1,2.78.68,4.885,4.885,0,0,1,1.94,1.92,5.717,5.717,0,0,1,.7,2.86,5.83,5.83,0,0,1-.7,2.88,4.885,4.885,0,0,1-1.94,1.92,5.613,5.613,0,0,1-2.78.68,5.242,5.242,0,0,1-2.02-.38,3.883,3.883,0,0,1-1.52-1.14V15h-2.38V.16h2.5V5.62a4.22,4.22,0,0,1,1.5-1.06A5.023,5.023,0,0,1,85.871,4.2Zm-.28,8.8a2.989,2.989,0,0,0,2.26-.92,3.312,3.312,0,0,0,.9-2.42,3.312,3.312,0,0,0-.9-2.42,2.989,2.989,0,0,0-2.26-.92,3.155,3.155,0,0,0-1.62.42,2.894,2.894,0,0,0-1.14,1.16,3.579,3.579,0,0,0-.42,1.76,3.579,3.579,0,0,0,.42,1.76,3.034,3.034,0,0,0,1.14,1.18A3.278,3.278,0,0,0,85.591,13ZM97.606,4.2a5.14,5.14,0,0,1,3.6,1.14,4.316,4.316,0,0,1,1.26,3.4V15h-2.36V13.7a2.964,2.964,0,0,1-1.32,1.08,5.832,5.832,0,0,1-4.14-.04,3.417,3.417,0,0,1-1.4-1.14,2.985,2.985,0,0,1-.48-1.66,2.81,2.81,0,0,1,1.06-2.3,5.314,5.314,0,0,1,3.38-.88h2.76V8.6a2.172,2.172,0,0,0-.68-1.72,2.859,2.859,0,0,0-1.98-.6,5.839,5.839,0,0,0-1.78.28,4.362,4.362,0,0,0-1.46.78l-.98-1.82a6.069,6.069,0,0,1,2.02-.98A8.988,8.988,0,0,1,97.606,4.2Zm-.34,9.12a3.233,3.233,0,0,0,1.66-.42,2.374,2.374,0,0,0,1.04-1.24V10.42h-2.58q-2.16,0-2.16,1.42a1.275,1.275,0,0,0,.54,1.08A2.475,2.475,0,0,0,97.266,13.32Zm18.213-9-5,11.54a5.3,5.3,0,0,1-1.7,2.44,4.031,4.031,0,0,1-2.42.72,4.969,4.969,0,0,1-1.58-.26,3.488,3.488,0,0,1-1.28-.72l1-1.84a2.751,2.751,0,0,0,.84.54,2.676,2.676,0,0,0,1,.2,1.662,1.662,0,0,0,1.08-.34,2.946,2.946,0,0,0,.8-1.14l.18-.42-4.66-10.72h2.6l3.36,7.9,3.38-7.9Z" transform="translate(-0.699 -0.16)" fill="#31343c"/>
</svg>
