<?xml version="1.0" encoding="utf-8"?>
<!-- Generator: Adobe Illustrator 18.0.0, SVG Export Plug-In . SVG Version: 6.00 Build 0)  -->
<!DOCTYPE svg PUBLIC "-//W3C//DTD SVG 1.1//EN" "http://www.w3.org/Graphics/SVG/1.1/DTD/svg11.dtd">
<svg version="1.1" id="Layer_1" xmlns="http://www.w3.org/2000/svg" xmlns:xlink="http://www.w3.org/1999/xlink" x="0px" y="0px"
	 viewBox="0 0 1400 980" enable-background="new 0 0 1400 980" xml:space="preserve">
<g>
	<rect fill="#12444F" width="1400" height="980"/>
	<circle fill="#2A6476" cx="700" cy="490" r="445.7"/>
	<circle fill="#3B7D93" cx="700" cy="490" r="346.3"/>
	<circle fill="#4792AB" cx="700" cy="490" r="255"/>
	<path fill="#0D3A42" d="M860,849.3h-60.2c5.4-16.3,13.8-35.8,26.7-58.2c31.6-54.7,95.1-66.9,133.1-74.2
		c17.9-3.4,28.6-5.5,29.6-10.9c1.3-6.8-8.5-13.3-30-19.8c-15.1-4.6-30.7-7.4-30.8-7.5l-0.3,0c-20.2-1.3-36.1-5.8-48.3-11.3
		c3.5-6.3,5.3-13.1,5.2-20.1c0-1.6-0.2-3.3-0.3-4.9c-0.1-1.6-0.3-3.2-0.3-4.8c-0.1-4.8,0.8-9.7,1.7-14.5c1.7-8.9,4.7-17,9.5-25.4
		c1.5-2.6,3.3-5.2,5-7.7c3.4-5,6.9-10.1,8.7-16c3.3-11,3.3-22.5-0.2-33.1c-0.7-2.2-1.6-4.4-2.5-6.6c-2.4-6-4.6-11.6-4-17.5
		c1-9.4,8.5-17.2,15.8-24.8c0.9-0.9,1.8-1.9,2.7-2.8c5.4-5.7,7.9-13.7,7.3-23.8c-0.2-3.8-0.8-7.6-1.4-11.3
		c-0.6-4.1-1.3-8.3-1.4-12.4c-0.1-2,0-3.6,0.8-5c0.4-0.8,1.1-1.6,1.9-2.4c0.4-0.5,0.8-0.9,1.2-1.4c3.7-4.6,4.3-10.2,4.3-15.6
		c0.2-13-2.3-24.3-7.6-34.3c-0.7-1.3-1.3-2.7-1.9-4.1c-1.1-2.4-2.2-5-3.8-7.3c-1.2-1.8-2.6-3.4-4-5c-2.4-2.8-4.6-5.5-6-8.6
		c-1.9-4.5-2.2-9.2-2.6-14.3c-0.3-4.6-0.6-9.4-2.3-14c-2.2-6.2-6.7-11.6-11-16.7c-3.1-3.7-6.2-7.5-8.4-11.5
		c-6-10.6-10.6-21.8-13.9-33.1l-0.4-1.3c-0.9-3.3-1.9-6.7-3.7-9.9c-3.1-5.6-8.5-9.9-13.3-13.7c-3.5-2.8-7.2-5.8-11.2-8.3
		c-7.4-4.7-16-8-24.2-11.1c-8.1-3.1-16.5-6.4-23.7-10.9c-2.3-1.5-4.6-3.1-6.7-4.8c-5.1-3.8-10.4-7.7-17-9.8c-4-1.3-8.5-1.8-14.2-1.8
		c-3.3,0-6.7,0.2-9.4,0.4c-4.8,0.3-9,0.4-12.9,0.4c-7.4,0-14.2-0.5-21.3-1.6l-1.7-0.3c-7.1-1.1-14.5-2.2-21.8-2.2
		c-5.3,0-10,0.6-14.4,1.7c-2.2,0.6-4.3,1.3-6.4,2c-2.4,0.8-4.6,1.5-6.9,2.1c-5.4,1.3-11.1,1.5-15.4,1.5c-2.3,0-4.6-0.1-6.8-0.1
		l-2.4-0.1c-1.8,0-3.7-0.1-5.6-0.1c-10.1,0-17.7,0.7-24.6,2.3c-11,2.5-20.2,7.6-25.7,14.2c-1.1,1.3-2.1,2.8-3,4.1
		c-1.4,2-2.7,3.8-4.3,5.5c-3.5,3.5-8.3,5.6-13.5,7.9c-3.5,1.6-7.1,3.2-10.4,5.2c-9.2,5.9-14.3,15.2-17.3,21.7
		c-1.1,2.3-2.1,4.7-3.1,7c-1.2,2.9-2.5,5.8-3.9,8.7c-2.1,4.3-4.7,6.6-8.2,9.8c-0.6,0.6-1.3,1.2-2,1.8c-8,7.4-18,16.7-20.1,28.3
		c-0.4,2.4-0.5,4.8-0.6,7.1c-0.1,3.6-0.3,7-1.6,10.2c-1.3,3.2-3.8,5.9-6.4,8.7c-1.1,1.3-2.3,2.6-3.4,3.9c-5.3,6.6-8.3,14.7-8.4,22.2
		c0,2.5,0.2,4.8,0.5,7.1c0.5,4.9,1,9.2-1.4,14.3c-0.9,2-2.1,3.9-3.4,6c-1.7,2.7-3.5,5.5-4.5,8.5c-1.2,3.5-1.2,7.2-1.2,10.8
		c0,1,0,1.9,0,2.9c-0.3,9.4-0.2,20.4,3.7,30.5c1.1,2.9,2.3,5.7,3.5,8.5c3.5,8.2,6.8,15.9,7.3,24.4c0.1,1.9,0.2,3.8,0.3,5.7
		c0.5,9.8,0.9,20,6.5,29.1l0.9,1.5c4.1,6.7,7.3,11.9,8,19.7c0.8,10,0.9,20.1,0.1,30.1l-0.1,0.7c-0.3,4.1-0.7,8.4,1,12.5
		c1.6,4.1,4.9,7.3,8.1,10.4c1.8,1.8,3.5,3.4,4.9,5.3c2.6,3.3,4.2,7.1,5.8,11c5.5,13.7,10.1,27.7,13.6,41.9c0.3,1.1,0.5,2.2,0.8,3.3
		c0.6,2.4,1.2,4.8,1.8,7.1c-13.3,8.2-32.8,16-60.7,17.8l-0.3,0c-0.2,0-15.8,2.9-30.8,7.5c-21.5,6.5-31.3,12.9-30,19.8
		c1,5.4,11.8,7.5,29.6,10.9c38,7.3,101.5,19.5,133.1,74.2c13,22.4,21.3,41.9,26.7,58.2H540v41.2H410.7v51.3h578.6v-51.3H860V849.3z"
		/>
	<g>
		<g>
			<g>
				<path fill="#E5CAA4" d="M927.9,635.5c-73.4-5.6-91.8-58.5-91.8-58.5L700,578.3l-136.1-1.2c0,0-18.4,52.8-91.8,58.5
					c0,0-61.8,13.3-59.2,29.5c2.6,16.2,116.6,5.9,162.5,99.1s34.9,142.4,34.9,142.4H700h89.7c0,0-11-49.2,34.9-142.4
					s159.9-82.9,162.5-99.1S927.9,635.5,927.9,635.5z"/>
			</g>
			<g>
				<path fill="#B9A289" d="M927.9,635.5c-73.4-5.6-91.8-58.5-91.8-58.5L700,578.3l-0.5,0c-0.4,11.4,0.8,22.9,3.6,33.9
					c3.8,14.5,10.3,28.3,12.6,43.2c1.5,9.5,1.2,19.2,0.9,28.8c-1.2,39-2.4,78-3.6,117c-0.3,8.8-1.2,18.9-8.4,23.9
					c-6,4.2-14.1,3.1-21.1,5c-7,1.9-13.5,10.8-8.4,16c1.8,1.9,4.6,2.5,7.2,3c35.9,7,72.5,10.5,109.1,11.2
					c4.1-23.4,13.3-55.6,33.2-95.9c46-93.2,159.9-82.9,162.5-99.1C989.7,648.8,927.9,635.5,927.9,635.5z"/>
			</g>
			<g>
				<path fill="#978570" d="M927.9,635.5c-47.3-3.6-71.8-26.9-83.2-42.9c-10.1,25.6-29.1,47.8-53.2,61c-6.1,3.4-12.7,6.3-17.7,11.2
					c-8.7,8.6-10.9,21.9-10.8,34.1c0,8.3,0.6,17.4-4.4,23.9c-6.7,8.7-20.4,9.1-27.6,17.4c-8.6,9.9-4,25.1,1.7,36.9
					c5.7,11.8,12.1,25.7,5.8,37.2c-3.9,7.1-12.1,11.8-13.6,19.7c-2.1,11.4,10.7,19.5,21.9,22.6c2.4,0.7,4.8,1.2,7.3,1.8
					c12.4,0.9,24.9,1.5,37.4,1.7c4.1-23.4,13.3-55.6,33.2-95.9c46-93.2,159.9-82.9,162.5-99.1C989.7,648.8,927.9,635.5,927.9,635.5z
					"/>
			</g>
			<g>
				<path fill="#282625" d="M789.7,908.7h-182l0.6-2.5c0.1-0.5,10.2-49.7-34.8-141.1c-31.6-64.1-95.1-78.4-133.1-86.9
					c-17.9-4-28.6-6.4-29.6-12.8c-1.3-8,8.5-15.6,30-23.2c15.1-5.3,30.7-8.7,30.8-8.7l0.3,0c37.2-2.8,59.7-18.2,72-30.6
					c13.4-13.4,18-26.4,18-26.5l0.5-1.4l1.5,0l136.1,1.2l137.6-1.2l0.5,1.4c0,0.1,4.7,13.1,18,26.5c12.3,12.4,34.8,27.7,72,30.6
					l0.3,0c0.2,0,15.8,3.4,30.8,8.7c21.5,7.6,31.3,15.2,30,23.2c-1,6.3-11.8,8.7-29.6,12.8c-38,8.5-101.5,22.8-133.1,86.9
					c-45,91.3-34.9,140.6-34.8,141.1l0.6,2.5L789.7,908.7z M612.8,904.5h174.4c-1.6-11.3-5-59.1,35.5-141.3
					c14.1-28.6,36.3-50.8,66.2-66.2c25.2-13,50.9-18.8,69.7-23c13.3-3,25.9-5.8,26.4-9.3c1.7-10.4-34.3-22.1-57.4-27.1
					c-38.5-3-61.8-19-74.6-31.9c-11.5-11.6-16.7-22.6-18.3-26.5L700,580.3l-134.7-1.2c-1.6,3.8-6.8,14.9-18.3,26.5
					c-12.8,12.9-36.1,29-74.6,31.9c-23.1,5-59.1,16.7-57.4,27.1c0.6,3.5,13.1,6.3,26.4,9.3c18.8,4.2,44.6,10,69.7,23
					c29.8,15.3,52.1,37.6,66.2,66.2C617.8,845.4,614.4,893.2,612.8,904.5z"/>
			</g>
		</g>
		<g>
			<g>
				<path fill="#E5D6B4" d="M743.1,779c-2-9.1,6.5-17.2,15.1-20.9c8.6-3.7,18.5-5.4,25.1-12c8.1-8.1,9.1-21.4,17-29.6
					c7.2-7.5,19.2-9.9,24.2-19c6.2-11.1-1.4-26.3,5.2-37.1c5.1-8.4,16.3-10.2,24.6-15.5c16.8-10.7,28.8-27.6,28.5-48.2
					c-0.1-3.8-0.5-7.5-0.6-11.3c-0.1-5.8,0.8-11.6,1.7-17.3c1.7-10.9,4.8-20.5,9.6-30.3c4.5-9.2,11-17.3,13.6-27.3
					c3.2-12.3,3.2-25.5-0.2-37.7c-2.7-9.6-7.4-19-6.5-28.9c1.2-13.2,11.1-23.7,19-33.4c5.9-7.3,7.3-17.2,6.8-26.5
					c-0.5-9.3-2.6-18.5-2.8-27.9c-0.1-2.3,0-4.7,1-6.8c0.8-1.8,2.2-3.2,3.3-4.8c3.4-4.9,3.9-11.2,4-17.1c0.1-13.5-1.8-26.9-7.4-39.3
					c-1.9-4.3-3.2-9.1-5.6-13.1c-3.3-5.6-7.8-10.1-10.1-16.3c-3.9-10.5-1.6-22.5-4.9-33.3c-3.7-12.1-13.9-21.4-19.3-32.8
					c-6-12.6-10.7-25.7-14-39.3c-1.1-4.3-2-8.7-3.9-12.7c-2.9-6.1-7.9-10.9-12.9-15.5c-3.5-3.3-7.1-6.7-11-9.6
					c-14.6-10.8-33.3-15-47.9-25.9c-7.7-5.8-14.2-13.5-23.3-16.8c-7.2-2.6-15.1-2.1-22.7-1.6c-12.3,0.8-22.6,0.7-34.7-1.4
					c-12.2-2.1-24.8-4.6-36.9-0.9c-4.5,1.4-8.8,3.5-13.4,4.8c-8.2,2.3-16.8,1.8-25.3,1.6c-9.9-0.2-20,0-29.6,2.6
					c-9.6,2.6-18.8,7.8-24.5,15.9c-2.6,3.7-4.5,7.9-7.5,11.4c-6.3,7.3-16.5,9.8-24.1,15.7c-8,6-12.9,15.3-16.6,24.6
					c-2.4,6.1-4.5,12.4-7,18.5c-2.7,6.4-6,9.3-10.6,14.2c-8.6,9.4-17.6,19.5-19.6,32.1c-1.1,6.9,0,14.1-2.3,20.7
					c-2.1,5.8-6.6,10.2-10,15.3c-4.9,7.1-8,16.2-8,24.9c0,9.3,2.6,16.4-1,25.9c-2.2,5.7-6.1,11-7.8,16.8c-1.4,4.8-1,10.4-1.1,15.5
					c-0.3,11.7-0.1,23.9,3.5,35.1c4.3,13.1,10.1,25.3,10.9,39.1c0.8,13.4,0.2,27.6,6.6,39.9c4.6,8.9,8.4,15.5,9.2,25.7
					c0.8,11.8,0.9,23.7,0.1,35.5c-0.3,4.9-0.8,10,0.8,14.6c2.3,7,8.7,11.8,12.8,17.9c2.7,4.1,4.4,8.7,6,13.4
					c5.6,16.1,10.1,32.6,13.7,49.3c3.7,17.4,6.8,36.2,19.2,49c13.9,14.3,37.2,18.3,47.9,35.2c3,4.7,4.7,10.2,7.4,15.1
					c3.4,6.1,8.1,11.3,12.8,16.4c5.3,5.7,11.1,11.2,16.1,17.1c4.1,4.7,3.4,12.1,7.6,17c3.3,3.9,8.9,5.4,11.9,9.5
					c2.4,3.3,2.8,7.6,4.8,11.1c4.8,8.5,17.2,9.8,22.7,17.8c1,1.5,1.8,3.2,3.1,4.4c0.9,0.8,1.9,1.3,2.9,1.9c2.9,1.9,5.1,4.8,6.1,8.2
					c-0.2-0.8,1.3-3.8,1.5-4.7c0.3-1.8,0.5-3.6,0.5-5.4c0.1-3.9-0.2-7.7-0.2-11.6c0.1-3.6,0.3-7.2,2.3-10.2c2.3-3.6,4.8-7,6.8-10.9
					c3.3,9.8,4.8,20.3,4.5,30.6c10.7-8.4,17.3-21.7,17.5-35.3C732.7,762.9,737.9,770.9,743.1,779z"/>
			</g>
			<g>
				<path fill="#E9E1CC" d="M650.8,114.7c-3.6-0.4-7.2-0.6-10.9-0.4c-22.4,1.4-25.7,24.4-41.3,35.7c-4.2,3-9.2,5.1-12.6,8.9
					c-9.8,10.8-2.5,29-8.7,42.2c-5.6,11.7-20.5,16.8-25.6,28.7c-8.7,20.4,17.3,43.8,8.5,64.3c-2.2,5.2-6.4,9.2-9.5,13.9
					c-7.2,11-8.1,24.8-8.7,37.9c-0.5,11.3-1.1,22.7-1.6,34c-0.5,10.7-1,21.7,2.7,31.8c6.7,18.7,28.6,30.5,48,25.9
					c19.3-4.6,33.5-25.1,31-44.8c-10.6,2.7-22.5-1.1-29.6-9.4s-8.9-20.7-4.5-30.7c-7.9-1.4-15.9-2.9-22.7-7.1
					c-6.8-4.2-12.1-11.8-11.2-19.8c0.8-7,6-12.6,8.5-19.3c4.3-11.5,0.6-26.6,9.8-34.8c5.7-5.1,14.1-5.2,21.5-6.9
					c7.4-1.7,15.5-7.5,14.2-15c-2.3-13.4-28-8.9-32-21.9c-1.1-3.7,0.1-7.7,1.2-11.4c5.1-15.7,20.5-38.3,39.2-37.9
					c8.6,0.1,16.7,5.2,25.2,4c7.8-1.1,13.9-7.4,21.5-9.8c18.5-5.8,35.8,13.1,55.1,14.1c19.7,1.1,36.7-19.6,34.2-39.2
					c-2.5-19.6-21.3-34.9-41.1-36.1c-14.6-0.9-29,4.8-43.7,4.7C662.1,116.2,656.5,115.3,650.8,114.7z"/>
			</g>
			<g>
				<path fill="#D9BD9E" d="M918.6,274.9c-3.3-5.6-7.8-10.1-10.1-16.3c-3.9-10.5-1.6-22.5-4.9-33.3c-3.7-12.1-13.9-21.4-19.3-32.8
					c-6-12.6-10.7-25.7-14-39.3c-1.1-4.3-2-8.7-3.9-12.7c-2.9-6.1-7.9-10.9-12.9-15.5c-3.5-3.3-7.1-6.7-11-9.6
					c-14.6-10.8-33.3-15-47.9-25.9c-7.7-5.8-14.2-13.5-23.3-16.8c-7.2-2.6-15.1-2.1-22.7-1.6c-12.3,0.8-22.6,0.7-34.7-1.4
					c-12.2-2.1-24.8-4.6-36.9-0.9c-4.2,1.3-8.2,3.2-12.3,4.5c7.3,2,14.3,5.2,20.6,9.4c6.5,4.3,12.3,9.6,19.3,12.8
					c6.4,2.9,13.5,4,20.3,6c23.3,6.9,41.5,24.7,58.7,41.9c4.1,4.1,8.3,8.3,11.1,13.3c10.2,18.1,1.1,40.4,0.6,61.2
					c-0.8,31.9,18.7,67.5,0,93.4c14.2,3.3,19.3,25.1,8,34.4c-4,3.3-9.3,4.9-12.7,8.9c-5.5,6.4-3.8,16.4,0.7,23.6
					c4.4,7.2,11.1,12.7,15.8,19.7c15.6,23.3,6,54.4-4,80.5c-5.1,13.4-12.4,28.7-26.5,31.4c-17.7,3.4-34.5-15.7-51.8-10.8
					c-13.2,3.7-18.9,19.6-18.7,33.3c0.3,13.7,4.4,27.4,2.3,41c-2,12.8-9.6,24.8-8.6,37.8c1.2,14.1,12.3,25.4,16.1,39
					c4.1,15-1,30.7-4.5,45.9c-4.9,21.4-6.6,43.3-6.8,65.3c0.4-0.7,0.7-1.3,1.1-2c3.3,9.8,4.8,20.3,4.5,30.6
					c10.7-8.4,17.3-21.7,17.5-35.3c5.2,8.1,10.4,16.1,15.6,24.2c-2-9.1,6.5-17.2,15.1-20.9c8.6-3.7,18.5-5.4,25.1-12
					c8.1-8.1,9.1-21.4,17-29.6c7.2-7.5,19.2-9.9,24.2-19c6.2-11.1-1.4-26.3,5.2-37.1c5.1-8.4,16.3-10.2,24.6-15.5
					c16.8-10.7,28.8-27.6,28.5-48.2c-0.1-3.8-0.5-7.5-0.6-11.3c-0.1-5.8,0.8-11.6,1.7-17.3c1.7-10.9,4.8-20.5,9.6-30.3
					c4.5-9.2,11-17.3,13.6-27.3c3.2-12.3,3.2-25.5-0.2-37.7c-2.7-9.6-7.4-19-6.5-28.9c1.2-13.2,11.1-23.7,19-33.4
					c5.9-7.3,7.3-17.2,6.8-26.5c-0.5-9.3-2.6-18.5-2.8-27.9c-0.1-2.3,0-4.7,1-6.8c0.8-1.8,2.2-3.2,3.3-4.8c3.4-4.9,3.9-11.2,4-17.1
					c0.1-13.5-1.8-26.9-7.4-39.3C922.3,283.6,921,278.9,918.6,274.9z"/>
			</g>
			<g>
				<path fill="#282625" d="M611.3,105.6c-4,0-8-1.6-9.8-5.3c-1.5-2.9-1.1-6.3-0.8-8.8c0.1-1.1,1.1-1.9,2.2-1.7
					c1.1,0.1,1.9,1.1,1.7,2.2c-0.3,2.1-0.6,4.7,0.4,6.5c1.6,3.2,6.4,3.7,10,2.4c2.5-0.9,4.7-2.4,7.1-4c1.5-1,3.1-2.1,4.8-3.1
					c6.4-3.5,14-4.5,21.1-2.9c1.5,0.3,2.9,0.8,4.3,1.2c1.3,0.4,2.4,0.8,3.6,1.1c9.4,2.3,19.9-0.5,26.8-7.2c0.8-0.8,2.1-0.7,2.8,0
					c0.8,0.8,0.7,2.1,0,2.8c-7.9,7.6-19.9,10.9-30.6,8.2c-1.3-0.3-2.6-0.7-3.9-1.1c-1.4-0.4-2.7-0.9-4-1.2
					c-6.1-1.4-12.8-0.5-18.3,2.5c-1.5,0.8-3,1.8-4.5,2.9c-2.5,1.7-5,3.4-7.9,4.5C614.9,105.3,613.1,105.6,611.3,105.6z"/>
			</g>
			<g>
				<path fill="#282625" d="M746.1,98.1c-1.4,0-2.8-0.1-4.3-0.3c-6.5-0.9-13.1-3.7-19.8-8.5l-1-0.7c-1.8-1.3-3.5-2.5-5.4-3.2
					c-1.4-0.5-2.9-0.7-5.1-0.7c-5.2-0.1-10.4,0.9-15.2,2.9c-1,0.4-2.2-0.1-2.6-1.1c-0.4-1,0.1-2.2,1.1-2.6
					c5.3-2.1,11.1-3.2,16.8-3.1c1.8,0,4.1,0.2,6.4,0.9c2.4,0.8,4.5,2.3,6.4,3.7l0.9,0.7c6.2,4.4,12.2,7,18.1,7.8
					c6.9,0.9,13.4-0.7,18.1-4.5c0.9-0.7,2.1-0.6,2.8,0.3c0.7,0.9,0.6,2.1-0.3,2.8C758.5,96.1,752.5,98.1,746.1,98.1z"/>
			</g>
			<g>
				<path fill="#B9A289" d="M918.6,274.9c-3.3-5.6-7.8-10.1-10.1-16.3c-3.9-10.5-1.6-22.5-4.9-33.3c-3.7-12.1-13.9-21.4-19.3-32.8
					c-6-12.6-10.7-25.7-14-39.3c-1.1-4.3-2-8.7-3.9-12.7c-2.9-6.1-7.9-10.9-12.9-15.5c-3.5-3.3-7.1-6.7-11-9.6
					c-14.6-10.8-33.3-15-47.9-25.9c-7.7-5.8-14.2-13.5-23.3-16.8c-6.1-2.2-12.8-2.2-19.3-1.8c2.4,1.7,4.9,3.3,7.4,4.9
					c11.4,7.2,23.7,13.3,33,22.9c22.9,23.6,22.5,61.3,39.2,89.6c4.5,7.6,10.3,14.7,12.5,23.3c2.4,9.7-0.2,19.8-1.4,29.6
					c-6.7,55.7,32.2,113.7,11.5,165.9c-5.5,14-15.1,26.3-18.8,40.9c-3.6,14.2-1.6,30-9,42.6c-10,17-33.8,22.5-42.7,40.1
					c-13.5,26.9,16.9,60.7,4,87.8c-2.3,4.8-5.8,8.9-8.2,13.7c-3,6-4,12.8-3.9,19.5c0.4,20.3,9.6,44.3-5.1,58.3
					c-10.1,9.7-28.1,9.3-35.7,21.1c-5.9,9.1-7.5,25.8-18.3,23.9c-2.3,8.6-4.6,17.2-6.9,25.9c0.2,3,0.3,6.1,0.2,9.1
					c10.7-8.4,17.3-21.7,17.5-35.3c5.2,8.1,10.4,16.1,15.6,24.2c-2-9.1,6.5-17.2,15.1-20.9c8.6-3.7,18.5-5.4,25.1-12
					c8.1-8.1,9.1-21.4,17-29.6c7.2-7.5,19.2-9.9,24.2-19c6.2-11.1-1.4-26.3,5.2-37.1c5.1-8.4,16.3-10.2,24.6-15.5
					c16.8-10.7,28.8-27.6,28.5-48.2c-0.1-3.8-0.5-7.5-0.6-11.3c-0.1-5.8,0.8-11.6,1.7-17.3c1.7-10.9,4.8-20.5,9.6-30.3
					c4.5-9.2,11-17.3,13.6-27.3c3.2-12.3,3.2-25.5-0.2-37.7c-2.7-9.6-7.4-19-6.5-28.9c1.2-13.2,11.1-23.7,19-33.4
					c5.9-7.3,7.3-17.2,6.8-26.5c-0.5-9.3-2.6-18.5-2.8-27.9c-0.1-2.3,0-4.7,1-6.8c0.8-1.8,2.2-3.2,3.3-4.8c3.4-4.9,3.9-11.2,4-17.1
					c0.1-13.5-1.8-26.9-7.4-39.3C922.3,283.6,921,278.9,918.6,274.9z"/>
			</g>
			<g>
				<path fill="#282625" d="M686.6,788.3c-0.2,0-0.3,0-0.5-0.1c-1.1-0.3-1.7-1.4-1.4-2.4c0.7-2.5-0.6-5.6-2.8-6.9
					c-1-0.6-2.1-0.9-3.4-1.3c-2.4-0.8-5.2-1.7-6.8-4.3c-1.3-2.2-1.1-4.7-1-6.6c0.1-1.1,0.1-2.4,0.7-3.6c1.1-2.3,3.4-3.6,4.9-4.4
					l9.3-5c1-0.5,2.2-0.2,2.7,0.8c0.5,1,0.2,2.2-0.8,2.7l-9.3,5c-1.4,0.8-2.7,1.5-3.1,2.5c-0.3,0.6-0.3,1.4-0.4,2.2
					c-0.1,1.7-0.1,3.3,0.5,4.3c0.8,1.3,2.5,1.9,4.6,2.5c1.4,0.4,2.9,0.9,4.2,1.7c3.8,2.3,5.8,7,4.7,11.3
					C688.3,787.7,687.5,788.3,686.6,788.3z"/>
			</g>
			<g>
				<path fill="#282625" d="M657.2,758.2c-0.6,0-1.2-0.3-1.6-0.8c-0.7-0.9-0.5-2.1,0.4-2.8c3.3-2.5,5.1-7.3,4.9-12.9
					c-0.1-3.4-0.8-6.6-1.6-10.1c-0.4-1.8-0.8-3.7-1.1-5.6c-1.6-9.7-0.8-19.7,2.5-29c0.4-1,1.5-1.6,2.6-1.2c1,0.4,1.6,1.5,1.2,2.6
					c-3.1,8.6-3.9,17.9-2.4,27c0.3,1.8,0.7,3.6,1.1,5.4c0.8,3.5,1.6,7.1,1.7,10.8c0.3,7-2.1,12.9-6.5,16.2
					C658,758.1,657.6,758.2,657.2,758.2z"/>
			</g>
			<g>
				<path fill="#282625" d="M714.4,781.3c-0.5,0-0.9-0.2-1.3-0.5c-0.8-0.7-1-2-0.2-2.8c4.2-4.9,5.3-12.3,2.9-18.3
					c-0.2-0.6-0.5-1.1-0.7-1.7c-0.6-1.2-1.1-2.4-1.5-3.8c-1.3-5.1,0.8-10.2,2.3-14c0.4-1,1.6-1.5,2.6-1.1c1,0.4,1.5,1.6,1.1,2.6
					c-1.7,4.2-3,8-2.1,11.5c0.3,1,0.7,2,1.2,3.1c0.3,0.6,0.6,1.2,0.8,1.8c3,7.3,1.6,16.3-3.5,22.4
					C715.5,781,714.9,781.3,714.4,781.3z"/>
			</g>
			<g>
				<path fill="#282625" d="M690.9,782.8c-0.1,0-0.1,0-0.2,0c-1.1-0.1-1.9-1.1-1.8-2.2c0.3-2.6-0.6-5.4-2.3-7.5
					c-0.1-0.1-0.2-0.3-0.3-0.4c-0.6-0.6-1.2-1.4-1.6-2.4c-0.4-1-0.4-2.1-0.4-2.9c0-1.4,0-3.3,1-5c0.6-1,1.4-1.7,2.1-2.3l3.2-2.8
					c0.8-0.7,2.1-0.7,2.8,0.2c0.7,0.8,0.7,2.1-0.2,2.8l-3.2,2.8c-0.5,0.4-1,0.9-1.3,1.3c-0.4,0.7-0.4,1.9-0.5,3c0,0.5,0,1.1,0.1,1.5
					c0.1,0.3,0.5,0.8,0.9,1.2c0.1,0.2,0.3,0.3,0.4,0.5c2.4,2.9,3.6,6.7,3.2,10.4C692.8,782,691.9,782.8,690.9,782.8z"/>
			</g>
			<g>
				<path fill="#282625" d="M707.7,794.6l0.2-4.5c0.3-8.6-0.7-17-2.9-25.3c-2,3.3-5.3,6.5-6.6,10.1c-1.3,3.6-1.1,8.1-0.7,11.9
					c0.4,3.9,1,7.9,0.5,11.8c-0.5,3.9-2.4,7.9-5.9,9.7c0.1-2.5-0.2-4.9-0.8-7.3c-0.2-0.6-0.3-1.1-0.7-1.6c-0.5-0.6-1.3-0.8-2-1
					c-2.4-0.8-4.5-2.2-6.2-4c-2.5-2.7-3.9-6.2-6.5-8.8c-4.6-4.7-12.3-5.7-16-11.1c-2.3-3.3-2.7-7.5-4.7-11c-1.6-2.8-4.2-4.8-6.8-6.6
					c-1.8-1.3-3.8-2.5-5.3-4.1c-1.8-2-2.9-4.4-4-6.8c-1.6-3.5-2.8-7.8-4.8-11.1c-2-3.4-5.8-6.4-8.5-9.3c-2.7-2.9-5.4-5.8-8.1-8.8
					c-4.7-5.1-9.6-10.4-13.1-16.8c-1.2-2.2-2.2-4.5-3.2-6.7c-1.3-2.9-2.5-5.7-4.1-8.2c-5.7-9-15.2-14.2-25.2-19.6
					c-7.9-4.3-16-8.7-22.4-15.2c-11.9-12.3-15.5-29.5-19-46.1c-0.3-1.3-0.5-2.6-0.8-3.9c-3.5-16.6-8.1-33.1-13.6-49.1
					c-1.6-4.6-3.2-9-5.8-12.9c-1.4-2.1-3.1-4.1-4.9-6.2c-3.2-3.6-6.5-7.4-8.1-12.2c-1.6-4.8-1.3-9.8-1-14.7l0.1-0.8
					c0.8-11.7,0.7-23.5-0.1-35.2c-0.6-9.1-3.9-15.3-8-23.1l-0.9-1.8c-5.6-10.7-6-22.6-6.5-34.1c-0.1-2.2-0.2-4.5-0.3-6.7
					c-0.6-10-3.9-19-7.3-28.6c-1.2-3.2-2.4-6.6-3.5-9.9c-3.9-11.9-3.9-24.7-3.7-35.8c0-1.1,0-2.2,0-3.4c0-4.2,0-8.6,1.2-12.7
					c1-3.5,2.8-6.8,4.5-10c1.3-2.4,2.5-4.7,3.4-7c2.4-6.1,1.9-11,1.4-16.8c-0.2-2.6-0.5-5.3-0.5-8.3c0-8.8,3.1-18.3,8.4-26
					c1.1-1.6,2.3-3.1,3.4-4.6c2.6-3.4,5-6.5,6.4-10.2c1.3-3.7,1.5-7.7,1.6-11.9c0.1-2.7,0.2-5.6,0.6-8.4
					c2.1-13.6,12.1-24.5,20.1-33.2c0.7-0.8,1.4-1.5,2-2.2c3.5-3.7,6-6.4,8.2-11.5c1.4-3.3,2.7-6.8,3.9-10.2c1-2.7,2-5.5,3.1-8.3
					c3-7.6,8.2-18.6,17.3-25.5c3.2-2.4,6.9-4.3,10.4-6.1c5.1-2.7,10-5.2,13.5-9.2c1.6-1.9,2.9-4.1,4.3-6.4c0.9-1.6,1.9-3.3,3-4.8
					C588,84.9,597.2,79,608.2,76c7-1.9,14.6-2.7,24.6-2.7c1.9,0,3.7,0,5.6,0.1l2.4,0.1c2.2,0.1,4.6,0.1,6.8,0.1
					c4.3,0,10-0.2,15.4-1.7c2.3-0.7,4.6-1.5,6.9-2.5c2.1-0.8,4.2-1.7,6.4-2.3c4.4-1.3,9.1-2,14.4-2c7.3,0,14.7,1.3,21.8,2.5l1.7,0.3
					c7.2,1.2,13.9,1.8,21.3,1.8c3.9,0,8.1-0.2,12.9-0.5c2.7-0.2,6.1-0.4,9.4-0.4c5.7,0,10.2,0.7,14.2,2.2c6.6,2.4,11.9,7,17,11.5
					c2.2,1.9,4.4,3.9,6.7,5.6c7.1,5.4,15.5,9.1,23.7,12.8c8.2,3.7,16.8,7.5,24.2,13.1c4,3,7.7,6.4,11.2,9.7
					c4.8,4.5,10.2,9.6,13.3,16.1c1.8,3.7,2.7,7.7,3.7,11.6l0.4,1.5c3.3,13.4,7.9,26.4,13.9,38.9c2.2,4.7,5.4,9.1,8.4,13.4
					c4.3,6.1,8.8,12.3,11,19.6c1.7,5.4,2,11,2.3,16.4c0.3,5.9,0.7,11.5,2.6,16.8c1.4,3.7,3.6,6.8,6,10.1c1.3,1.9,2.7,3.8,4,5.8
					c1.6,2.7,2.7,5.7,3.8,8.5c0.6,1.7,1.2,3.3,1.9,4.8c5.3,11.7,7.8,24.9,7.6,40.2c-0.1,6.3-0.6,12.9-4.3,18.3
					c-0.4,0.6-0.8,1.1-1.2,1.7c-0.7,1-1.4,1.9-1.9,2.8c-0.7,1.6-0.8,3.5-0.8,5.9c0.1,4.8,0.8,9.8,1.4,14.5c0.6,4.3,1.2,8.8,1.4,13.3
					c0.6,11.8-1.9,21.2-7.3,27.9c-0.9,1.1-1.8,2.2-2.7,3.3c-7.3,8.8-14.8,18-15.8,29c-0.6,6.9,1.6,13.5,4,20.5
					c0.9,2.5,1.7,5.1,2.5,7.7c3.5,12.5,3.6,25.9,0.2,38.8c-1.8,6.9-5.3,12.9-8.7,18.7c-1.7,2.9-3.5,6-5,9
					c-4.8,9.8-7.8,19.2-9.5,29.7c-0.9,5.6-1.8,11.3-1.7,17c0,1.9,0.2,3.8,0.3,5.6c0.1,1.9,0.3,3.8,0.3,5.7
					c0.3,19.7-10.4,37.9-29.4,50c-2.9,1.9-6.2,3.3-9.3,4.7c-5.9,2.6-11.5,5.1-14.6,10.1c-3,4.9-2.7,11.1-2.5,17.6
					c0.3,6.6,0.6,13.5-2.7,19.4c-3.2,5.7-8.8,9-14.2,12.1c-3.9,2.2-7.5,4.4-10.4,7.3c-3.6,3.8-5.7,8.8-7.9,14
					c-2.3,5.5-4.7,11.3-9.1,15.7c-5.1,5-11.8,7.4-18.3,9.6c-2.5,0.9-5,1.7-7.4,2.8c-7.9,3.4-15.7,10.6-13.9,18.5l2.5,11.4
					l-18.6-28.8c-1.8,12-8.2,23.1-17.8,30.7L707.7,794.6z M705.9,754.2l1.6,4.6c2.9,8.6,4.5,17.6,4.6,26.6
					c8.1-8,13.1-19.4,13.2-30.7l0.1-6.9l15.8,24.4c2-7.1,9-13,16.1-16.1c2.5-1.1,5.1-2,7.7-2.9c6.4-2.2,12.4-4.3,16.8-8.7
					c3.8-3.8,6-8.9,8.2-14.3c2.3-5.4,4.6-10.9,8.8-15.3c3.2-3.4,7.3-5.8,11.3-8c5.1-3,10-5.8,12.6-10.5c2.7-4.9,2.5-10.9,2.2-17.2
					c-0.3-6.8-0.6-13.9,3.1-19.9c3.7-6.1,10.2-9,16.5-11.8c3-1.3,6.1-2.7,8.8-4.4c17.8-11.3,27.8-28.2,27.5-46.4
					c0-1.8-0.2-3.7-0.3-5.5c-0.1-1.9-0.3-3.9-0.3-5.9c-0.1-6,0.9-11.9,1.8-17.7c1.7-10.9,4.8-20.7,9.8-30.9c1.6-3.2,3.4-6.3,5.1-9.3
					c3.4-5.8,6.6-11.3,8.3-17.6c3.2-12.2,3.1-24.9-0.2-36.6c-0.7-2.5-1.6-5-2.4-7.5c-2.4-7.1-4.9-14.5-4.2-22.2
					c1.1-12.4,9.4-22.4,16.8-31.3c0.9-1.1,1.8-2.2,2.6-3.2c4.8-5.9,6.9-14.3,6.4-25.1c-0.2-4.3-0.8-8.7-1.4-12.9
					c-0.7-4.9-1.3-9.9-1.5-15c-0.1-2.6,0-5.3,1.2-7.7c0.6-1.4,1.5-2.5,2.4-3.6c0.4-0.5,0.8-1,1.1-1.5c3.1-4.4,3.5-10.3,3.6-16
					c0.2-14.7-2.2-27.2-7.2-38.4c-0.8-1.7-1.4-3.4-2-5.1c-1.1-2.8-2.1-5.5-3.5-7.9c-1.1-1.9-2.5-3.8-3.8-5.5
					c-2.4-3.4-4.9-6.9-6.5-11.1c-2.1-5.8-2.5-12-2.8-18c-0.3-5.4-0.6-10.5-2.1-15.4c-2-6.6-6.1-12.4-10.4-18.4
					c-3.2-4.4-6.4-9-8.8-14c-6.1-12.7-10.9-26-14.2-39.7l-0.4-1.5c-0.9-3.8-1.8-7.4-3.4-10.7c-2.8-5.8-7.7-10.4-12.4-14.9
					c-3.4-3.2-7-6.6-10.8-9.4c-7.1-5.3-15.4-9-23.4-12.6c-8.3-3.8-17-7.6-24.5-13.3c-2.4-1.8-4.7-3.8-7-5.8
					c-5.1-4.4-9.9-8.5-15.7-10.7c-3.6-1.3-7.6-1.9-12.8-1.9c-3.1,0-6.4,0.2-9.1,0.4c-4.9,0.3-9.2,0.5-13.1,0.5
					c-7.6,0-14.6-0.6-22-1.9l-1.7-0.3c-6.9-1.2-14.1-2.5-21.1-2.5c-4.9,0-9.2,0.6-13.2,1.8c-2,0.6-4.1,1.4-6.1,2.2
					c-2.4,0.9-4.8,1.9-7.3,2.6c-5.9,1.7-11.9,1.9-16.5,1.9c-2.3,0-4.7-0.1-7-0.1l-2.4-0.1c-1.8,0-3.6-0.1-5.5-0.1
					c-9.7,0-17,0.8-23.5,2.6c-10.1,2.7-18.4,8.1-23.4,15.1c-1,1.4-1.9,2.9-2.9,4.5c-1.4,2.4-2.9,4.8-4.8,7c-4,4.7-9.5,7.5-14.7,10.2
					c-3.4,1.7-6.8,3.5-9.8,5.8c-6.4,4.9-11.4,12.2-16,23.7c-1.1,2.7-2.1,5.5-3.1,8.1c-1.2,3.4-2.5,6.9-4,10.4
					c-2.4,5.8-5.3,8.9-9,12.7c-0.6,0.7-1.3,1.4-2,2.1c-7.6,8.3-17.1,18.6-19.1,31c-0.4,2.5-0.5,5.1-0.6,7.8
					c-0.1,4.4-0.3,8.9-1.8,13.2s-4.3,7.9-7,11.4c-1.1,1.4-2.2,2.9-3.3,4.4c-4.8,7.1-7.6,15.7-7.6,23.7c0,2.8,0.2,5.4,0.5,7.9
					c0.6,6,1.1,11.7-1.6,18.7c-1,2.6-2.3,5.1-3.6,7.5c-1.7,3.1-3.2,6.1-4.1,9.2c-1,3.5-1,7.5-1,11.5c0,1.2,0,2.3,0,3.5
					c-0.3,10.7-0.2,23.1,3.4,34.4c1.1,3.3,2.3,6.6,3.4,9.8c3.4,9.5,7,19.2,7.6,29.8c0.1,2.2,0.2,4.5,0.3,6.7c0.4,11,0.9,22.5,6,32.3
					l0.9,1.8c4.3,8.2,7.8,14.8,8.5,24.7c0.8,11.9,0.9,23.9,0.1,35.8l-0.1,0.8c-0.3,4.4-0.6,9,0.7,13.1c1.4,4,4.2,7.3,7.3,10.8
					c1.8,2.1,3.7,4.2,5.3,6.6c2.8,4.3,4.6,9,6.3,13.8c5.6,16.2,10.2,32.8,13.8,49.6c0.3,1.3,0.5,2.6,0.8,3.9
					c3.3,16.1,6.8,32.7,17.9,44.1c5.9,6.1,13.7,10.3,21.3,14.5c10.1,5.5,20.5,11.1,26.8,21.1c1.8,2.8,3.1,5.8,4.4,8.8
					c1,2.1,1.9,4.4,3.1,6.4c3.2,5.9,8,11,12.5,16c3.9,4.3,7.9,8.5,11.8,12.8c3.4,3.7,5.3,6.7,7.2,11.3c1.6,4.2,3.1,8.6,6.4,11.9
					c4,4,10.3,5.8,12.7,10.9c0.8,1.6,1,3.4,1.6,5.2c0.7,2.5,2,4.8,3.8,6.7c4.8,4.8,12.9,5.5,16.9,11c1.6,2.3,2.5,5.3,5,6.5
					c1,0.5,2.2,0.7,3.2,1c2.9,1,5.1,4,5.1,7.1c2-4.9-0.5-10.4-0.5-15.7c-0.1-9.1,5.9-16.5,9.7-24.2
					C703.7,758.6,705.9,754.2,705.9,754.2z"/>
			</g>
		</g>
		<g>
			<path fill="#4C4135" d="M755.7,466.6c-3.7-2.2-7.5-4.4-11.7-5.2c-2.3-0.4-4.7-0.4-7-0.8c-8.3-1.4-14.9-7.6-20.9-13.5
				c-1.8,4.5-7,6.6-11.6,8.2c-7.4,2.6-14.7,5.2-22.2,7.6c-1.4,0.4-2.8,0.9-4,1.6c-2.5,1.4-4.3,3.7-6.9,4.9c-1.5,0.7-3.1,1-4.7,1.6
				c-1.5,0.6-3,1.6-3.5,3.2c-0.5,1.6,0.6,3.6,2.2,3.6c0.9,0,1.6-0.5,2.3-1c14.4-9.9,33-10.9,50.4-10.4c6.4,0.2,13,0.6,19.1,2.5
				c8.4,2.5,16.3,7.8,25.1,7.4C763.5,472.2,759.3,468.8,755.7,466.6z"/>
		</g>
		<g>
			<g>
				<path fill="#A18F6F" d="M610,332c0,0,32.5-41.3,63.2,4.1c0,0-4.7,1.2-25.4,4.7C627.1,344.4,619.4,339.6,610,332z"/>
			</g>
			<g>
				<path fill="#282625" d="M635.3,344.1c-12.7,0-19.3-4.6-26.7-10.5l-1.6-1.3l1.3-1.6c0.6-0.7,14.4-18,33-18
					c12.3,0,23.6,7.5,33.6,22.3l1.7,2.5l-2.9,0.7c-0.2,0-5,1.2-25.6,4.8C643.3,343.7,639.1,344.1,635.3,344.1z M613,331.7
					c6.2,4.9,11.9,8.2,22.3,8.2c3.6,0,7.5-0.4,12.1-1.2c12.2-2.1,18.9-3.4,22.2-4c-8.7-11.9-18.2-17.9-28.3-17.9
					C627.8,316.8,616.7,327.6,613,331.7z"/>
			</g>
		</g>
		<g>
			<path fill="#282625" d="M818.7,326c-1.4,0-2.4-0.2-2.5-0.2c-0.5-0.1-0.9-0.4-1.2-0.9c-8.2-12.1-18-18.7-29-19.9
				c-20.3-2-38.5,15.4-38.7,15.6c-0.8,0.8-2.2,0.8-3,0c-0.8-0.8-0.8-2.2,0-3c0.8-0.8,19.8-19,42-16.8c12.1,1.2,22.7,8.3,31.5,20.9
				c1.8,0.2,6.5,0,10.3-5.4c0.7-0.9,2-1.2,2.9-0.5c0.9,0.7,1.2,2,0.5,2.9C827.3,324.9,821.8,326,818.7,326z"/>
		</g>
		<g>
			<g>
				<path fill="#A18F6F" d="M747.6,332c0,0,31.9-45,61.4-3.6c0,0-14.2,11.8-37.8,7.7C747.6,332,747.6,332,747.6,332z"/>
			</g>
			<g>
				<path fill="#282625" d="M781.1,339.1c-3.4,0-6.8-0.3-10.2-0.9l-26.9-4.7l1.9-2.7c0.6-0.9,15.8-22,35.6-22
					c10.7,0,20.6,6.2,29.3,18.4l1.1,1.6l-1.5,1.2C809.9,330.4,799.3,339.1,781.1,339.1z M751.4,330.5l20.2,3.5
					c3.2,0.6,6.4,0.8,9.5,0.8c12.7,0,21.5-4.7,25-7c-7.5-9.9-15.8-14.9-24.6-14.9C767.8,313,756,325,751.4,330.5z"/>
			</g>
		</g>
		<g>
			<path fill="#282625" d="M788,365.5c-10.4,0-22.1-7.4-34.9-22.1c-0.8-0.9-0.7-2.2,0.2-3c0.9-0.8,2.2-0.7,3,0.2
				c13.7,15.7,25.7,22.5,35.6,20.2c14.1-3.3,19.8-24.2,19.9-24.4c0.3-1.1,1.4-1.8,2.6-1.5c1.1,0.3,1.8,1.4,1.5,2.6
				c-0.3,1-6.4,23.5-22.9,27.4C791.2,365.3,789.6,365.5,788,365.5z"/>
		</g>
		<g>
			<path fill="#282625" d="M623.5,373.1c-2.2,0-4.3-0.3-6.3-0.9c-8.8-2.8-14.5-11.6-16.9-26.3c-0.2-1.1,0.6-2.2,1.7-2.4
				c1.1-0.2,2.2,0.6,2.4,1.7c2.1,13,6.9,20.7,14.1,23c18.4,5.8,47.6-23.8,47.9-24.1c0.8-0.8,2.1-0.8,3,0c0.8,0.8,0.8,2.1,0,3
				C668.2,348.2,643.5,373.1,623.5,373.1z"/>
		</g>
		<g>
			<path fill="#282625" d="M588.1,313c-0.3,0-0.6-0.1-0.9-0.2c-0.9-0.4-1.4-1.5-1.1-2.4c0.1-0.4,10-35.6,41.9-35.6
				c4.5,0,9.3,0.7,14.2,2.1c42.9,12.2,43.5,15.1,43.7,16.4c0.1,0.4,0,0.9-0.1,1.3c-0.2,0.3-3.8,8.3-14.3,8.3c-5.8,0-12.5-2.5-20-7.4
				c-6.5-4.3-13.6-6.5-20.9-6.5c-17.5,0-32.5,12-40.6,23.3C589.4,312.7,588.8,313,588.1,313z M628,278.9c-17.6,0-27.7,11.7-33,21.1
				c9.1-8.4,21.5-15.4,35.4-15.4c8.2,0,16,2.4,23.2,7.2c6.8,4.5,12.8,6.7,17.7,6.7c5.3,0,8.3-2.7,9.6-4.4c-2.8-1.5-11.8-5.3-40-13.3
				C636.5,279.5,632.1,278.9,628,278.9z"/>
		</g>
		<g>
			<path fill="#282625" d="M743.6,304.2C743.6,304.2,743.6,304.2,743.6,304.2c-7.2,0-12.9-3.1-13.6-3.5c-1-0.5-2.6-2-2.4-4.3
				c0.2-3.8,4.4-10.1,37.6-21.6c8-2.8,15.5-4.2,22.4-4.2c28,0,37,23.3,38.1,26.4c0.1,0.3,0.2,0.6,0.2,0.9c0,1.1-0.9,2.1-2.1,2.1
				c-0.7,0-1.5-0.4-1.9-1.1c-7.8-14.2-22-16.3-29.8-16.3c-12.2,0-24.7,5.1-30.5,12.4C757,301.1,750.7,304.2,743.6,304.2z
				 M787.6,274.8c-6.4,0-13.4,1.3-21,4c-33.4,11.6-34.7,17.3-34.8,17.9c0,0.2,0.2,0.3,0.2,0.3c0,0,0.1,0,0.1,0.1c0,0,5.2,3,11.5,3
				c0,0,0,0,0,0c5.9,0,10.8-2.5,14.7-7.5c6.6-8.4,20.2-14,33.8-14c6.9,0,13.3,1.5,18.8,4.2C805.6,278.4,798.1,274.8,787.6,274.8z"/>
		</g>
		<g>
			<path fill="#282625" d="M597.6,480.5c-0.2,0-0.5,0-0.7-0.1c-1.1-0.4-1.6-1.6-1.2-2.7c3-8,12.7-18.9,23-30.5
				c10.9-12.2,22.2-24.8,26-34.6c7.8-19.8,16.8-27.1,17.2-27.4c0.9-0.7,2.2-0.6,2.9,0.3c0.7,0.9,0.6,2.2-0.3,2.9
				c-0.1,0.1-8.6,7.1-15.9,25.7c-4.1,10.5-15.6,23.4-26.8,35.8c-10,11.2-19.5,21.8-22.2,29.1C599.2,480,598.4,480.5,597.6,480.5z"/>
		</g>
		<g>
			<path fill="#282625" d="M806.6,471.1c-1,0-1.9-0.7-2.1-1.7c-3.8-19.8-26.5-47.8-34.9-56.9c-7.2-7.8-12-17.8-12.2-18.2
				c-0.5-1,0-2.3,1-2.8c1-0.5,2.3,0,2.8,1c0,0.1,4.7,9.9,11.5,17.2c0.3,0.3,31.1,33.9,36,58.9c0.2,1.1-0.5,2.2-1.7,2.5
				C806.9,471.1,806.8,471.1,806.6,471.1z"/>
		</g>
		<g>
			<path fill="#282625" d="M694.4,461c-1,0-1.9-0.8-2.1-1.8c-0.1-1.1,0.7-2.2,1.8-2.3c3.7-0.5,6.8-2.8,8.2-6.3
				c1.5-3.5,1-7.4-1.3-10.4c-6.6-8.5-0.5-23.3-0.3-23.9c0.4-1.1,1.7-1.6,2.7-1.1c1.1,0.4,1.6,1.7,1.1,2.7
				c-0.1,0.1-5.4,13.2-0.3,19.8c3.2,4.2,3.9,9.7,1.9,14.6c-2,4.9-6.4,8.2-11.6,8.9C694.6,461,694.5,461,694.4,461z"/>
		</g>
		<g>
			<path fill="#282625" d="M677.9,466.9c-1,0-1.9-0.8-2.1-1.8c-0.2-1.1,0.7-2.2,1.8-2.3c7-0.9,11.3-3.2,12.9-6.7
				c2.5-5.5-1.6-13.7-5.6-19.6c-2.3-3.4-3.1-7-2.4-10.5c1.3-6.5,7.4-10.5,7.7-10.7c1-0.6,2.3-0.4,2.9,0.6c0.6,1,0.4,2.3-0.6,2.9l0,0
				c0,0-4.9,3.3-5.9,8.1c-0.5,2.4,0.1,4.9,1.7,7.3c6.6,9.8,8.5,17.8,5.9,23.6c-2.2,4.9-7.7,8-16.2,9.1
				C678.1,466.9,678,466.9,677.9,466.9z"/>
		</g>
		<g>
			<path fill="#282625" d="M663.1,475.2c-1,0-1.9-0.8-2.1-1.8c-0.2-1.1,0.6-2.2,1.8-2.4c6-0.8,10-2.9,11.7-6.1
				c3.6-6.8-2.2-18.4-6.4-26.9c-0.8-1.6-1.5-3.1-2.2-4.5c-2-4.4-2.2-8.3-0.6-11.5c2.7-5.4,9.4-7,9.7-7c1.1-0.2,2.2,0.5,2.5,1.6
				c0.2,1.1-0.5,2.2-1.6,2.5c-0.1,0-5.1,1.2-6.9,4.8c-1,2.1-0.8,4.8,0.6,7.9c0.6,1.3,1.4,2.8,2.1,4.4c4.6,9.3,10.9,22,6.4,30.7
				c-2.4,4.5-7.4,7.3-14.8,8.3C663.3,475.2,663.2,475.2,663.1,475.2z"/>
		</g>
		<g>
			<path fill="#282625" d="M648.8,500.6c-0.7,0-1.4-0.4-1.8-1c-0.6-1-0.3-2.3,0.7-2.9c6.4-4,10.3-9.1,11.8-15.4
				c2.7-12-3.9-25.7-9.9-35.1c-2.8-4.4-3.6-8.6-2.3-12.6c2.4-7.3,11.2-10.7,11.5-10.9c1.1-0.4,2.3,0.1,2.7,1.2
				c0.4,1.1-0.1,2.3-1.2,2.7c-0.1,0-7.3,2.8-9.1,8.3c-0.9,2.7-0.3,5.7,1.8,9c6.4,10.1,13.5,24.9,10.4,38.3
				c-1.7,7.4-6.3,13.5-13.6,18.1C649.5,500.5,649.1,500.6,648.8,500.6z"/>
		</g>
		<g>
			<path fill="#282625" d="M646,503c-0.6,0-1.2-0.3-1.6-0.8c-0.7-0.9-0.6-2.2,0.3-2.9c0.3-0.3,8.2-7.2-0.4-19.6
				c-10.2-14.8-5-38.2-4.7-39.2c0.3-1.1,1.4-1.8,2.5-1.6c1.1,0.3,1.8,1.4,1.6,2.5c-0.1,0.2-5.1,22.5,4.1,35.8
				c10.8,15.6-0.3,25.1-0.4,25.2C646.9,502.8,646.5,503,646,503z"/>
		</g>
		<g>
			<path fill="#282625" d="M645.2,547.9c-0.4,0-0.8-0.1-1.2-0.4c-1-0.7-1.2-2-0.5-2.9c0.1-0.2,14-20.9,3.5-37.3
				c-11.5-17.8-18.4-49-18.7-50.3c-0.2-1.1,0.5-2.2,1.6-2.5c1.1-0.2,2.2,0.5,2.5,1.6c0.1,0.3,7.1,31.7,18.1,48.9
				c12,18.7-2.9,40.9-3.6,41.9C646.5,547.5,645.9,547.9,645.2,547.9z"/>
		</g>
		<g>
			<path fill="#282625" d="M630.3,710.3c-0.2,0-0.4,0-0.6-0.1c-4.6-1.4-7.2-3.7-7.9-6.9c-1.6-7.7,8.8-18.3,29.9-36.3
				c5.5-4.7,8.4-10.4,8.7-17.2c0.8-15.4-12.4-33.6-20.4-41.8c-7.7-8-2.6-23.1,3.2-40.5c4-11.8-4.3-19.7-16.9-31.5
				c-3.9-3.7-8.2-7.8-12.6-12.5c-19.2-20.5,5.2-58.3,6.3-59.9c0.6-1,1.9-1.2,2.9-0.6c1,0.6,1.2,1.9,0.6,2.9
				c-0.2,0.4-23.7,36.7-6.7,54.7c4.3,4.6,8.6,8.7,12.4,12.3c12.7,12,22.8,21.5,18,35.9c-5.4,16.1-10.1,30.1-4.1,36.3
				c2.3,2.4,22.6,24.2,21.5,44.9c-0.4,7.9-3.8,14.7-10.2,20.1c-14.5,12.4-29.8,26.1-28.5,32.3c0.3,1.6,2,2.8,5,3.7
				c1.1,0.3,1.7,1.5,1.4,2.6C632.1,709.7,631.2,710.3,630.3,710.3z"/>
		</g>
		<g>
			<path fill="#282625" d="M622.4,710.3c-0.5,0-1-0.2-1.4-0.5c-10-8.8-15-17.3-15.2-25.8c-0.4-12.5,9.7-22.5,18.6-31.3
				c6.9-6.9,13.5-13.4,13.6-19.6c0.2-8-4-11.6-8.9-15.9c-6.8-5.9-14.5-12.5-10.5-31.2c4.1-19.2,1.6-20.9-8.9-27.8
				c-5.2-3.5-12.4-8.2-21.3-16.9c-5.9-5.8-9-13-9-21.2c-0.1-24.8,26.5-51.5,27.6-52.6c0.8-0.8,2.1-0.8,3,0c0.8,0.8,0.8,2.1,0,3
				c-0.3,0.3-26.5,26.6-26.4,49.6c0,7.1,2.6,13.3,7.7,18.3c8.6,8.4,15.6,13,20.7,16.4c11.9,7.9,15.1,11.1,10.6,32.2
				c-3.4,16.2,2.7,21.5,9.2,27.1c5.2,4.5,10.6,9.2,10.3,19.1c-0.2,7.8-7.3,14.9-14.9,22.4c-8.7,8.6-17.7,17.6-17.4,28.2
				c0.2,7.3,4.7,14.7,13.8,22.8c0.9,0.8,0.9,2.1,0.2,3C623.5,710,622.9,710.3,622.4,710.3z"/>
		</g>
		<g>
			<path fill="#282625" d="M645.2,729.8c-0.6,0-1.2-0.3-1.6-0.8c-12.3-15.2-6.2-35.3,17.1-56.6c15.1-13.8,12.2-32.2,12.1-32.4
				c-0.2-1.1,0.6-2.2,1.7-2.4c1.1-0.2,2.2,0.6,2.4,1.7c0.1,0.8,3.4,20.8-13.4,36.2c-12.4,11.4-31.1,33.1-16.7,50.9
				c0.7,0.9,0.6,2.2-0.3,2.9C646.2,729.6,645.7,729.8,645.2,729.8z"/>
		</g>
		<g>
			<path fill="#282625" d="M705.3,580.3c-0.4,0-0.8-0.1-1.1-0.3c-1-0.6-1.3-1.9-0.7-2.9c5.2-8.3,6.9-15.2,5.2-21.1
				c-2.7-9.6-14-15.4-24.1-20.4c-3.9-2-7.6-3.9-10.6-5.9c-3.9-2.6-6.2-6.1-6.6-10.3c-1-10.6,10.2-22,10.7-22.5c0.8-0.8,2.1-0.8,3,0
				c0.8,0.8,0.8,2.1,0,3c-0.1,0.1-10.3,10.5-9.5,19.1c0.3,2.9,1.8,5.3,4.7,7.2c2.8,1.9,6.4,3.7,10.2,5.6c10.8,5.5,23,11.6,26.2,23
				c2,7.1,0.1,15.1-5.7,24.4C706.7,580,706,580.3,705.3,580.3z"/>
		</g>
		<g>
			<path fill="#282625" d="M705.3,593.3c-0.2,0-0.4,0-0.5-0.1c-1.1-0.3-1.8-1.4-1.5-2.6c5-19.2-15.5-31.6-33.5-42.6
				c-2.7-1.6-5.3-3.2-7.7-4.8c-5.6-3.6-8.8-8.2-9.6-13.7c-1.6-11.5,8.2-22.6,8.6-23.1c0.8-0.9,2.1-0.9,3-0.2c0.9,0.8,0.9,2.1,0.2,3
				c-0.1,0.1-8.9,10.2-7.6,19.8c0.6,4.3,3.2,7.9,7.7,10.7c2.4,1.5,5,3.1,7.7,4.7c18.3,11.1,41.2,25,35.4,47.2
				C707.1,592.7,706.2,593.3,705.3,593.3z"/>
		</g>
		<g>
			<path fill="#282625" d="M711.4,611.6c-0.1,0-0.2,0-0.2,0c-1.1-0.1-2-1.2-1.8-2.3c2-17.1-16.7-23.3-39.4-29
				c-22.6-5.7-19-34.5-18.9-34.8c0.2-1.1,1.2-1.9,2.4-1.8c1.1,0.2,1.9,1.2,1.8,2.4c-0.1,1-3.1,25.4,15.8,30.2
				c19,4.8,45.1,11.4,42.6,33.6C713.4,610.9,712.5,611.6,711.4,611.6z"/>
		</g>
		<g>
			<path fill="#282625" d="M708.6,652.4c-0.3,0-0.6-0.1-0.9-0.2c-1.1-0.5-1.5-1.7-1.1-2.8c3.8-8.4,7.1-18,3.5-25.4
				c-2.8-5.7-9.4-9.8-20.2-12.4c-29.4-7.2-41-32-41.5-33.1s0-2.3,1-2.8c1.1-0.5,2.3,0,2.8,1c0.1,0.2,11.3,24,38.7,30.7
				c12.1,3,19.6,7.8,23,14.7c4.4,9,0.7,19.7-3.4,29C710.2,651.9,709.4,652.4,708.6,652.4z"/>
		</g>
		<g>
			<path fill="#282625" d="M677.9,673.7c-0.9,0-1.7-0.6-2-1.5c-0.3-1.1,0.3-2.3,1.4-2.6c4.8-1.5,8-4.3,9.7-8.5
				c3.4-8.1-0.1-18.8-0.8-20.3c-0.5-0.8-0.4-1.9,0.3-2.6c0.8-0.8,2.1-0.8,3,0c1.2,1.2,4.7,12.3,2.5,21.4c-1.7,6.9-6.3,11.8-13.4,14
				C678.3,673.6,678.1,673.7,677.9,673.7z"/>
		</g>
		<g>
			<path fill="#282625" d="M689.8,634.9c-11.7,0-21.3-3.5-28.5-10.3c-14.8-14-14.6-37.1-14.5-38c0-1.2,0.9-2.1,2.1-2
				c1.2,0,2.1,1,2.1,2.1c0,0.2-0.3,22.2,13.3,34.9c7.3,6.9,17.5,10,30.2,9c1.1-0.1,2.2,0.8,2.2,1.9c0.1,1.2-0.8,2.2-1.9,2.2
				C692.9,634.8,691.3,634.9,689.8,634.9z"/>
		</g>
		<g>
			<path fill="#282625" d="M682.2,753.4c-1.1,0-2-0.8-2.1-1.9c-0.1-1.2,0.8-2.2,1.9-2.3c3.4-0.3,5.5-1.3,6.7-3
				c2.8-4.4-0.7-14-4.1-23.2c-4.8-13.3-9.9-27-0.1-33.1c16.8-10.6,19.5-30.2,19.5-30.4c0.2-1.1,1.2-2,2.3-1.8c1.1,0.1,2,1.2,1.8,2.3
				c-0.1,0.9-3,21.8-21.5,33.4c-6.9,4.4-2.5,16.4,1.8,28.1c3.9,10.7,7.6,20.7,3.7,26.9c-1.8,2.9-5.1,4.5-9.8,4.9
				C682.3,753.4,682.3,753.4,682.2,753.4z"/>
		</g>
		<g>
			<path fill="#282625" d="M722.2,537.8c-0.7,0-1.4-0.4-1.8-1c-0.6-1-0.3-2.3,0.7-2.9c15.6-9.2,6.9-32.1,6.8-32.3
				c-0.4-1.1,0.1-2.3,1.2-2.7c1.1-0.4,2.3,0.1,2.7,1.2c0.1,0.3,10.1,26.4-8.6,37.4C722.9,537.7,722.6,537.8,722.2,537.8z"/>
		</g>
		<g>
			<path fill="#282625" d="M713.8,547.9c-0.6,0-1.3-0.3-1.7-0.8c-18.7-24.7,0-45,0.1-45.2c0.8-0.8,2.1-0.9,3-0.1
				c0.8,0.8,0.9,2.1,0.1,3c-0.7,0.7-16.3,18,0.1,39.8c0.7,0.9,0.5,2.2-0.4,2.9C714.7,547.7,714.3,547.9,713.8,547.9z"/>
		</g>
		<g>
			<path fill="#282625" d="M713.8,579.8c-0.9,0-1.8-0.6-2-1.6c-3.6-15.2,6.1-31.7,28.1-47.7c17.8-12.9,9.2-30.3,8.8-31
				c-0.5-1-0.1-2.3,0.9-2.8c1-0.5,2.3-0.1,2.8,0.9c0.1,0.2,10.6,21.3-10.1,36.3c-14.3,10.4-30.5,26.3-26.5,43.3
				c0.3,1.1-0.4,2.3-1.6,2.5C714.1,579.7,714,579.8,713.8,579.8z"/>
		</g>
		<g>
			<path fill="#282625" d="M713.2,598.1c-1,0-1.8-0.7-2-1.6c-3.8-17.1,10.4-25.6,26.9-35.4c6.6-3.9,13.5-8,20.1-13.1
				c21.8-16.6,3.3-44.4,2.5-45.6c-0.6-1-0.4-2.3,0.6-2.9c1-0.6,2.3-0.4,2.9,0.6c0.2,0.3,21.5,32.3-3.4,51.3
				c-6.8,5.2-14.1,9.5-20.5,13.4c-16.3,9.7-28.1,16.7-24.9,30.9c0.3,1.1-0.5,2.2-1.6,2.5C713.5,598,713.3,598.1,713.2,598.1z"/>
		</g>
		<g>
			<path fill="#282625" d="M722.2,655.9c-0.8,0-1.6-0.5-1.9-1.2c-2.9-6.3-3-12.3-0.5-17.3c3.2-6.4,10.6-11,21.5-13.4
				c17.7-3.9,30-24.8,30.2-25c0.6-1,1.9-1.3,2.9-0.8c1,0.6,1.3,1.9,0.8,2.9c-0.5,0.9-13.3,22.7-32.9,27c-9.6,2.1-16,6-18.6,11.2
				c-2,3.9-1.8,8.5,0.6,13.7c0.5,1.1,0,2.3-1,2.8C722.8,655.9,722.5,655.9,722.2,655.9z"/>
		</g>
		<g>
			<path fill="#282625" d="M806.6,707.6c-0.3,0-0.7-0.1-1-0.2c-1-0.5-1.4-1.8-0.9-2.8c2.4-4.5,2.9-8.3,1.6-11.6
				c-3.3-8.4-17.9-13.4-32-18.3c-5.3-1.8-10.8-3.8-15.8-5.9c-7.2-3.1-11.9-7.7-13.9-13.7c-3.7-11.1,3.1-22.8,3.4-23.3
				c0.6-1,1.9-1.3,2.9-0.7c1,0.6,1.3,1.9,0.7,2.9c-0.1,0.1-6.1,10.6-3.1,19.9c1.6,4.8,5.5,8.6,11.5,11.2c4.8,2,10.2,3.9,15.5,5.7
				c15.7,5.4,30.6,10.6,34.6,20.8c1.8,4.5,1.2,9.6-1.8,15.1C808.1,707.2,807.4,707.6,806.6,707.6z"/>
		</g>
		<g>
			<path fill="#282625" d="M812,703.8c-0.3,0-0.6-0.1-0.9-0.2c-1-0.5-1.5-1.7-1-2.8c4-8.5,4.8-15.8,2.5-22.4
				c-4.8-13.3-21.6-21.2-36.4-28.1c-3.3-1.6-6.5-3.1-9.4-4.5c-6.3-3.2-9.6-7.2-9.6-11.8c-0.1-9.4,13.5-17,15.1-17.9
				c1-0.5,2.3-0.2,2.8,0.8c0.5,1,0.2,2.3-0.8,2.8c-3.6,1.9-12.9,8.3-12.9,14.2c0,2.9,2.5,5.6,7.3,8.1c2.8,1.5,6,2.9,9.3,4.5
				c15.6,7.3,33.2,15.6,38.6,30.5c2.7,7.6,1.9,16.2-2.6,25.7C813.5,703.3,812.7,703.8,812,703.8z"/>
		</g>
		<g>
			<path fill="#282625" d="M756.4,753.4c-0.4,0-0.8-0.1-1.2-0.4c-0.2-0.1-4.1-2.9-3.5-7.5c0.6-5.3,6.6-10,18.2-14.5
				c5.3-2,8.8-5.4,10.7-10.3c5.6-14.3-5-36-5.1-36.2c-0.5-1-0.1-2.3,1-2.8c1-0.5,2.3-0.1,2.8,1c0.5,1,11.5,23.6,5.2,39.6
				c-2.3,5.9-6.7,10.2-13.1,12.6c-13.5,5.2-15.4,9.5-15.6,11.1c-0.3,2.1,1.7,3.6,1.8,3.6c0.9,0.7,1.2,2,0.5,2.9
				C757.7,753.1,757.1,753.4,756.4,753.4z"/>
		</g>
		<g>
			<path fill="#282625" d="M753.1,756.3c0,0-0.1,0-0.1,0c-5.8-0.3-10.5-3.2-12.5-7.8c-2.4-5.4-0.8-12.2,4.5-18.7
				c8.7-10.7-0.2-31.3-0.3-31.5c-0.5-1.1,0-2.3,1.1-2.8c1.1-0.5,2.3,0,2.8,1.1c0.4,0.9,10.1,23.2-0.3,35.8
				c-4.2,5.2-5.6,10.4-3.9,14.3c1.4,3.1,4.6,5.1,8.9,5.3c1.2,0.1,2,1,2,2.2C755.1,755.5,754.2,756.3,753.1,756.3z"/>
		</g>
		<g>
			<path fill="#282625" d="M735.8,753.4c-0.2,0-0.5,0-0.7-0.1c-16.6-5.9-13.7-21.6-11.4-34.3c2-10.6,2.8-17.2-2.3-19.5
				c-17.4-7.7-10.5-33.8-10.2-34.9c0.3-1.1,1.5-1.8,2.6-1.5c1.1,0.3,1.8,1.5,1.5,2.6c-0.1,0.2-6.3,23.8,7.9,30
				c8.5,3.8,6.6,14.1,4.8,24.1c-2.2,12.2-4.6,24.9,8.7,29.6c1.1,0.4,1.7,1.6,1.3,2.7C737.4,752.9,736.6,753.4,735.8,753.4z"/>
		</g>
		<g>
			<path fill="#282625" d="M694.4,753.4c-0.9,0-1.8-0.6-2-1.6c-0.3-1.1,0.4-2.3,1.5-2.5c6.3-1.5,11-4.9,14-10.1
				c8.2-14,1.7-36.7,1.6-36.9c-0.3-1.1,0.3-2.3,1.4-2.6c1.1-0.3,2.3,0.3,2.6,1.4c0.3,1,7,24.6-2,40.2c-3.6,6.2-9.2,10.3-16.7,12
				C694.8,753.4,694.6,753.4,694.4,753.4z"/>
		</g>
		<g>
			<path fill="#282625" d="M813.6,673.7c-0.4,0-0.7-0.1-1.1-0.3c-1-0.6-1.3-1.9-0.7-2.9c4.6-7.8,0.4-19.8-10.1-29.3
				c-13.8-12.4-3.3-30.1,5.8-42.4c10.5-14.1-2.6-40.1-2.7-40.3c-0.5-1-0.1-2.3,0.9-2.8c1-0.5,2.3-0.1,2.8,0.9
				c0.6,1.2,14.4,28.5,2.3,44.7c-13.1,17.6-15,29-6.4,36.8c12.3,11,16.7,24.8,11,34.5C815.1,673.3,814.4,673.7,813.6,673.7z"/>
		</g>
		<g>
			<path fill="#282625" d="M777.5,616.7c-0.7,0-1.3-0.3-1.7-0.9c-0.7-0.9-0.5-2.2,0.5-2.9c11.3-8.1,18.2-13.1,14.8-39.7
				c-2.2-17.1,3.2-21.4,10.7-27.4c5.4-4.4,12.2-9.8,19.1-22.3c15.4-28.1-5.2-42.7-6.1-43.3c-1-0.7-1.2-2-0.5-2.9
				c0.7-1,2-1.2,2.9-0.5c0.2,0.2,24.7,17.4,7.4,48.8c-7.2,13.2-14.7,19.2-20.1,23.5c-7.1,5.7-11.1,8.9-9.2,23.6
				c3.7,29.1-4.8,35.2-16.5,43.6C778.3,616.5,777.9,616.7,777.5,616.7z"/>
		</g>
		<g>
			<path fill="#282625" d="M718.6,637.6c-0.8,0-1.5-0.4-1.9-1.2c-3.6-7.6-4.3-14-2-19.4c4.3-10.4,19-16.3,37.7-23
				c27.4-9.8,16.8-42.3,16.3-43.7c-0.1-0.4-0.1-0.8,0-1.2c0.2-0.5,3.9-13.1,27.3-26.3c21.2-12,11.2-43.3,11.1-43.6
				c-0.4-1.1,0.2-2.3,1.3-2.6c1.1-0.4,2.3,0.2,2.6,1.3c0.1,0.3,11.1,34.9-13,48.5c-19.1,10.8-24.2,21-25.2,23.3
				c1.6,5.3,9.8,38-19.1,48.3c-20.3,7.3-31.9,12.7-35.2,20.7c-1.8,4.3-1.1,9.5,2,16c0.5,1,0,2.3-1,2.8
				C719.2,637.6,718.9,637.6,718.6,637.6z"/>
		</g>
		<g>
			<path fill="#282625" d="M773.2,532.5c-1,0-1.9-0.8-2.1-1.8c-0.2-1.2-3.7-30.1,15.8-36.5c16.2-5.3,14.1-24.1,14-24.9
				c-0.1-1.1,0.7-2.2,1.8-2.3c1.2-0.1,2.2,0.7,2.3,1.8c0,0.2,2.7,23.1-16.8,29.4c-16.3,5.3-13,31.7-13,32c0.1,1.1-0.7,2.2-1.8,2.3
				C773.4,532.5,773.3,532.5,773.2,532.5z"/>
		</g>
		<g>
			<path fill="#282625" d="M787.6,517.1c-0.8,0-1.6-0.5-1.9-1.2c-0.5-1.1,0-2.3,1-2.8c15.8-7.2,17.8-25.9,17.9-26.1
				c0.1-1.1,1.1-2,2.3-1.9c1.1,0.1,2,1.1,1.9,2.3c-0.1,0.9-2.3,21.3-20.3,29.5C788.2,517.1,787.9,517.1,787.6,517.1z"/>
		</g>
		<g>
			<path fill="#282625" d="M775.7,510.1c-0.6,0-1.2-0.3-1.6-0.8c-11-13.5,0.6-28.6,12.4-41.7c12.6-13.9-0.1-32.9-0.6-33.7
				c-0.6-1-0.4-2.3,0.6-2.9c1-0.6,2.3-0.4,2.9,0.6c0.2,0.2,15,22.5,0.2,38.9c-13.6,15-20.3,26.4-12.3,36.3c0.7,0.9,0.6,2.2-0.3,2.9
				C776.6,509.9,776.1,510.1,775.7,510.1z"/>
		</g>
		<g>
			<path fill="#282625" d="M770.7,491.8c-0.6,0-1.2-0.3-1.6-0.7c-9.8-11.7-9.2-26.6,1.9-46.9c9.4-17.3-2.5-25-3.1-25.3
				c-1-0.6-1.3-1.9-0.7-2.9c0.6-1,1.9-1.3,2.9-0.7c0.2,0.1,15.9,10.1,4.5,30.8c-10.3,18.8-11,31.9-2.4,42.2c0.7,0.9,0.6,2.2-0.3,2.9
				C771.7,491.6,771.2,491.8,770.7,491.8z"/>
		</g>
		<g>
			<path fill="#282625" d="M764.6,478.3c-0.4,0-0.8-0.1-1.1-0.3c-4.8-3.1-7.6-7.2-8.5-12.1c-1.4-8.3,3.4-16.6,7.7-22.1
				c7.2-9.4-8.1-25.2-8.3-25.3c-0.8-0.8-0.8-2.1,0-3c0.8-0.8,2.1-0.8,3,0c0.7,0.8,18,18.6,8.6,30.8c-5.3,6.9-7.7,13.5-6.8,18.8
				c0.6,3.7,2.8,6.8,6.6,9.3c1,0.6,1.2,1.9,0.6,2.9C765.9,477.9,765.3,478.3,764.6,478.3z"/>
		</g>
		<g>
			<path fill="#282625" d="M758.1,471.1c-0.3,0-0.7-0.1-1-0.3c-0.5-0.3-12.4-7.1-14.1-15.9c-0.6-3.4,0.3-6.7,2.7-9.6
				c8.3-10-0.9-29.5-1-29.7c-0.5-1-0.1-2.3,1-2.8c1-0.5,2.3-0.1,2.8,1c0.4,0.9,10.3,22.1,0.4,34.2c-1.6,2-2.2,4-1.8,6.2
				c1.1,5.8,9,11.4,12,13.1c1,0.6,1.4,1.8,0.8,2.8C759.5,470.7,758.8,471.1,758.1,471.1z"/>
		</g>
		<g>
			<path fill="#282625" d="M748.9,463.7c-0.1,0-0.2,0-0.3,0c-11.6-1.5-18.7-8.5-20.6-14.7c-1.4-4.8-0.1-9.4,3.7-12.6
				c7.1-6.1-0.3-18.1-0.4-18.3c-0.6-1-0.3-2.3,0.6-2.9c1-0.6,2.3-0.3,2.9,0.7c0.4,0.6,9.4,15.2-0.4,23.7c-2.5,2.1-3.3,5-2.4,8.2
				c1.5,4.9,7.3,10.5,17.1,11.7c1.1,0.1,2,1.2,1.8,2.3C750.9,462.9,750,463.7,748.9,463.7z"/>
		</g>
		<g>
			<path fill="#282625" d="M735.5,461.9c-6.3,0-13.7-4.7-17.5-10.4c-3.5-5.2-3.2-10.4,0.7-13.8c7.7-6.6-0.3-19.5-0.4-19.6
				c-0.6-1-0.3-2.3,0.7-2.9c1-0.6,2.3-0.3,2.9,0.7c0.4,0.7,10,16.1-0.4,25c-2.9,2.5-1.6,5.9,0,8.3c3.7,5.5,12.2,10.3,16.9,7.9
				c1-0.5,2.3-0.1,2.8,0.9c0.5,1,0.1,2.3-0.9,2.8C738.8,461.5,737.2,461.9,735.5,461.9z"/>
		</g>
		<g>
			<path fill="#282625" d="M703.3,458.9c-1.1,0-2.2-0.1-3.3-0.3c-1.1-0.2-1.9-1.3-1.7-2.4s1.3-1.9,2.4-1.7c4.2,0.7,7.3-0.1,9.5-2.5
				c6.3-6.8,3.6-25.1,2.1-31.6c-0.3-1.1,0.4-2.3,1.5-2.5c1.1-0.3,2.3,0.4,2.5,1.5c0.3,1,6,25.6-3.1,35.4
				C710.6,457.6,707.3,458.9,703.3,458.9z"/>
		</g>
		<g>
			<path fill="#282625" d="M630.3,580.3c-0.2,0-0.3,0-0.5-0.1c-1.1-0.3-1.8-1.4-1.5-2.5c4.8-18.5,1.4-24.9-21-40.3
				c-24.6-16.8-11.7-39.8-11.6-40c0.6-1,1.9-1.3,2.9-0.8c1,0.6,1.3,1.9,0.8,2.9c-0.5,0.8-11,19.8,10.3,34.4
				c23.9,16.4,27.9,24.3,22.6,44.8C632.1,579.7,631.3,580.3,630.3,580.3z"/>
		</g>
		<g>
			<path fill="#282625" d="M617.1,693.2c-0.9,0-1.7-0.6-2-1.5c-3.4-11,6.5-21.4,16.1-31.4c6.7-7,13.6-14.2,15.6-21.2
				c4.7-16.2-15.5-32.5-15.7-32.6c-0.9-0.7-1.1-2-0.3-2.9c0.7-0.9,2-1.1,2.9-0.3c0.9,0.7,22.6,18.2,17.1,37.1
				c-2.3,8-9.6,15.6-16.6,22.9c-9.1,9.5-17.8,18.6-15.1,27.2c0.3,1.1-0.3,2.3-1.4,2.6C617.5,693.1,617.3,693.2,617.1,693.2z"/>
		</g>
		<g>
			<path fill="#282625" d="M764.3,729.8c-0.8,0-1.6-0.5-1.9-1.2c-0.5-1.1,0-2.3,1.1-2.8c5.4-2.4,8.2-6.2,8.3-11.4
				c0.1-10.6-11.7-25.6-25.3-32.1c-21.2-10.1-15.3-28.9-15.3-29.1c0.4-1.1,1.5-1.7,2.6-1.3c1.1,0.4,1.7,1.5,1.3,2.6
				c-0.2,0.7-4.7,15.5,13.1,24.1c13.5,6.5,27.9,22.4,27.7,35.9c-0.1,4.7-2,11.2-10.8,15.1C764.9,729.7,764.6,729.8,764.3,729.8z"/>
		</g>
		<g>
			<path fill="#282625" d="M846.8,529c-0.7,0-1.3-0.3-1.7-0.9c-0.7-0.9-0.4-2.3,0.5-2.9c12.1-8.4,2.9-32,2.8-32.2
				c-0.4-1.1,0.1-2.3,1.2-2.7c1.1-0.4,2.3,0.1,2.7,1.2c0.4,1.1,10.5,26.9-4.3,37.2C847.6,528.8,847.2,529,846.8,529z"/>
		</g>
		<g>
			<path fill="#282625" d="M806.6,629.1c-0.9,0-1.8-0.6-2-1.5c-0.3-1.1,0.3-2.3,1.4-2.6c13.2-3.7,21.9-10.1,25.8-19
				c6.1-13.9-0.7-30.8-5.2-39.7c-3.4-6.5-4.1-12.6-2.1-18c3.1-8.4,11.6-11.9,12-12.1c1.1-0.4,2.3,0.1,2.7,1.1
				c0.4,1.1-0.1,2.3-1.1,2.7l0,0c-0.1,0-7.2,3-9.6,9.7c-1.6,4.2-0.9,9.1,1.9,14.6c4.9,9.5,12.1,27.8,5.3,43.3
				c-4.4,10.1-14,17.3-28.5,21.4C807,629,806.8,629.1,806.6,629.1z"/>
		</g>
		<g>
			<path fill="#282625" d="M828.5,634.9c-0.9,0-1.8-0.6-2-1.5c-0.3-1.1,0.4-2.3,1.5-2.6c24.1-6.5,28.5-39.5,23.9-59.7
				c-5.1-22.4,9-26.5,9.1-26.5c1.1-0.3,2.3,0.3,2.6,1.5c0.3,1.1-0.3,2.3-1.4,2.6c-0.5,0.1-10.3,3.3-6.2,21.6
				c5,21.8-0.2,57.4-26.9,64.7C828.9,634.8,828.7,634.9,828.5,634.9z"/>
		</g>
		<g>
			<path fill="#282625" d="M822,661.8c-0.9,0-1.8-0.6-2-1.6c-3.2-12.8,10-19.6,36.4-33l4.2-2.2c26.4-13.5,8-63.9,7.8-64.4
				c-0.4-1.1,0.2-2.3,1.2-2.7c1.1-0.4,2.3,0.1,2.7,1.2c0.8,2.2,19.8,54.5-9.9,69.6l-4.2,2.2c-26.1,13.3-36.6,19-34.2,28.2
				c0.3,1.1-0.4,2.3-1.5,2.5C822.3,661.8,822.2,661.8,822,661.8z"/>
		</g>
		<g>
			<path fill="#282625" d="M877,559.1c-0.5,0-1-0.2-1.4-0.5c-0.9-0.8-1-2.1-0.2-3c10.9-12.3,15.8-23.9,15-35.2
				c-1.3-19.1-18.9-34.2-33.1-46.4c-5.3-4.5-10.2-8.8-13.8-12.8c-4.3-4.8-6.2-10.4-5.8-16.7c1.3-17.8,21.7-34.8,22.5-35.6
				c0.9-0.7,2.2-0.6,2.9,0.3c0.7,0.9,0.6,2.2-0.3,2.9c-0.2,0.2-19.8,16.6-21,32.7c-0.4,5.2,1.2,9.6,4.7,13.6
				c3.4,3.8,8.3,8,13.4,12.4c14.7,12.7,33.1,28.5,34.5,49.3c0.9,12.4-4.5,25.3-16,38.3C878.1,558.8,877.5,559.1,877,559.1z"/>
		</g>
		<g>
			<path fill="#282625" d="M833.8,529c-0.5,0-1-0.2-1.5-0.6c-0.8-0.8-0.9-2.1,0-3c15.3-15.8,2.8-33.2-9.3-50.1
				c-0.9-1.3-1.8-2.5-2.7-3.8c-3.7-5.3-4.8-10.3-3.2-15c3.1-9.2,15.6-13.3,16.1-13.5c1.1-0.3,2.3,0.3,2.6,1.4
				c0.3,1.1-0.3,2.3-1.4,2.6l0,0c-0.1,0-11,3.6-13.4,10.8c-1.1,3.3-0.2,7.1,2.7,11.2c0.9,1.2,1.8,2.5,2.7,3.7
				c11.9,16.6,26.6,37.2,8.9,55.5C834.9,528.7,834.4,529,833.8,529z"/>
		</g>
		<g>
			<path fill="#282625" d="M877,547.9c-0.7,0-1.3-0.3-1.7-0.9c-0.7-0.9-0.5-2.2,0.5-2.9c3.7-2.7,5.7-8.7,5.2-15.8
				c-0.6-9.2-5.7-21.4-18-27.9c-22-11.6-25.2-39.2-25.3-40.4c-0.1-1.1,0.7-2.2,1.9-2.3c1.1-0.1,2.2,0.7,2.3,1.9
				c0,0.3,3.1,26.6,23.1,37.1c13.8,7.3,19.5,20.9,20.2,31.3c0.6,8.7-2,16-7,19.5C877.8,547.7,877.4,547.9,877,547.9z"/>
		</g>
		<g>
			<path fill="#282625" d="M859.2,616.1c-0.6,0-1.1-0.2-1.5-0.7c-0.8-0.9-0.7-2.2,0.1-3c12.6-11.5,9.2-22.9,5.9-33.9
				c-2.5-8.5-5.1-17.2,0.8-24.6c11.2-14-4.6-40.5-4.7-40.7c-0.6-1-0.3-2.3,0.7-2.9c1-0.6,2.3-0.3,2.9,0.7
				c0.7,1.2,17.4,29.2,4.4,45.5c-4.5,5.7-2.5,12.7-0.1,20.8c3.3,11.1,7.4,24.9-7.1,38.2C860.2,615.9,859.7,616.1,859.2,616.1z"/>
		</g>
		<g>
			<path fill="#282625" d="M877,485.8c-0.9,0-1.8-0.6-2-1.5c-0.3-0.9-6.1-22.5,6.6-36.8c9.2-10.3-1.6-38-6.5-47.9
				c-0.5-1-0.1-2.3,0.9-2.8c1-0.5,2.3-0.1,2.8,0.9c0.8,1.5,18.8,38.1,5.9,52.5c-11.2,12.5-5.8,32.7-5.7,32.9
				c0.3,1.1-0.3,2.3-1.5,2.6C877.3,485.8,877.1,485.8,877,485.8z"/>
		</g>
		<g>
			<path fill="#282625" d="M861.6,466.9c-0.7,0-1.4-0.4-1.8-1c-13-22.6,9.2-42.6,9.5-42.8c0.9-0.8,2.2-0.7,3,0.2
				c0.8,0.9,0.7,2.2-0.2,3l0,0c-0.8,0.7-19.9,17.9-8.6,37.6c0.6,1,0.2,2.3-0.8,2.9C862.3,466.9,861.9,466.9,861.6,466.9z"/>
		</g>
		<g>
			<path fill="#282625" d="M897.7,514.2c-0.2,0-0.4,0-0.6-0.1c-1.1-0.4-1.7-1.5-1.4-2.6c3.5-11.1,1.2-21.7-1.1-32
				c-2.7-12.4-5.6-25.2,1.8-38.6c12.2-22.2-5.3-45.9-5.5-46.2c-0.7-0.9-0.5-2.2,0.4-2.9c0.9-0.7,2.2-0.5,2.9,0.4
				c0.8,1.1,19.3,26.2,5.8,50.7c-6.6,12-4.1,23.5-1.4,35.7c2.4,10.9,4.9,22.1,1,34.2C899.4,513.6,898.6,514.2,897.7,514.2z"/>
		</g>
		<g>
			<path fill="#282625" d="M605.8,667.2c-0.2,0-0.5,0-0.7-0.1c-1.1-0.4-1.6-1.6-1.2-2.7c0.1-0.3,10-27.7-2.9-38.4
				c-14.9-12.4-15.7-19.2-5.4-48.4c6.1-17.2-2-22.3-14.3-30.1c-6.3-4-13.5-8.6-19.5-15.7c-12-14-5.2-27.8,1.9-42.5
				c3.8-7.8,7.8-16,9.4-24.8c4.4-23.9-32-37.7-32.3-37.8c-1.1-0.4-1.6-1.6-1.2-2.7c0.4-1.1,1.6-1.6,2.7-1.2c1.6,0.6,40,15.1,35,42.5
				c-1.7,9.4-5.8,17.8-9.8,25.9c-7.1,14.5-12.7,26-2.5,37.9c5.6,6.6,12.5,11,18.6,14.8c12.5,7.9,23.2,14.8,16,35.1
				c-10.2,28.9-8.7,33.1,4.1,43.8c15.1,12.6,4.6,41.8,4.2,43.1C607.5,666.6,606.7,667.2,605.8,667.2z"/>
		</g>
		<g>
			<path fill="#282625" d="M616.5,655.9c-0.5,0-0.9-0.2-1.3-0.5c-0.9-0.7-1-2.1-0.3-2.9c12.4-15,5-24.5-2.1-33.6
				c-4.9-6.2-9.9-12.7-6-19.8c7.4-13.7,0-30.5-0.1-30.6c-0.5-1.1,0-2.3,1-2.8c1-0.5,2.3,0,2.8,1c0.3,0.8,8.4,18.8-0.1,34.3
				c-2.4,4.5,0.5,8.7,5.6,15.2c7,9,16.6,21.3,2.1,38.8C617.7,655.7,617.1,655.9,616.5,655.9z"/>
		</g>
		<g>
			<path fill="#282625" d="M601.1,673.7C601.1,673.7,601.1,673.7,601.1,673.7c-24.4-0.8-32.9-17.7-41.2-34.2
				c-5.2-10.3-10.5-21-19.8-28.3c-14.9-11.7-12-24.4-9.5-35.6c2-8.7,3.9-16.9-1.6-24.8c-13.9-20.3,6-50,24.9-73.7
				c4.6-5.8,5.2-12.1,1.7-18.9c-5.5-10.7-18.5-18.2-21.2-18.3c-0.9,0.4-2,0-2.6-0.9c-0.6-1-0.2-2.3,0.8-2.9
				c3.7-2.2,15.3,5.4,21.8,13c9.1,10.5,10,21.4,2.7,30.6c-16.6,20.8-37.2,50.5-24.7,68.7c6.5,9.5,4.3,19,2.2,28.1
				c-2.6,11.4-4.9,21.3,8,31.4c10,7.9,15.6,19,20.9,29.7c8.4,16.7,15.6,31.2,37.5,31.9c1.2,0,2.1,1,2,2.2
				C603.2,672.8,602.2,673.7,601.1,673.7z"/>
		</g>
		<g>
			<path fill="#282625" d="M597.6,657.7c-0.3,0-0.6-0.1-0.8-0.2c-31.4-13.6-27.4-50.2-20-69.7c6.4-16.9-0.5-22.2-18.9-36.4
				c-2-1.6-4.2-3.2-6.4-5c-6.4-5-10-11.2-10.9-18.5c-1.8-15.5,10-30.2,10.5-30.8c0.7-0.9,2-1,2.9-0.3c0.9,0.7,1,2,0.3,2.9
				c-0.1,0.1-11.2,14-9.6,27.8c0.7,6.1,3.8,11.4,9.3,15.6c2.3,1.8,4.4,3.4,6.4,4.9c18.5,14.2,27.7,21.3,20.3,41.1
				c-6.8,18.1-10.7,52,17.8,64.4c1.1,0.5,1.5,1.7,1.1,2.8C599.1,657.2,598.4,657.7,597.6,657.7z"/>
		</g>
		<g>
			<path fill="#282625" d="M575.6,647.7c-0.5,0-1.1-0.2-1.5-0.6c-14.6-14.9-16.4-35.7-17.9-52.5c-1.2-13.4-2.2-24.9-8.9-29.8
				c-17.3-12.8-15.1-39.3-15-40.4c0.1-1.1,1.1-2,2.3-1.9c1.1,0.1,2,1.1,1.9,2.3c0,0.3-2,25.3,13.3,36.7c8.2,6.1,9.3,18.5,10.5,32.8
				c1.5,16.9,3.2,36.1,16.7,49.9c0.8,0.8,0.8,2.1,0,3C576.6,647.5,576.1,647.7,575.6,647.7z"/>
		</g>
		<g>
			<path fill="#282625" d="M523.7,540.5c-0.5,0-1.1-0.2-1.5-0.6c-19.7-19.5,2.4-54.7,13.1-71.7l0.2-0.3c2.1-3.3,2.7-6.6,1.7-9.9
				c-2.4-8.9-14.4-15.1-14.5-15.2c-1-0.5-1.4-1.8-0.9-2.8c0.5-1,1.8-1.4,2.8-0.9c0.6,0.3,13.7,7.1,16.6,17.8
				c1.2,4.5,0.5,8.9-2.2,13.3l-0.2,0.3c-10.1,16-31,49.3-13.7,66.5c0.8,0.8,0.8,2.1,0,3C524.8,540.3,524.3,540.5,523.7,540.5z"/>
		</g>
		<g>
			<path fill="#282625" d="M510.2,524.2c-0.5,0-1-0.2-1.5-0.6c-16.8-16.3-6.9-46.7,3.8-63.2c8.5-13-3.9-27.8-4-27.9
				c-0.7-0.9-0.6-2.2,0.2-2.9c0.9-0.7,2.2-0.6,2.9,0.2c0.6,0.7,14.5,17.3,4.3,32.9c-10,15.3-19.4,43.4-4.4,57.9
				c0.8,0.8,0.9,2.1,0.1,3C511.2,524,510.7,524.2,510.2,524.2z"/>
		</g>
		<g>
			<path fill="#282625" d="M507.1,311.7c-3.8,0-8.3-1.9-12.9-8.4c-0.7-0.9-0.4-2.3,0.5-2.9c0.9-0.7,2.3-0.4,2.9,0.5
				c3.9,5.6,8,7.7,12.2,6.1c10.9-4.1,19.8-29.3,18.3-44.6c-2.5-24.6,7.4-33.6,32.2-49.8c23.9-15.6,18-51.9,18-52.2
				c-0.2-1.1,0.6-2.2,1.7-2.4c1.1-0.2,2.2,0.6,2.4,1.7c0.3,1.6,6.4,39.4-19.8,56.4c-25.9,16.8-32.6,24.5-30.4,45.9
				c1.8,17.3-8.1,44.1-21,48.9C510.1,311.4,508.7,311.7,507.1,311.7z"/>
		</g>
		<g>
			<path fill="#282625" d="M532.6,421.3c-2,0-4.3-0.7-7.1-2.5c-1-0.6-1.2-1.9-0.6-2.9c0.6-1,1.9-1.2,2.9-0.6c4.6,3,6.6,1.5,7.2,1
				c8.5-6.4,6.3-42.4,1.6-57.4c-6.3-20.1,8-45.6,17.4-57.5c8.2-10.4,6.6-23.3-5.5-43.4c-11.5-19.1,5.7-32.7,5.8-32.8
				c0.9-0.7,2.2-0.5,2.9,0.4c0.7,0.9,0.5,2.2-0.4,2.9l0,0c-0.6,0.5-14.3,11.5-4.8,27.4c8.7,14.5,17.1,33.1,5.2,48.2
				c-8.9,11.3-22.5,35.2-16.7,53.6c4.5,14.3,8.1,53.6-3.1,62C536.3,420.5,534.7,421.3,532.6,421.3z"/>
		</g>
		<g>
			<path fill="#282625" d="M513.7,373.1c-0.4,0-0.7-0.1-1.1-0.3c-4-2.3-6.4-5.7-7.2-9.9c-2.8-15.2,16.2-39.1,30-56.6
				c1.5-1.9,3-3.7,4.3-5.4c14.6-18.7-0.8-34.7-1.5-35.3c-0.8-0.8-0.8-2.1,0-3c0.8-0.8,2.1-0.8,3,0c0.2,0.2,18.7,19.3,1.8,40.9
				c-1.3,1.7-2.8,3.5-4.3,5.5c-12.6,15.9-31.7,39.9-29.2,53.2c0.6,3.1,2.3,5.4,5.2,7.1c1,0.6,1.3,1.9,0.7,2.9
				C515.1,372.7,514.4,373.1,513.7,373.1z"/>
		</g>
		<g>
			<path fill="#282625" d="M509.7,448.7c-0.5,0-1-0.2-1.4-0.5c-5.6-5-8.5-10.9-8.5-17.3c0-10.1,7-21.4,20.8-33.7
				c15.2-13.6,4.2-42.3,4.1-42.6c-0.4-1.1,0.1-2.3,1.2-2.7c1.1-0.4,2.3,0.1,2.7,1.2c0.5,1.3,12.3,31.7-5.2,47.2
				c-12.7,11.3-19.4,21.9-19.4,30.6c0,5.3,2.3,9.9,7.1,14.2c0.9,0.8,0.9,2.1,0.2,3C510.8,448.5,510.2,448.7,509.7,448.7z"/>
		</g>
		<g>
			<path fill="#282625" d="M507.3,386c-0.3,0-0.6-0.1-0.9-0.2c-9.2-4.2-15.1-12.8-16.5-24.4c-2-16.8,5.6-35.6,18.4-45.6
				c19.9-15.6,24.5-35.5,24.5-35.7c0.2-1.1,1.4-1.8,2.5-1.6c1.1,0.2,1.8,1.4,1.6,2.5c-0.2,0.9-4.9,21.7-26.1,38.1
				c-11.6,9-18.7,26.6-16.9,41.8c1.2,10,6.2,17.5,14,21.1c1.1,0.5,1.5,1.7,1,2.8C508.8,385.6,508.1,386,507.3,386z"/>
		</g>
		<g>
			<path fill="#282625" d="M501.7,448.7c-0.6,0-1.3-0.3-1.7-0.9c-11.8-16.1-11.9-32.6-12-48.5c-0.1-12.6-0.1-24.5-6.2-34.9
				c-14.5-24.7,3.2-69.5,4-71.4c0.4-1.1,1.7-1.6,2.7-1.2c1.1,0.4,1.6,1.7,1.2,2.7c-0.2,0.4-17.8,44.7-4.3,67.7
				c6.7,11.4,6.7,23.8,6.8,37c0.1,15.3,0.1,31.1,11.2,46.1c0.7,0.9,0.5,2.2-0.4,2.9C502.6,448.6,502.1,448.7,501.7,448.7z"/>
		</g>
		<g>
			<path fill="#282625" d="M582.4,157c-2.2,0-4.4-0.5-6.4-1.5c-7-3.3-10.9-7.5-11.6-12.4c-1-7.3,5.5-13.2,5.8-13.5
				c0.9-0.8,2.2-0.7,3,0.2c0.8,0.9,0.7,2.2-0.2,2.9l0,0c-0.1,0-5.2,4.7-4.5,9.8c0.5,3.5,3.6,6.6,9.3,9.2c2.9,1.3,5.8,1.4,9.1,0.2
				c14.8-5.4,28.4-34.2,29.4-36.3c0.7-2.1,6.4-17.9,29.5-13.7c22.1,4,45.7-8.5,45.9-8.6c0.6-0.3,14.5-7.1,21.4,0.4
				c5.2,5.7,37.9,10.4,45.6,7.7c8.7-3.1,25.1-0.8,25.8-0.7c1.1,0.2,1.9,1.2,1.8,2.4c-0.2,1.1-1.2,1.9-2.4,1.8
				c-0.2,0-16.1-2.3-23.8,0.5c-8.3,3-43.3-1.4-50.1-8.8c-4-4.4-13.2-1.1-16.4,0.5c-1,0.5-25.1,13.3-48.6,9
				c-20.7-3.7-24.6,10.3-24.8,10.9c0,0.1-0.1,0.2-0.1,0.4c-0.6,1.3-14.9,32.4-31.8,38.6C586.3,156.6,584.4,157,582.4,157z"/>
		</g>
		<g>
			<path fill="#282625" d="M830.3,192.9c-0.9,0-1.7-0.6-2-1.5c-4.9-15.6,3.8-19.2,13-23.1c3.4-1.4,7.2-3,10.9-5.3
				c1.8-1.1,2.8-2.6,3-4.6c0.9-8.6-11.9-23.2-16.9-28.2c-0.8-0.8-0.8-2.1,0-3c0.8-0.8,2.1-0.8,3,0c0.8,0.8,19.5,19.3,18.2,31.6
				c-0.4,3.3-2,5.9-4.9,7.7c-4,2.5-8,4.2-11.5,5.6c-9.6,4-14.4,6-10.6,18c0.3,1.1-0.3,2.3-1.4,2.6
				C830.7,192.9,830.5,192.9,830.3,192.9z"/>
		</g>
		<g>
			<path fill="#282625" d="M866.1,344.1c-0.7,0-1.5-0.4-1.8-1.1c-0.5-1-0.2-2.3,0.9-2.8c5.7-3.1,9.2-7.3,10.5-12.8
				c4.3-18.2-15.5-46.2-28.6-64.7c-3.9-5.5-7.2-10.2-9.2-13.6c-5.1-9-3.4-14.8-1.8-20.4c1.8-6.2,3.6-12.6-2.9-25.1
				c-13.9-26.6-17.8-46.7-11.2-58.1c1.2-2.1,1.5-4.2,0.9-6.5c-1.7-6.4-10.1-11.3-10.2-11.3c-1-0.6-1.3-1.9-0.8-2.9
				c0.6-1,1.8-1.3,2.9-0.8c0.4,0.2,10,5.8,12.2,13.9c0.9,3.3,0.4,6.6-1.4,9.7c-5.8,10-1.8,29.2,11.3,54.1c7.3,14,5.2,21.6,3.3,28.2
				c-1.6,5.4-2.8,9.7,1.4,17.2c1.8,3.2,5.1,7.8,8.9,13.2c13.5,19.1,34,47.9,29.2,68c-1.6,6.7-5.8,11.9-12.6,15.5
				C866.8,344,866.5,344.1,866.1,344.1z"/>
		</g>
		<g>
			<path fill="#282625" d="M864.2,405.5c-0.3,0-0.6-0.1-0.9-0.2c-1-0.5-1.5-1.7-1-2.8c14.4-30.5-5.1-88.2-13.8-107.9
				c-8.3-18.6-13.7-43.5-13.7-43.8c-0.2-1.1,0.5-2.2,1.6-2.5c1.1-0.2,2.2,0.5,2.5,1.6c0.1,0.2,5.4,24.8,13.5,43
				c0.3,0.7,31.9,72.8,13.8,111.3C865.7,405.1,865,405.5,864.2,405.5z"/>
		</g>
		<g>
			<path fill="#282625" d="M875.5,347.6c-0.7,0-1.5-0.4-1.8-1.1c-0.5-1-0.2-2.3,0.9-2.8c12.8-6.8,19.7-16.1,20.5-27.6
				c1.5-24.1-24.2-52.6-35.2-60.4c-15.7-11.1-15-24.8,2.4-52.4c15.7-24.9,1.3-34.5,0.7-34.9c-1-0.6-1.3-1.9-0.7-2.9
				c0.6-1,1.9-1.3,2.9-0.7c0.2,0.2,6.1,3.8,8,12.2c1.9,8.2-0.6,17.8-7.3,28.5c-18.1,28.6-15.2,38.5-3.5,46.8
				c10.1,7.1,38.7,36.7,37,64.1c-0.8,13-8.5,23.5-22.7,31C876.2,347.6,875.8,347.6,875.5,347.6z"/>
		</g>
		<g>
			<path fill="#282625" d="M892.6,365.5c-0.7,0-1.4-0.4-1.8-1c-0.6-1-0.3-2.3,0.7-2.9c20.6-12.3,31.7-26.6,33.1-42.5
				c2.2-26.1-22.6-50.2-33.3-59.4c-16.9-14.4-15.3-22.8-12.8-35.5c0.3-1.5,0.6-3.2,0.9-4.9c2.6-14.6-2.9-27.6-3-27.8
				c-0.5-1.1,0-2.3,1.1-2.7c1.1-0.5,2.3,0,2.7,1.1c0.2,0.6,6,14.3,3.2,30.1c-0.3,1.7-0.6,3.4-0.9,5c-2.4,12-3.7,18.6,11.4,31.5
				c11.2,9.6,37.1,34.8,34.8,62.9c-1.4,17.3-13.2,32.7-35.1,45.7C893.3,365.4,892.9,365.5,892.6,365.5z"/>
		</g>
		<g>
			<path fill="#282625" d="M887.3,360.4c-0.6,0-1.2-0.3-1.7-0.8c-0.7-0.9-0.5-2.2,0.4-2.9c14.3-11.1,22.3-23.2,23.5-36
				c2.3-23.2-17.2-45.7-31.5-62.2c-2-2.3-4-4.6-5.7-6.7c-22.2-26.5-3.4-47.4-3.3-47.7c0.8-0.8,2.1-0.9,3-0.1c0.8,0.8,0.9,2.1,0.1,3
				l0,0c-0.7,0.7-16.4,18.5,3.4,42.1c1.8,2.1,3.7,4.3,5.7,6.6c14.8,17,35,40.3,32.5,65.3c-1.4,14-9.8,27.1-25.1,38.9
				C888.2,360.2,887.7,360.4,887.3,360.4z"/>
		</g>
		<g>
			<path fill="#282625" d="M875.5,395.5c-0.7,0-1.4-0.4-1.8-1c-0.6-1-0.3-2.3,0.7-2.9c6.9-4.2,11.2-9.6,12.5-16
				c2.6-12.1-5.5-24.1-5.6-24.2c-0.7-1-0.4-2.3,0.5-2.9c1-0.7,2.3-0.4,2.9,0.5c0.4,0.5,9.2,13.6,6.2,27.5
				c-1.6,7.6-6.5,13.9-14.5,18.7C876.2,395.4,875.9,395.5,875.5,395.5z"/>
		</g>
		<g>
			<path fill="#282625" d="M902.5,412.6c-0.6,0-1.2-0.3-1.6-0.8c-0.7-0.9-0.6-2.2,0.3-2.9c23-18.9,8.8-57.6,8.6-58
				c-0.4-1.1,0.1-2.3,1.2-2.7c1.1-0.4,2.3,0.1,2.7,1.2c0.6,1.7,15.4,41.9-9.9,62.7C903.5,412.5,903,412.6,902.5,412.6z"/>
		</g>
		<g>
			<path fill="#282625" d="M825.1,182.2c-0.8,0-1.6-0.5-1.9-1.3c-1.5-3.7-1.8-6.5-0.8-8.9c1.5-3.4,5.2-4.9,9.6-6.6
				c5.3-2.1,12-4.7,17.1-11.8c2-2.8,2.7-5.9,2-9.4c-2.4-13.1-21.7-26.3-21.9-26.4c-1-0.6-1.2-1.9-0.6-2.9c0.6-1,1.9-1.2,2.9-0.6
				c0.9,0.6,21,14.4,23.7,29.1c0.8,4.6-0.1,8.8-2.7,12.6c-5.8,8.1-13.4,11.1-18.9,13.3c-3.6,1.4-6.5,2.5-7.2,4.3
				c-0.5,1.2-0.3,3.1,0.8,5.7c0.4,1.1-0.1,2.3-1.1,2.7C825.6,182.2,825.3,182.2,825.1,182.2z"/>
		</g>
		<g>
			<path fill="#282625" d="M823.8,168.7c-0.7,0-1.4-0.4-1.8-1.1c-0.6-1-0.2-2.3,0.8-2.9c9.1-5.2,14.1-11.1,15-17.6
				c1.2-9.2-6.4-16.8-6.5-16.9c-0.8-0.8-0.8-2.1,0-3c0.8-0.8,2.1-0.8,3,0c0.4,0.4,9.2,9.1,7.8,20.4c-1,7.9-6.7,14.9-17,20.7
				C824.5,168.6,824.1,168.7,823.8,168.7z"/>
		</g>
		<g>
			<path fill="#282625" d="M882.5,329c-0.3,0-0.7-0.1-1-0.3c-1-0.5-1.4-1.8-0.8-2.8c13.3-24.6-8.4-45.5-22.7-59.4
				c-3.6-3.5-6.7-6.5-8.9-9.2c-11.5-14.1-11.6-41.6-0.1-58.9c10-15-2-28.8-2.5-29.4c-0.8-0.9-0.7-2.2,0.2-3c0.9-0.8,2.2-0.7,2.9,0.2
				c0.1,0.2,14.7,16.8,2.9,34.5c-10.4,15.6-10.4,41.3-0.1,53.9c2,2.5,5.1,5.4,8.6,8.8c15.3,14.7,38.3,37,23.5,64.4
				C884,328.6,883.3,329,882.5,329z"/>
		</g>
		<g>
			<path fill="#282625" d="M491.7,299.8c-0.7,0-1.3-0.3-1.7-0.9c-22.2-31.9-10-40.5,1.8-48.9c8.2-5.8,15.9-11.3,13.4-25.1
				c-6.2-34.5,30.1-58.9,36.7-63c1.7-18.4,13.2-31,22.6-38.5c10.1-7.9,21.1-12.5,24-12c1.1,0.2,1.9,1.3,1.7,2.4
				c-0.2,1.1-1.2,1.9-2.3,1.7c-4.4,0.1-39.7,16.1-41.9,47.7c0,0.7-0.4,1.3-1,1.7c-0.4,0.2-41.7,25.1-35.6,59.3
				c2.9,16.4-6.7,23.2-15.1,29.3c-11.5,8.2-20.6,14.7-0.8,43.1c0.7,0.9,0.4,2.3-0.5,2.9C492.5,299.7,492.1,299.8,491.7,299.8z"/>
		</g>
		<g>
			<path fill="#282625" d="M516.3,237C516.3,237,516.3,237,516.3,237c-1.2,0-2.1-1-2.1-2.1c0.2-12.5,6.6-15.5,18.2-20.9
				c5.2-2.4,11.8-5.5,19.8-10.2c24.3-14.4,14.5-48,14.4-48.3c-0.3-1.1,0.3-2.3,1.4-2.6c1.1-0.3,2.3,0.3,2.6,1.4
				c0.1,0.4,10.8,37.1-16.3,53.1c-8.2,4.8-14.8,7.9-20.1,10.4c-11.7,5.5-15.7,7.3-15.8,17.1C518.4,236,517.4,237,516.3,237z"/>
		</g>
		<g>
			<path fill="#282625" d="M513.3,215.3c-0.9,0-1.7-0.6-2-1.4c-0.4-1.1,0.2-2.3,1.3-2.6c22.7-7.6,37-20.5,42.4-38.3
				c4.1-13.2,1.5-24.3,1.5-24.4c-0.3-1.1,0.4-2.3,1.5-2.5c1.1-0.3,2.3,0.4,2.5,1.5c0.1,0.5,2.9,12.3-1.5,26.6
				c-4,13.2-15.1,31-45.1,41C513.8,215.3,513.6,215.3,513.3,215.3z"/>
		</g>
		<g>
			<path fill="#282625" d="M496,299.8c-1.1,0-2-0.8-2.1-1.9c-0.1-1.1,0.7-2.2,1.9-2.3c19.9-1.9,20.4-20.6,20.8-37.1
				c0.1-2.9,0.1-5.6,0.3-8.2c1.2-18.7,19.9-29,20.7-29.5c1-0.6,2.3-0.2,2.8,0.8c0.6,1,0.2,2.3-0.8,2.8l0,0
				c-0.2,0.1-17.4,9.7-18.5,26.1c-0.2,2.5-0.2,5.2-0.3,8c-0.4,16.4-1,38.9-24.6,41.1C496.1,299.8,496,299.8,496,299.8z"/>
		</g>
		<g>
			<path fill="#282625" d="M492,282.7c-0.7,0-1.4,0-2.2-0.1c-1.2-0.1-2-1.1-1.9-2.2c0.1-1.2,1.1-2,2.2-1.9c6,0.4,10.6-1.1,13.6-4.5
				c7-7.8,4.4-23,4.4-23.2c-0.2-1.1,0.6-2.2,1.7-2.4c1.1-0.2,2.2,0.6,2.4,1.7c0.1,0.7,3,17.4-5.4,26.7
				C503.3,280.7,498.3,282.7,492,282.7z"/>
		</g>
		<g>
			<path fill="#282625" d="M824.5,130.8c-3,0-6.9-1-11.6-3.1c-25.7-11.1-54-22.3-54.3-22.4c-1.1-0.4-1.6-1.6-1.2-2.7
				c0.4-1.1,1.6-1.6,2.7-1.2c0.3,0.1,28.7,11.4,54.4,22.5c9.3,4,12.1,2.6,12.8,1.9c1.9-2,0.2-8.2-1.7-12.1
				c-1.6-1.1-8.4-5.3-20.1-8.2c-14.7-3.7-25-9.2-38.1-20.5c-6.8-5.9-23.4-5.1-38.1-4.5c-11.9,0.5-23.1,1-29.8-1.7
				c-7.1-2.8-14.6,0-22.5,3c-7.3,2.8-14.9,5.6-22.6,4.1c-14.5-2.9-23.5,0.5-23.6,0.6c-0.3,0.1-0.7,0.2-1.1,0.1
				c-0.2,0-23.9-3.2-32.2,4.5c-1.9,1.8-2.8,4.1-2.6,6.9c0.5,7.7,4.9,10.9,8.4,12.2c6.6,2.4,15.7,0.3,20.3-4.5c0.8-0.8,2.1-0.9,3-0.1
				c0.8,0.8,0.9,2.1,0.1,3c-5.7,6.1-16.6,8.6-24.8,5.6c-6.7-2.4-10.7-8.1-11.2-15.8c-0.3-4.1,1.1-7.5,4-10.2
				c9.1-8.4,31.3-6.1,35.1-5.6c2.3-0.8,11.5-3.4,25.4-0.6c6.6,1.3,13.3-1.2,20.3-3.9c8.3-3.2,16.9-6.4,25.5-3
				c5.9,2.4,16.7,1.9,28.1,1.4c16.2-0.7,32.9-1.5,41,5.5c12.5,10.8,22.4,16.1,36.3,19.6c14.4,3.6,21.7,9,22,9.2
				c0.3,0.2,0.5,0.4,0.6,0.7c0.6,1.2,6,12.3,1.2,17.3C829,130.1,827.1,130.8,824.5,130.8z"/>
		</g>
		<g>
			<path fill="#282625" d="M587.5,135.3c-1,0-1.8-0.2-2.6-0.5c-1.9-0.9-3.2-2.4-4-4.4c-2.4-6.6,2.4-17,3-18.1c0.5-1,1.7-1.5,2.8-1
				c1,0.5,1.5,1.7,1,2.8c-1.3,2.7-4.3,10.7-2.8,14.9c0.4,1,0.9,1.6,1.8,2c4,1.8,19.4-8.5,31.5-19.2c0.9-0.8,2.2-0.7,3,0.2
				c0.8,0.9,0.7,2.2-0.2,3C616.7,118.6,597.3,135.3,587.5,135.3z"/>
		</g>
		<g>
			<path fill="#282625" d="M680.6,408.3c-6.2,0-12.7-2.1-16.9-8.5c-7.5-11.6,6.2-33.5,17.2-51.1c3.1-5,5.9-9.4,7.7-12.8
				c7.1-13.7-4.5-28.2-4.6-28.4c-0.7-0.9-0.6-2.2,0.3-2.9c0.9-0.7,2.2-0.6,2.9,0.3c0.6,0.7,13.5,16.9,5.1,33
				c-1.9,3.6-4.6,8-7.8,13.1c-9.3,14.8-23.4,37.2-17.3,46.6c7.8,11.9,24.6,4.3,25.3,4c1-0.5,2.3,0,2.8,1c0.5,1,0,2.3-1,2.8
				C691,406.9,685.9,408.3,680.6,408.3z"/>
		</g>
		<g>
			<path fill="#282625" d="M742.6,409.8c-2.2,0-4.8-0.5-7.6-1.6c-1.1-0.4-1.6-1.7-1.1-2.7c0.4-1.1,1.7-1.6,2.7-1.1
				c9.5,3.9,13.1-1.9,13.1-2c0.2-0.4,0.5-0.6,0.9-0.8c3.6-1.7,5.8-4.1,6.6-7.3c3-11.2-10.3-30.2-20.1-44
				c-5.2-7.5-9.4-13.4-10.7-17.3c-4.5-13.7-1.3-29.9-1.2-30.6c0.2-1.1,1.3-1.9,2.5-1.6c1.1,0.2,1.9,1.3,1.6,2.5
				c0,0.2-3.1,15.9,1,28.4c1.1,3.3,5.3,9.3,10.1,16.2c10.8,15.4,24.1,34.5,20.7,47.5c-1.1,4.2-3.9,7.5-8.3,9.7
				C751.3,407.2,747.9,409.8,742.6,409.8z"/>
		</g>
		<g>
			<path fill="#282625" d="M714,412.7c-8,0-16.7-4.3-17.2-4.6c-1-0.5-1.4-1.8-0.9-2.8c0.5-1,1.8-1.4,2.8-0.9c4.5,2.3,17.1,7,22,1.9
				c0.8-0.8,2.1-0.8,3,0c0.8,0.8,0.8,2.1,0,3C721.2,411.8,717.6,412.7,714,412.7z"/>
		</g>
		<g>
			<path fill="#282625" d="M710.8,404.5c-5.8,0.5-12.9-5-18.6-9.5c-1.6-1.2-2.9-2.3-4-3c-1.3-0.9-2.6-1-3.9-0.5
				c-2.1,0.9-3.9,3.7-4.2,6.5c0,0.3-0.1,0.8,0.1,0.9c0.7,0.6,3,0.5,4.7,0.1c1.1-0.3,2.3,0.4,2.6,1.5c0.3,1.1-0.4,2.3-1.5,2.6
				c-0.9,0.3-5.8,1.4-8.5-1c-0.9-0.8-1.8-2.2-1.5-4.6c0.5-4.2,3.3-8.2,6.7-9.8c2.6-1.2,5.4-0.9,8,0.8c1.2,0.8,2.6,1.9,4.2,3.2
				c4.9,3.8,13,10.1,16.9,8.3c2.7-1.2,5.6-3.3,8.5-5.3c3.8-2.7,7.8-5.5,11.5-6.5c4.8-1.4,14.5,0.5,16.3,5.1c0.8,2,0.5,5.2-5.4,8.4
				c-1,0.5-2.3,0.2-2.8-0.9c-0.5-1-0.2-2.3,0.9-2.8c3-1.6,3.7-2.8,3.5-3.1c-0.7-1.7-7.7-3.6-11.3-2.6c-3,0.8-6.7,3.4-10.2,5.9
				c-3,2.1-6.1,4.3-9.2,5.7C712.5,404.2,711.6,404.5,710.8,404.5z"/>
		</g>
		<g>
			<path fill="#282625" d="M703.8,248.4c-8.8,0-18.1-1.6-27-6.1c-21.2-10.8-61.4-5.4-61.8-5.3c-1.2,0.2-2.2-0.6-2.4-1.8
				c-0.2-1.1,0.6-2.2,1.8-2.4c1.7-0.2,42-5.6,64.3,5.8c20.6,10.5,43.9,3.8,56.5,0.2l1.2-0.3c0.9-0.3,1.8-0.5,2.8-0.8
				c13-3.8,32.7-9.5,46.1-2c1,0.6,1.4,1.8,0.8,2.8c-0.6,1-1.8,1.4-2.9,0.8c-11.8-6.7-30.5-1.3-42.8,2.3c-1,0.3-1.9,0.6-2.8,0.8
				l-1.2,0.3C728.5,245,716.7,248.4,703.8,248.4z"/>
		</g>
		<g>
			<path fill="#282625" d="M703.7,221.9c-10.2,0.5-20.3-1.2-29.2-5.4c-10.5-4.9-29.8-4.5-42.6-4.3c-7.1,0.1-10.7,0.2-12.3-0.4
				c-1.1-0.4-1.6-1.6-1.2-2.7c0.4-1.1,1.6-1.6,2.7-1.2c1,0.4,6.2,0.3,10.8,0.2c13.1-0.2,33-0.6,44.4,4.7c16.6,7.7,37.7,6.6,55-2.9
				c19.5-10.8,51-0.9,52.3-0.5c1.1,0.4,1.7,1.5,1.4,2.6c-0.4,1.1-1.5,1.7-2.6,1.4c-0.3-0.1-31.1-9.7-49,0.2
				C724,218.5,713.8,221.4,703.7,221.9z"/>
		</g>
		<g>
			<path fill="#282625" d="M822,334.2c-1.9,0-3.3-0.1-3.7-0.1c-1.1-0.1-2-1.1-1.9-2.3c0.1-1.2,1.1-2,2.3-1.9
				c3.4,0.3,12.9,0.3,16.7-3.1c0.9-0.8,2.2-0.7,3,0.2c0.8,0.9,0.7,2.2-0.2,3C834,333.6,826.5,334.2,822,334.2z"/>
		</g>
		<g>
			<path fill="#282625" d="M597.1,334.3c-12.1,0-22.7-13.3-23.2-13.9c-0.7-0.9-0.6-2.2,0.3-2.9c0.9-0.7,2.2-0.6,2.9,0.3
				c0.1,0.1,10.9,13.7,21.6,12.2c3.2-4.1,20.3-24.9,42.3-25.8c12.2-0.5,23.5,5.2,33.7,16.9c0.8,0.9,0.7,2.2-0.2,3
				c-0.9,0.8-2.2,0.7-3-0.2c-9.3-10.7-19.6-15.9-30.4-15.5c-21.9,0.9-39.4,24.5-39.6,24.8c-0.3,0.4-0.8,0.7-1.3,0.8
				C599.3,334.2,598.2,334.3,597.1,334.3z"/>
		</g>
		<g>
			<path fill="#282625" d="M593.2,343c-5.8,0-11.6-1.6-12.6-1.9c-1.1-0.3-1.7-1.5-1.4-2.6c0.3-1.1,1.5-1.7,2.6-1.4
				c3.6,1.1,14,3.2,18.1,0.3c0.9-0.7,2.3-0.4,2.9,0.5c0.7,0.9,0.4,2.3-0.5,2.9C599.9,342.4,596.6,343,593.2,343z"/>
		</g>
		<g>
			<path fill="#282625" d="M742.3,493.2c-4.6,0-9.7-0.5-15.3-1.5c-9.9-1.8-20.2-1.2-31.2-0.5c-3.3,0.2-6.7,0.4-10.1,0.5
				c-16.2,0.7-19.9-12.6-19.9-12.8c-0.3-1.1,0.4-2.3,1.5-2.6c1.1-0.3,2.3,0.4,2.6,1.5c0.1,0.4,3,10.2,15.7,9.7
				c3.4-0.1,6.7-0.3,10-0.5c11.2-0.7,21.8-1.3,32.2,0.6c17.2,3.1,28.7,1.3,34.3-5.2c0.8-0.9,2.1-1,2.9-0.2c0.9,0.8,1,2.1,0.2,2.9
				C760.6,490.5,752.9,493.2,742.3,493.2z"/>
		</g>
		<g>
			<path fill="#282625" d="M675.2,475.2c-0.9,0-1.7-0.6-2-1.5c-0.4-1.1,0.3-2.3,1.4-2.6c2-0.7,50.2-15.9,75.5,0.2
				c1,0.6,1.3,1.9,0.6,2.9c-0.6,1-1.9,1.3-2.9,0.6c-23.7-15.1-71.5,0.1-71.9,0.2C675.7,475.2,675.4,475.2,675.2,475.2z"/>
		</g>
		<g>
			<path fill="#282625" d="M667.8,468.2c-0.2,0-0.4,0-0.6-0.1c-1.1-0.3-1.8-1.5-1.4-2.6c1.6-5.7,0.9-11.2-7.5-22.5
				c-7.9-10.5,0.4-21.3,5.9-25.5c0.9-0.7,2.2-0.5,2.9,0.4c0.7,0.9,0.5,2.2-0.4,2.9c-0.5,0.4-12.5,9.9-5.1,19.7
				c8.2,11,10.4,18.1,8.1,26.1C669.6,467.6,668.8,468.2,667.8,468.2z"/>
		</g>
		<g>
			<path fill="#282625" d="M678.6,463.4c-0.7,0-1.3-0.3-1.7-0.9c-0.7-1-0.4-2.3,0.5-2.9c2.7-1.8,4.2-5.4,4.1-9.3
				c-0.1-3.3-1.3-6.8-3.7-10.9c-0.2-0.4-0.4-0.7-0.6-1.1c-1-1.6-2-3.3-2.6-5.2c-1.2-3.7-0.8-8,1.2-11.4c2-3.4,5.5-5.9,9.3-6.7
				c1.1-0.2,2.2,0.5,2.5,1.6c0.2,1.1-0.5,2.2-1.6,2.5c-2.7,0.5-5.2,2.3-6.6,4.7c-1.4,2.4-1.7,5.4-0.8,8c0.5,1.5,1.3,2.9,2.2,4.4
				c0.2,0.4,0.5,0.8,0.7,1.1c2.7,4.7,4.1,8.9,4.2,12.9c0.1,5.3-2.1,10.2-6,12.8C679.4,463.2,679,463.4,678.6,463.4z"/>
		</g>
		<g>
			<path fill="#282625" d="M693.4,457.3c-0.8,0-1.5-0.4-1.9-1.2c-0.5-1-0.1-2.3,0.9-2.8c2.7-1.4,3.1-5.7,3.1-8.1
				c0-1.3-0.1-2.8-0.5-4.2c-0.3-0.9-0.7-1.9-1.2-2.8c-0.3-0.6-0.6-1.2-0.8-1.8c-2.5-5.9-2.1-12.8,0.9-18.4c0.2-0.3,0.4-0.8,0.5-1
				c-0.3-1.1,0.3-2.2,1.4-2.5c1.1-0.4,2.3,0.2,2.6,1.3c0.6,1.7-0.2,3.2-0.8,4.1c-2.4,4.5-2.7,10.2-0.8,14.9c0.2,0.5,0.5,1.1,0.7,1.6
				c0.5,1.1,1.1,2.2,1.4,3.5c0.5,1.8,0.6,3.7,0.6,5.3c0,6-1.8,10.1-5.4,11.9C694.1,457.2,693.8,457.3,693.4,457.3z"/>
		</g>
		<g>
			<path fill="#282625" d="M705.4,455c-1.1,0-2-0.8-2.1-1.9c-0.1-1.2,0.8-2.2,1.9-2.2l0.6,0c1-1.2,1.1-3.5,1-5.7
				c-0.1-2.8-0.2-5.7-1-8.4c-0.2-0.6-0.3-1.1-0.5-1.7c-0.7-2-1.4-4.2-1.1-6.6c0.1-0.9,0.4-1.7,0.6-2.4l2.8-8.3
				c0.4-1.1,1.6-1.7,2.7-1.3c1.1,0.4,1.7,1.6,1.3,2.7l-2.8,8.3c-0.2,0.6-0.4,1.1-0.5,1.7c-0.2,1.4,0.3,3,0.9,4.6
				c0.2,0.6,0.4,1.2,0.6,1.8c0.9,3.1,1,6.3,1.2,9.4c0.1,2.3,0.3,7-3,9.6l-0.5,0.4l-2,0.1C705.5,455,705.4,455,705.4,455z"/>
		</g>
		<g>
			<path fill="#282625" d="M739.2,456c-0.6,0-1.3-0.3-1.7-0.9c-2-2.8-2.2-6.8-0.5-11c0.5-1.2,1.1-2.4,1.6-3.5c0.8-1.7,1.6-3.2,2-4.9
				c0.5-2,0.5-4.1,0.5-6.2c0-1.7-0.1-3.4-0.5-5c-0.5-2.1-1.5-4.1-2.9-5.8c-0.8-0.9-0.7-2.2,0.2-3c0.9-0.8,2.2-0.7,3,0.2
				c1.9,2.2,3.2,4.8,3.9,7.6c0.4,1.9,0.5,3.9,0.6,5.8c0.1,2.4,0.1,4.9-0.6,7.4c-0.5,2.1-1.5,3.9-2.4,5.7c-0.5,1.1-1.1,2.1-1.5,3.1
				c-1.1,2.8-1.1,5.4,0,6.9c0.7,0.9,0.5,2.2-0.4,2.9C740.1,455.9,739.6,456,739.2,456z"/>
		</g>
		<g>
			<path fill="#282625" d="M751.6,457.9c-0.9,0-1.7-0.6-2-1.4c-1.1-3.3-0.7-7,0.9-10c0.5-0.9,1.1-1.7,1.7-2.5c0.5-0.7,1-1.3,1.3-2
				c1.1-1.9,1.4-4.3,0.9-6.4c-0.3-1.4-1-2.7-1.7-4.2c-0.6-1.2-1.2-2.5-1.7-3.9c-1.3-4-1-8.2-0.8-11.9c0.1-1.2,1.1-2,2.2-1.9
				c1.2,0.1,2,1.1,1.9,2.2c-0.2,3.5-0.5,7.1,0.6,10.2c0.4,1.1,0.9,2.2,1.5,3.3c0.8,1.6,1.6,3.2,2.1,5.1c0.8,3.1,0.3,6.6-1.3,9.4
				c-0.5,0.9-1.1,1.7-1.6,2.4c-0.5,0.7-1,1.4-1.4,2.1c-1.1,2-1.3,4.5-0.6,6.7c0.4,1.1-0.2,2.3-1.3,2.6
				C752,457.9,751.8,457.9,751.6,457.9z"/>
		</g>
		<g>
			<path fill="#282625" d="M768.3,487.4c-1,0-1.9-0.8-2.1-1.8c-0.8-6.3-1.9-14.9,2-21.8c1.3-2.3,3.1-4.2,4.8-6.1
				c1.5-1.6,2.9-3.2,4-4.9c4.4-7.1,2.6-16.5,0.4-25.5c-0.3-1.1,0.4-2.3,1.5-2.5c1.1-0.3,2.3,0.4,2.5,1.5c2.4,9.9,4.4,20.2-0.9,28.7
				c-1.3,2.1-2.9,3.8-4.5,5.5c-1.6,1.8-3.2,3.4-4.3,5.3c-3,5.3-2.5,11.8-1.5,19.2c0.1,1.1-0.7,2.2-1.8,2.3
				C768.5,487.4,768.4,487.4,768.3,487.4z"/>
		</g>
		<g>
			<path fill="#282625" d="M772.6,481.5c-0.3,0-0.6-0.1-0.9-0.2c-1.1-0.5-1.5-1.7-1-2.8c1.4-3.2,3.1-6.8,6.1-9.4
				c0.7-0.7,1.5-1.2,2.2-1.7c1.1-0.8,2.1-1.5,2.8-2.4c0.9-1.1,1.4-2.6,1.9-4.1l2.7-8c0.4-1.1,1.6-1.7,2.6-1.3
				c1.1,0.4,1.7,1.6,1.3,2.6l-2.7,8c-0.6,1.7-1.2,3.7-2.6,5.4c-1.1,1.3-2.4,2.3-3.6,3.2c-0.7,0.5-1.3,1-1.9,1.5c-2.3,2-3.7,5.1-5,8
				C774.1,481,773.4,481.5,772.6,481.5z"/>
		</g>
		<g>
			<path fill="#282625" d="M654.7,486.9c-0.1,0-0.3,0-0.4,0c-1.1-0.2-1.9-1.3-1.7-2.4c1.1-6-2.5-11.9-5.8-15.8l-0.4-0.5
				c-1-1.2-2.1-2.5-2.8-4.1c-1-2.3-1-4.7-1.1-6.8l-0.1-10.5c0-1.2,0.9-2.1,2.1-2.1c1.1,0,2.1,0.9,2.1,2.1l0.1,10.5
				c0,1.8,0.1,3.7,0.7,5.2c0.5,1.1,1.3,2,2.2,3.1l0.4,0.5c3.8,4.6,8.1,11.6,6.7,19.2C656.6,486.2,655.7,486.9,654.7,486.9z"/>
		</g>
		<g>
			<path fill="#282625" d="M639.9,543c-0.2,0-0.3,0-0.5-0.1c-1.1-0.3-1.8-1.4-1.5-2.5c2.1-8.6,1-18-3.1-25.9c-1-1.9-2.2-3.7-3.4-5.6
				c-1.7-2.6-3.4-5.3-4.7-8.3c-3.5-8.2-3.2-17.1-2.8-25.7c0.2-4.7,0.4-9.6-0.1-14.2c-0.1-1.1,0.7-2.2,1.9-2.3
				c1.1-0.1,2.2,0.7,2.3,1.9c0.5,4.9,0.3,9.9,0.1,14.7c-0.3,8.5-0.7,16.6,2.5,23.9c1.2,2.7,2.7,5.1,4.4,7.7c1.2,1.9,2.5,3.9,3.6,5.9
				c4.6,8.7,5.9,19.3,3.5,28.8C641.7,542.4,640.8,543,639.9,543z"/>
		</g>
		<g>
			<path fill="#282625" d="M631.8,532.7l-4.2-0.4l0.1-1.4c0-0.1,0-0.2,0-0.3c0.1-3.8-0.8-7.6-2.7-10.9c-0.7-1.2-1.6-2.4-2.5-3.6
				c-1.3-1.7-2.6-3.6-3.6-5.6c-2.6-5.5-2.2-11.8-1.9-16.9c0.3-4.2,0.5-8.5,0.8-12.7c0.1-1.2,1.1-2,2.2-2c1.2,0.1,2,1.1,2,2.2
				c-0.3,4.2-0.5,8.4-0.8,12.7c-0.3,4.8-0.6,10.3,1.5,14.8c0.8,1.7,2,3.3,3.2,4.9c0.9,1.3,1.9,2.6,2.7,4
				C631.3,522.1,632.4,527.5,631.8,532.7z"/>
		</g>
		<g>
			<path fill="#282625" d="M644.2,535.1c0,0-0.1,0-0.1,0c-1.2-0.1-2-1.1-2-2.2c0.4-6.7,0.9-14.4-2-20.8c-0.7-1.6-1.7-3.2-2.7-4.8
				c-0.6-1-1.3-2.1-1.9-3.2c-3.8-6.9-5.5-15.1-4.5-23c0.1-1.1,1.2-2,2.3-1.8c1.1,0.1,2,1.2,1.8,2.3c-0.8,7,0.6,14.3,4,20.5
				c0.6,1,1.2,2,1.8,3c1,1.7,2.1,3.4,3,5.3c3.3,7.3,2.8,15.9,2.4,22.8C646.2,534.3,645.3,535.1,644.2,535.1z"/>
		</g>
		<g>
			<path fill="#282625" d="M705.4,574.3c-0.1,0-0.3,0-0.4,0c-1.1-0.2-1.9-1.3-1.7-2.5c1.3-7-1.6-14.6-7.2-18.9
				c-3.5-2.7-7.8-4.1-12.4-5.6c-5.7-1.9-11.5-3.8-15.8-8.4c-4.4-4.7-6.6-11.8-6-19.6c0.5-6.8,2.8-13.1,5.1-19.2
				c0.4-1.1,1.6-1.6,2.7-1.2c1.1,0.4,1.6,1.6,1.2,2.7c-2.2,5.8-4.4,11.9-4.8,18.1c-0.5,6.6,1.3,12.6,4.9,16.4
				c3.6,3.8,8.7,5.5,14.1,7.3c4.7,1.6,9.5,3.2,13.6,6.2c6.9,5.2,10.4,14.5,8.8,23C707.2,573.6,706.4,574.3,705.4,574.3z"/>
		</g>
		<g>
			<path fill="#282625" d="M721.3,573.7c0,0-0.1,0-0.1,0c-1.2-0.1-2-1-2-2.2c0.5-9.6,6.2-18.8,14.6-23.5c1.4-0.8,2.9-1.4,4.3-2.1
				c2.1-0.9,4.1-1.8,5.8-3.1c2.4-1.8,4.4-4.3,6.5-7.1c2.7-3.7,5-7,6.1-10.8c1.3-4.5,0.7-9.4,0.2-14.1c-0.5-3.9-0.9-8-2.1-11.7
				c-0.4-1.1,0.2-2.3,1.3-2.6c1.1-0.4,2.3,0.2,2.6,1.3c1.4,4.1,1.8,8.4,2.3,12.5c0.6,4.9,1.2,10.5-0.3,15.8
				c-1.3,4.4-3.8,8.1-6.8,12.1c-2.3,3.1-4.5,5.9-7.4,8c-2.1,1.5-4.3,2.5-6.5,3.5c-1.4,0.6-2.7,1.2-4,1.9c-7.1,4-12,11.9-12.5,20
				C723.3,572.8,722.4,573.7,721.3,573.7z"/>
		</g>
		<g>
			<path fill="#282625" d="M715.7,618.8C715.7,618.8,715.7,618.8,715.7,618.8c-1.2,0-2.1-1-2.1-2.2c0.3-11.4,3.2-19.6,8.8-24.9
				c4.8-4.5,10.9-6.4,16.9-8.3c3.9-1.2,7.9-2.5,11.4-4.4c9.2-5.2,14.8-16.6,13.4-27c-0.2-1.1,0.6-2.2,1.8-2.4
				c1.1-0.2,2.2,0.6,2.4,1.8c1.7,12.3-4.6,25.2-15.4,31.3c-3.8,2.2-8.1,3.5-12.2,4.8c-5.8,1.8-11.3,3.5-15.3,7.3
				c-4.8,4.5-7.2,11.7-7.5,22C717.8,617.9,716.9,618.8,715.7,618.8z"/>
		</g>
		<g>
			<path fill="#282625" d="M702.7,585.7c-0.7,0-1.4-0.4-1.8-1.1c-2.1-3.7-4.4-7.9-8.1-10.1c-2.1-1.3-4.7-1.8-7.4-2.4
				c-0.5-0.1-1-0.2-1.4-0.3c-9.9-2.3-17.1-6.4-21.5-12.2c-2.2-2.9-3.7-6.4-4.4-9.9c-0.2-1.1,0.5-2.2,1.7-2.4
				c1.1-0.2,2.2,0.5,2.4,1.7c0.6,3,1.8,5.8,3.6,8.2c3.7,5,10.2,8.6,19.1,10.6c0.5,0.1,0.9,0.2,1.4,0.3c2.9,0.6,5.9,1.3,8.6,2.9
				c4.7,2.7,7.5,7.7,9.7,11.7c0.6,1,0.2,2.3-0.8,2.8C703.4,585.6,703,585.7,702.7,585.7z"/>
		</g>
		<g>
			<path fill="#282625" d="M703.7,613.3c-0.9,0-1.8-0.6-2-1.6c-1.2-5.1-4.9-9.5-9.7-11.7c-2.6-1.2-5.5-1.7-8.5-2.2
				c-3.1-0.6-6.4-1.2-9.4-2.5c-5.8-2.6-10.1-7.6-13.9-12.6c-0.7-0.9-0.5-2.2,0.4-2.9s2.2-0.5,2.9,0.4c4,5.3,7.5,9.2,12.2,11.3
				c2.6,1.2,5.5,1.7,8.5,2.2c3.2,0.6,6.4,1.2,9.5,2.5c5.9,2.6,10.5,8.2,12.1,14.5c0.3,1.1-0.4,2.3-1.5,2.5
				C704.1,613.3,703.9,613.3,703.7,613.3z"/>
		</g>
		<g>
			<path fill="#282625" d="M700.4,647.9c-0.8,0-1.5-0.4-1.9-1.2c-0.5-1-0.1-2.3,1-2.8c1-0.5,1.8-1.8,2-3.3c0.2-1.7-0.2-3.5-0.6-5.3
				c-0.9-3.7-2-7.5-4.5-10.1c-3.2-3.2-7.9-4.1-12.9-4.9c-2.9-0.5-5.8-1-8.6-2.1c-8.5-3.1-14.2-10.2-17.4-15.7
				c-0.6-1-0.3-2.3,0.7-2.9c1-0.6,2.3-0.3,2.9,0.7c2.9,4.9,8,11.2,15.3,13.9c2.5,0.9,5.1,1.4,7.9,1.9c5.4,1,11.1,2,15.1,6.1
				c3.2,3.3,4.6,7.7,5.6,12.1c0.5,2.1,1,4.4,0.6,6.8c-0.4,3-2,5.4-4.4,6.5C701,647.8,700.7,647.9,700.4,647.9z"/>
		</g>
		<g>
			<path fill="#282625" d="M723.9,630.1c-0.1,0-0.2,0-0.2,0c-1.1-0.1-2-1.2-1.8-2.3c0.5-4.1,3.3-8,7.7-10.4
				c3.2-1.8,6.7-2.7,10.1-3.5l1.3-0.3c9.3-2.4,15.8-5.2,21-9.1c6.5-4.9,10.6-11.6,11.1-18.4c0.1-1.2,1.1-2,2.3-1.9
				c1.2,0.1,2,1.1,1.9,2.3c-0.6,8-5.3,15.8-12.7,21.4c-5.7,4.3-12.6,7.3-22.5,9.8l-1.3,0.3c-3.3,0.8-6.3,1.6-9,3.1
				c-3.2,1.8-5.3,4.5-5.6,7.3C725.8,629.3,724.9,630.1,723.9,630.1z"/>
		</g>
		<g>
			<path fill="#282625" d="M803.9,663.3c-0.9,0-1.7-0.6-2-1.5c-1.5-5.2-3-9.8-6.4-12.4c-2-1.6-4.5-2.4-7.2-3.2
				c-0.9-0.3-1.8-0.6-2.7-0.9c-5.2-1.9-8.5-4.7-9.7-8.3c-0.5-1.4-0.6-2.9-0.6-4.8c0.2-5.3,2.2-10.5,5.6-14.7c0.7-0.9,2.1-1,2.9-0.3
				c0.9,0.7,1,2.1,0.3,2.9c-2.8,3.4-4.4,7.7-4.6,12.2c-0.1,1.4,0.1,2.5,0.4,3.3c0.8,2.4,3.2,4.3,7.2,5.7c0.8,0.3,1.7,0.6,2.5,0.8
				c2.9,0.9,5.9,1.9,8.5,3.9c4.8,3.7,6.6,10,7.9,14.6c0.3,1.1-0.3,2.3-1.4,2.6C804.3,663.3,804.1,663.3,803.9,663.3z"/>
		</g>
		<g>
			<path fill="#282625" d="M798.6,682.1c-1.1,0-2-0.8-2.1-1.9c-0.5-7-7.2-12.3-13.2-14.8c-3.3-1.4-6.9-2.4-10.4-3.4
				c-3.8-1.1-7.8-2.2-11.6-3.9c-1.4-0.6-3-1.4-4.4-2.7c-4.5-4-4.9-10.5-4.7-15.8c0-1.2,1-2.1,2.2-2c1.2,0,2.1,1,2,2.2
				c-0.1,4.6,0.2,9.7,3.3,12.5c1,0.9,2.2,1.5,3.3,2c3.5,1.6,7.1,2.6,11,3.7c3.6,1,7.3,2.1,10.9,3.6c9.2,4,15.1,10.8,15.7,18.4
				c0.1,1.2-0.8,2.2-1.9,2.2C798.7,682.1,798.7,682.1,798.6,682.1z"/>
		</g>
		<g>
			<path fill="#282625" d="M777,702.2c-1.1,0-2-0.8-2.1-1.9c-0.5-5.2-1.1-9.8-4.1-12.8c-1.6-1.7-3.9-2.8-6.3-3.9l-0.2-0.1
				c-6.3-2.9-11.5-5.7-16.1-9.3c-5.6-4.4-9.5-9.7-11.4-15.3c-2-5.9-1.8-12.3-1.5-18.3c0.1-1.2,1-2.1,2.2-2c1.2,0.1,2,1.1,2,2.2
				c-0.3,5.8-0.5,11.5,1.2,16.7c1.6,4.8,5.1,9.5,10.1,13.4c4.3,3.4,9.2,6,15.3,8.8l0.2,0.1c2.6,1.2,5.4,2.5,7.6,4.8
				c3.9,4,4.7,9.5,5.2,15.3c0.1,1.1-0.7,2.2-1.9,2.3C777.2,702.2,777.1,702.2,777,702.2z"/>
		</g>
		<g>
			<path fill="#282625" d="M762.4,753.5C762.3,753.5,762.3,753.5,762.4,753.5c-1.2,0-2.1-1-2.1-2.2c0.2-5.1,3.1-10,7.6-12.5
				c1.2-0.7,2.4-1.1,3.6-1.6c0.5-0.2,1.1-0.4,1.6-0.6c7.7-3.2,13.9-10.8,16.3-19.8c2.8-10.8,0.2-22.9-7-31.5
				c-0.7-0.9-0.6-2.2,0.3-2.9c0.9-0.7,2.2-0.6,2.9,0.3c8,9.6,11,23.1,7.8,35.2c-2.7,10.4-9.8,18.9-18.8,22.6
				c-0.6,0.2-1.1,0.4-1.7,0.7c-1.1,0.4-2.1,0.8-3.1,1.3c-3.2,1.8-5.3,5.3-5.4,8.9C764.4,752.6,763.5,753.5,762.4,753.5z"/>
		</g>
		<g>
			<path fill="#282625" d="M739.4,766.8C739.4,766.8,739.4,766.8,739.4,766.8c-1.2,0-2.1-0.9-2.1-2.1l0-8.4c0-3-0.1-5.5-1.3-7.3
				c-0.4-0.7-1.1-1.3-1.7-2c-1-1.1-2.2-2.3-2.8-3.8c-1.7-4,0.2-8.1,1.7-11.4l0.2-0.5c4.7-10.3,4.7-20.9,0.2-28.3
				c-1.4-2.3-3.2-4.3-5.1-6.4c-2.5-2.7-5-5.6-6.6-9.1c-2.6-5.4-2.6-11.5-2.3-16.8c0.1-1.2,1-2,2.2-2c1.2,0.1,2,1.1,2,2.2
				c-0.3,4.7-0.3,10.2,1.9,14.8c1.4,3,3.6,5.5,6,8.1c1.9,2.2,4,4.4,5.5,7c5.3,8.7,5.3,20.7,0.1,32.2l-0.3,0.5
				c-1.3,2.8-2.6,5.7-1.6,8c0.4,0.9,1.2,1.7,2,2.6c0.8,0.8,1.6,1.6,2.2,2.7c1.9,3,1.9,6.7,1.9,9.6l0,8.4
				C741.5,765.9,740.5,766.8,739.4,766.8z"/>
		</g>
		<g>
			<path fill="#282625" d="M754.5,736.3c-0.9,0-1.7-0.6-2-1.5c-1.4-4.6,0.6-8.7,2.5-12.7c0.7-1.6,1.4-3.1,1.9-4.5
				c1.2-3.8,1.3-8.2,0.2-14.2c-0.5-2.9-1.3-6.2-3.2-8.8c-2.1-3-5.5-4.9-9.1-7c-3.7-2.1-7.5-4.2-10.2-7.8c-0.8-1.1-1.5-2.3-2.2-3.4
				c-1-1.8-2-3.5-3.4-4.6c-0.9-0.7-1.1-2-0.4-2.9c0.7-0.9,2-1.1,2.9-0.4c2.1,1.6,3.4,3.7,4.6,5.8c0.6,1.1,1.2,2.1,1.9,3
				c2.2,2.9,5.5,4.7,8.9,6.7c3.8,2.2,7.8,4.4,10.5,8.2c2.3,3.2,3.3,7.1,3.9,10.5c0.8,4.2,1.6,10.5-0.3,16.3c-0.6,1.7-1.3,3.4-2.1,5
				c-1.6,3.5-3.2,6.7-2.2,9.8c0.3,1.1-0.3,2.3-1.4,2.6C754.9,736.3,754.7,736.3,754.5,736.3z"/>
		</g>
		<g>
			<path fill="#282625" d="M695.5,747.8c-0.6,0-1.2-0.3-1.6-0.8c-0.7-0.9-0.6-2.2,0.3-2.9c2.3-1.8,3.3-5.3,3-10.8
				c-0.2-4.6-0.9-9.3-1.9-13.8l-0.2-1c-0.4-1.8-0.9-3.7-1-5.7c-0.4-6,2.2-11.4,4.7-16.7c2.6-5.5,5.1-10.7,4-16
				c-0.2-1.1,0.5-2.2,1.6-2.5c1.1-0.2,2.2,0.5,2.5,1.6c1.4,6.7-1.5,12.8-4.3,18.7c-2.4,5-4.6,9.7-4.3,14.6c0.1,1.6,0.5,3.2,0.9,5
				l0.2,1c1.1,4.8,1.7,9.6,2,14.5c0.3,6.9-1.2,11.5-4.6,14.2C696.4,747.7,696,747.8,695.5,747.8z"/>
		</g>
		<g>
			<path fill="#282625" d="M664.8,761.1c-0.8,0-1.5-0.4-1.9-1.1c-0.5-1-0.1-2.3,0.9-2.8c3-1.6,6.5-3.3,8.4-6.2
				c2.3-3.4,2.4-8.4,0.5-14.9c-0.5-1.7-1.1-3.4-1.7-5.1c-0.5-1.5-1.1-3.1-1.6-4.7c-2.3-7.5-3.2-14.5-2.6-20.9
				c0.7-7.6,3.7-14.6,8.3-19.6c1.8-1.9,3.8-3.6,5.8-5.2c2.5-2,4.8-3.9,6.6-6.3c4.2-5.6,5-13.1,5.7-19.8c0.1-1.1,1.1-2,2.3-1.9
				c1.1,0.1,2,1.1,1.9,2.3c-0.7,6.8-1.6,15.4-6.5,21.9c-2.1,2.8-4.7,4.9-7.3,7c-1.9,1.6-3.7,3.1-5.3,4.8c-4,4.4-6.6,10.5-7.2,17.2
				c-0.6,5.8,0.2,12.3,2.4,19.3c0.5,1.5,1,3.1,1.5,4.6c0.6,1.7,1.2,3.5,1.7,5.2c2.4,7.9,2,13.9-1,18.4c-2.5,3.8-6.6,5.9-10,7.6
				C665.5,761.1,665.1,761.1,664.8,761.1z"/>
		</g>
		<g>
			<path fill="#282625" d="M655.3,751.1c-0.3,0-0.6-0.1-0.8-0.2c-1.1-0.5-1.5-1.7-1.1-2.8c1.5-3.4,1.4-7.7-0.2-13.2
				c-0.4-1.5-0.9-3-1.4-4.5c-1.1-3.3-2.2-6.6-2.7-10.2c-0.8-6.2,0.6-12.3,1.8-16.9c2.9-10.7,7.4-19.5,13.1-26.2c0.8-0.9,2.1-1,3-0.2
				c0.9,0.8,1,2.1,0.2,3c-5.4,6.2-9.5,14.5-12.3,24.5c-1.2,4.2-2.4,9.8-1.7,15.2c0.4,3.2,1.4,6.2,2.5,9.4c0.5,1.5,1,3.1,1.5,4.6
				c1.9,6.5,1.8,11.7,0,16C656.9,750.7,656.1,751.1,655.3,751.1z"/>
		</g>
		<g>
			<path fill="#282625" d="M598,650.7c-0.2,0-0.3,0-0.5-0.1c-1.1-0.3-1.8-1.4-1.6-2.5c0.9-4.1-2.2-7.8-5.6-11.8
				c-1.3-1.5-2.7-3.1-3.8-4.8c-6.3-9.2-5.4-21.3-4-30.8c0.2-1.2,0.4-2.3,0.5-3.5c1.4-8.6,2.8-17.5,0.3-25.5
				c-2.7-8.8-9.8-15.7-16.7-22.3c-1.7-1.6-3.5-3.3-5.1-5c-6.7-6.9-17.3-20.5-12.5-34.5c0.4-1.1,1.6-1.7,2.7-1.3
				c1.1,0.4,1.7,1.6,1.3,2.7c-4.1,11.8,5.5,24,11.5,30.2c1.6,1.7,3.4,3.3,5.1,5c7.3,7,14.7,14.2,17.8,24.1c2.8,9,1.3,18.4-0.1,27.4
				c-0.2,1.1-0.4,2.3-0.5,3.4c-1.3,8.8-2.1,19.8,3.3,27.8c1,1.5,2.2,2.9,3.5,4.4c3.7,4.4,7.9,9.3,6.5,15.4
				C599.8,650,598.9,650.7,598,650.7z"/>
		</g>
		<g>
			<path fill="#282625" d="M566.3,609.5C566.3,609.5,566.2,609.5,566.3,609.5c-1.2,0-2.1-0.9-2.1-2.1l0.2-26.9
				c0-3.6-0.1-6.8-1.7-9.1c-0.7-1.1-1.7-2-2.8-2.9l-0.4-0.3c-4.1-3.6-7.8-7.7-11.1-12c-1.8-2.4-3.1-4.4-4.1-6.3
				c-0.5-1-0.1-2.3,0.9-2.8c1-0.5,2.3-0.1,2.8,0.9c0.9,1.7,2,3.5,3.7,5.7c3.1,4.1,6.7,8,10.6,11.4l0.4,0.3c1.2,1.1,2.5,2.2,3.5,3.7
				c2.4,3.6,2.4,8.1,2.4,11.5l-0.2,26.9C568.3,608.6,567.4,609.5,566.3,609.5z"/>
		</g>
		<g>
			<path fill="#282625" d="M776.3,608.1c-0.6,0-1.3-0.3-1.7-0.8c-0.7-0.9-0.5-2.2,0.4-2.9c3.3-2.5,5.3-7.2,5.4-12.8
				c0.1-3.8-0.7-7.6-1.4-11.5c-0.3-1.4-0.5-2.8-0.8-4.2c-1.8-11.2-0.7-20.4,3.4-27.4c3.8-6.4,9.9-10.7,15.8-14.8
				c4.1-2.9,8.3-5.8,11.6-9.4c6.4-7.1,9.5-17.3,7.9-26.8c-0.2-1.1,0.6-2.2,1.7-2.4c1.1-0.2,2.2,0.6,2.4,1.7
				c1.8,10.7-1.6,22.3-8.9,30.3c-3.6,4-8,7-12.3,10c-5.8,4-11.2,7.9-14.6,13.5c-3.6,6.1-4.6,14.3-2.9,24.6c0.2,1.4,0.5,2.7,0.7,4.1
				c0.8,4,1.5,8.1,1.5,12.4c-0.1,6.9-2.7,12.8-7,16.1C777.2,608,776.8,608.1,776.3,608.1z"/>
		</g>
		<g>
			<path fill="#282625" d="M809.3,617.7c-0.6,0-1.2-0.3-1.6-0.8c-0.7-0.9-0.6-2.2,0.3-2.9c4.1-3.4,8.8-7.2,10.6-12.3
				c1-2.9,1.1-6.2,1.1-9c-0.1-5.7-0.8-10.7-2.1-15.1c-0.5-1.7-1.1-3.4-1.6-5c-1.7-4.8-3.4-9.8-2.9-15.2c0.6-6.6,4.6-12.4,7.9-17
				l4.2-6c0.7-0.9,2-1.2,2.9-0.5c0.9,0.7,1.2,2,0.5,2.9l-4.2,6c-3.1,4.4-6.6,9.4-7.2,15c-0.4,4.4,1.1,8.8,2.7,13.4
				c0.6,1.7,1.2,3.5,1.7,5.2c1.4,4.8,2.1,10.1,2.2,16.2c0.1,3.2,0,7-1.3,10.5c-2.2,6.2-7.6,10.6-11.9,14.1
				C810.2,617.5,809.8,617.7,809.3,617.7z"/>
		</g>
		<g>
			<path fill="#282625" d="M817.5,644.1c-0.4,0-0.8-0.1-1.1-0.3c-1-0.6-1.3-1.9-0.7-2.9c0.5-0.8,0.4-2.1,0.2-3.6
				c-0.1-1-0.2-1.9-0.2-3c0.2-3.8,2.7-7.5,7-10.4c1.3-0.8,2.6-1.6,3.9-2.3c1.9-1,3.7-2,5.3-3.3c7.6-6.2,7.6-18.3,6.9-26.8
				c-0.1-1.6-0.3-3.3-0.4-4.9c-0.6-7.2-1.3-14.5-0.5-21.9c1.2-10.6,5.6-19.3,12.3-24.5c0.9-0.7,2.2-0.5,2.9,0.4
				c0.7,0.9,0.5,2.2-0.4,2.9c-7.9,6-10.1,16.1-10.7,21.6c-0.8,6.9-0.2,14.1,0.5,21c0.1,1.7,0.3,3.3,0.4,5c0.7,9.4,0.7,22.9-8.4,30.3
				c-1.9,1.5-3.9,2.7-5.9,3.7c-1.3,0.7-2.5,1.3-3.6,2.1c-1.5,1-5,3.6-5.1,7c0,0.7,0.1,1.5,0.2,2.3c0.2,2,0.5,4.2-0.8,6.3
				C818.9,643.8,818.2,644.1,817.5,644.1z"/>
		</g>
		<g>
			<path fill="#282625" d="M550.3,611c-0.9,0-1.7-0.6-2-1.5l-5.6-18.1c-0.9-2.8-1.8-5.8-2.2-8.9c-0.5-4-0.2-7.9,0.1-11.7
				c0.1-1.2,1.1-2,2.2-1.9c1.2,0.1,2,1.1,1.9,2.2c-0.3,3.6-0.6,7.3-0.1,10.8c0.4,2.7,1.2,5.5,2.1,8.2l5.6,18.1
				c0.3,1.1-0.3,2.3-1.4,2.6C550.7,610.9,550.5,611,550.3,611z"/>
		</g>
		<g>
			<path fill="#282625" d="M576.6,533.4c-0.7,0-1.4-0.4-1.8-1.1c-8-14.1-8.4-31.9-1.1-46.4c0.7-1.4,1.5-2.7,2.2-4
				c1.4-2.5,2.7-4.8,3.6-7.4c2.2-6.2,1.6-13.4,1.1-19.8c-0.1-1.2,0.8-2.2,1.9-2.3c1.1-0.1,2.2,0.8,2.3,1.9
				c0.6,6.8,1.2,14.4-1.3,21.5c-1,2.9-2.5,5.5-3.9,8c-0.7,1.3-1.5,2.6-2.1,3.9c-6.6,13-6.2,29.7,1,42.4c0.6,1,0.2,2.3-0.8,2.8
				C577.3,533.3,576.9,533.4,576.6,533.4z"/>
		</g>
		<g>
			<path fill="#282625" d="M507.5,513.8c-1,0-1.9-0.7-2.1-1.8c-1.7-10.9,0.4-22.1,6-31.5c1.1-1.9,2.3-3.6,3.5-5.4l3.4-5l1.9-10.5
				c0.2-1.1,1.3-1.9,2.4-1.7c1.1,0.2,1.9,1.3,1.7,2.4l-2.1,11.3l-3.9,5.8c-1.1,1.7-2.3,3.4-3.3,5.1c-5,8.5-7,19-5.4,28.8
				c0.2,1.1-0.6,2.2-1.7,2.4C507.7,513.8,507.6,513.8,507.5,513.8z"/>
		</g>
		<g>
			<path fill="#282625" d="M525.1,519.2c-1,0-2-0.8-2.1-1.8c-0.5-4.1,0.5-8.3,2.6-11.8l8.5-13c3.1-4.7,6.3-9.6,8.6-14.8
				c1.8-4.2,2.3-7.3,1.5-9.8c-0.4-1.1,0.2-2.3,1.3-2.6c1.1-0.4,2.3,0.2,2.6,1.3c1.6,4.7-0.2,9.6-1.6,12.8
				c-2.4,5.5-5.7,10.5-8.9,15.4l-8.5,12.9c-1.6,2.7-2.4,5.9-2,9c0.1,1.1-0.7,2.2-1.8,2.3C525.3,519.2,525.2,519.2,525.1,519.2z"/>
		</g>
		<g>
			<path fill="#282625" d="M842,501.2c-0.1,0-0.2,0-0.3,0c-1.1-0.2-1.9-1.2-1.8-2.4c1.2-8.6-3.8-17-9.4-24.8l-0.1-0.1
				c-1.1-1.5-2.2-3.1-3-5c-2.1-5.2-0.6-10.7,1.2-16.3c0.4-1.1,1.5-1.7,2.6-1.3c1.1,0.4,1.7,1.5,1.3,2.6c-1.6,4.8-2.9,9.5-1.3,13.4
				c0.6,1.4,1.5,2.7,2.5,4.1l0.1,0.1c6.1,8.5,11.5,17.8,10.1,27.9C843.9,500.5,843,501.2,842,501.2z"/>
		</g>
		<g>
			<path fill="#282625" d="M865.4,468c-1.1,0-2-0.8-2.1-1.9c-0.3-3-0.6-6.5,0.3-9.8c1-4.2,3.6-7.5,6.1-10.8c1.6-2,3-3.9,4.1-6
				c2.6-4.8,2.9-10.8,1-15.9c-0.4-1.1,0.2-2.3,1.2-2.7c1.1-0.4,2.3,0.2,2.7,1.2c2.3,6.2,1.8,13.4-1.3,19.3c-1.3,2.4-2.9,4.5-4.5,6.6
				c-2.3,3-4.5,5.9-5.4,9.2c-0.7,2.7-0.4,5.6-0.2,8.4c0.1,1.2-0.8,2.2-1.9,2.3C865.6,468,865.5,468,865.4,468z"/>
		</g>
		<g>
			<path fill="#282625" d="M887.6,497.2c-0.7,0-1.4-0.3-1.8-0.9c-6.8-10.4-5.2-23.8-3-34.2c0.2-1.1,1.3-1.9,2.5-1.6
				c1.1,0.2,1.9,1.3,1.6,2.5c-2,9.7-3.5,22,2.5,31.1c0.6,1,0.4,2.3-0.6,2.9C888.4,497.1,888,497.2,887.6,497.2z"/>
		</g>
		<g>
			<path fill="#282625" d="M883.5,513.9c-0.9,0-1.7-0.6-2-1.5c-2.2-7.6-8.3-13.6-13.7-18.8l-11.9-11.6c-0.8-0.8-0.8-2.1,0-3
				c0.8-0.8,2.1-0.8,3,0l11.9,11.6c5.5,5.4,12.4,12,14.8,20.7c0.3,1.1-0.3,2.3-1.4,2.6C883.9,513.9,883.7,513.9,883.5,513.9z"/>
		</g>
		<g>
			<g>
				<rect x="412.8" y="883.8" fill="#302E2D" width="574.4" height="56"/>
			</g>
			<g>
				<rect x="699.6" y="883.8" fill="#252322" width="287.7" height="56"/>
			</g>
			<g>
				<path fill="#282625" d="M989.3,941.9H410.7v-60.2h578.6V941.9z M414.9,937.7h570.3v-51.8H414.9V937.7z"/>
			</g>
		</g>
		<g>
			<g>
				<rect x="542.1" y="835.4" fill="#504B3F" width="315.9" height="48.3"/>
			</g>
			<g>
				<rect x="699.6" y="835.4" fill="#2C241B" width="158.4" height="48.3"/>
			</g>
			<g>
				<path fill="#282625" d="M860,885.8H540v-52.5h320V885.8z M544.2,881.7h311.7v-44.1H544.2V881.7z"/>
			</g>
		</g>
	</g>
</g>
</svg>
