<svg xmlns="http://www.w3.org/2000/svg" width="122" height="32" viewBox="0 0 122 32">
  <g id="stanford" transform="translate(0 -0.005)">
    <path id="Path_35" data-name="Path 35" d="M6.051,21.5a1.339,1.339,0,0,0-.212.149H.009v6.4l3.684,3.961h12.4l3.612-3.849V16.2l-3.743-3.859H11.286a2.977,2.977,0,0,1,.056-.689c.5-.263,1.011.4,1.011.4a1.1,1.1,0,0,1,.541.163c.355-.124,1.419.169,1.468.086a1.678,1.678,0,0,0-.431-1.313h5.778V4.5L15.592.005H4.293L0,4.554v11.7l3.729,3.978H7.12c-.078.212-.158.388-.158.388ZM12.31,9.912a.765.765,0,0,0-.284-.061L11.8,9.592c0-.536-.547-.39-.547-.39L11.3,8.91c.15,0,.566.063,1.011.129v.872h0Zm-.421,12.411.753.032v1.939H10.851v-.328l.02-1.76c.031-.425.327-.172.327-.172A1.13,1.13,0,0,0,11.889,22.323ZM12.31,8.012c-.021-.008-.043-.02-.065-.03h.065ZM3.93,19.715.492,16.048V4.789l4-4.243H15.379L19.26,4.792v5.676H13.326c-.043-.073-.071-.131-.071-.131a.582.582,0,0,0-.455-.3V9.11a2.818,2.818,0,0,0,.922.06c.22-.236-.347-.615-.922-.917V7.467H11.194a1.109,1.109,0,0,1-.461-.534c-.137-.925.821-.548.821-.548.507.041.611-.266.611-.266-.2-.6-.911-.8-1.025-.85-.135-.06-.157-.115-.1-.225.036-.076.421.11.546-.022.285-.306-.708-.983-.708-.983C11.52,4,10.807,3.3,10.807,3.3c-.43-.363-.28-.682-.28-.682.454.049.453-.459.382-.478-.669-.163-.555-.442-.555-.442a1.423,1.423,0,0,0-.111-.5c.091-.437-.094-.35-.094-.35-.273,0-.115.261-.115.261a1.772,1.772,0,0,1-.383.744c-.617-.013-.3.606-.3.606l.384-.037-.09.4c-.89.415-.647,1.1-.139,1.161a.283.283,0,0,1-.027.233c-.528.024-.423.24-.869.472-.346.183-.338.371-.311.5.051.266.385.013.385.013l-.329.476c-1.1.522-.13.862-.13.862.865-.552,1.2-.341,1.2-.341a1.216,1.216,0,0,1-.45,1.259h-1.7v.815a2.237,2.237,0,0,0-.727.92c-.365.39-.183.584-.183.584.181.1.565-.06.908-.241v1.109l-.047.024c-.228.486-1.1.877-1.1.877-1.049.484-.547,1.12-.547,1.12a10.5,10.5,0,0,0,1.69-.312v.522H8.815a4.336,4.336,0,0,1-.532.714,1.172,1.172,0,0,1-.684.682c-1.46.388-1.37.923-1.37.923l1.1-.1a.354.354,0,0,1,.549,0l.365.1c.184.292-.087,1.157-.087,1.157H7.421c-.046.293-.547.291-.547.291-.228-.095-.5.2-.5.2-.091.194-.5.39-.5.39-.365.095-.091.291-.091.291.32-.243.32.291.32.291-.091.244-.833.233-.822.439.023.363,2.51-.732,2.51-.732.319-.288.547-.142.547-.142.228.388-.456.874-.456.874a2.086,2.086,0,0,1-.719.528c-1.053.182-1.172.832-1.182.929C4.783,19.715,3.93,19.715,3.93,19.715ZM7.924,9.154a.515.515,0,0,1,.867,0c.867.341.275.68.275.68a9.009,9.009,0,0,0-1.282.567V9.247C7.871,9.192,7.924,9.154,7.924,9.154Zm-.14-1.145V7.982h.073C7.832,7.991,7.808,8,7.784,8.009Zm.225,4.175c.822-.339.867.149.867.149l.007.009h-1.1v-.1C7.924,12.207,8.009,12.184,8.009,12.184Zm1.534,10.1a4.84,4.84,0,0,1,.177,1.218v.182L9.7,24.3H8.059V22.7a2.525,2.525,0,0,0,.605-.809C9.129,21.686,9.394,21.962,9.543,22.289ZM6.034,19.715l1.118-.245c.09.013.112.109.1.245ZM7.146,23.1a.437.437,0,0,1,.365-.243c.016,0,.031,0,.046,0v1.974h2.17l-.039.921c-.011.414-.036,1.3-.068,1.547-.092.747-.252.852-.351.921-.139.094-.344.133-.645.269-.739.332-.676,1.164-1.032,1.405a1.157,1.157,0,0,1-.7.293,1.056,1.056,0,0,0-.6.552h7.922c-.031-.261.023-.5-.905-.826-.9-.32-.448-.493-1.614-1.126-.42-.226-.641-1.031-.756-1.633a1.759,1.759,0,0,1-.036-.668l-.045-1.387v-.269h2.276c0-.387,0-1.411,0-2.456a4.7,4.7,0,0,1,1.448.865c.958.585.776-.05.776-.05-.274-2.09-1.415-2.285-1.415-2.285-.684-.2-.228-.634-.228-.634.822-.68-.149-.867-.149-.867a2.189,2.189,0,0,1-1.315-.366c-1.141-.926-.724-1.52-.724-1.52.091-.633,1.447.306,1.447.306a.552.552,0,0,0,.729.046c.045-.194.471-.548.471-.548.776-.633-1.1-.777-1.1-.777-.89-.594-1.437-.795-1.7-1.539a1.251,1.251,0,0,1-.078-.348s1.4.139,1.48.158.584.078.571-.11a1.428,1.428,0,0,0-.829-.821,2.791,2.791,0,0,1-1.1-1.013h4.329l3.516,3.6v11.4l-3.435,3.667H3.948L.5,27.826V22.189H5.365a8.174,8.174,0,0,0-.9,1.975c-.046.584.719.1.719.1l.1-.2A1.359,1.359,0,0,1,6.3,23.531C6.659,23.624,7.146,23.1,7.146,23.1Z" fill="#31343c"/>
    <path id="Path_36" data-name="Path 36" d="M10.565,1.559a.926.926,0,0,0,.408.161.356.356,0,0,1,.264.358c0,.026,0,.054-.005.081a.659.659,0,0,1-.4.515c.015.011.12.092.12.092.4.308.719.889.387,1a1.246,1.246,0,0,1,.6.748.412.412,0,0,1-.181.385,1.335,1.335,0,0,1,.676.746l.033.1-.035.1a.831.831,0,0,1-.91.443L11.5,6.279l-.034-.009c-.174-.055-.352-.077-.424-.014a.129.129,0,0,0-.041.1c0,.023.026.058.028.083a.59.59,0,0,0,.067.1H13.3V7.666c.4.232.7.482.753.727a.528.528,0,0,1,.012.091.453.453,0,0,1-.135.322c-.1.1-.205.132-.63.094v.4c.018.015.033.029.051.047h5.414V4.735L15.176,1.044H10.524c0,.013-.005.025-.007.035C10.567,1.153,10.638,1.55,10.565,1.559Z" fill="#31343c"/>
    <path id="Path_37" data-name="Path 37" d="M7.651,16.924l.027-.03.032-.024a1.4,1.4,0,0,0,.211-.175L7.9,16.7c-2.342.962-2.638.776-2.749.707a.343.343,0,0,1-.167-.275c0-.009,0-.017,0-.025,0-.319.352-.412.588-.473a.46.46,0,0,1-.183-.34.427.427,0,0,1,0-.069c.02-.115.1-.267.371-.346a1.118,1.118,0,0,0,.338-.2l.041-.06.029-.03c.041-.042.394-.415.741-.272a.416.416,0,0,0,.224-.06c.009-.044.037-.217.037-.217h.759a2.231,2.231,0,0,0,.079-.52A.189.189,0,0,0,8,14.5c-.1-.026-.2-.049-.2-.049l-.09-.031-.059-.06c-.02-.02-.046-.048-.135.028l-.072.062-1.456.122-.048-.263c-.032-.181-.015-.8,1.566-1.2A.838.838,0,0,0,8,12.662l.016-.056H6.786V12a5.952,5.952,0,0,1-1.243.175l-.107-.019-.07-.083a.854.854,0,0,1-.19-.52.8.8,0,0,1,.022-.188,1.268,1.268,0,0,1,.827-.8,3.162,3.162,0,0,0,.761-.462v-.64a.818.818,0,0,1-.546-.019L6.2,9.416l-.035-.033a.485.485,0,0,1-.133-.339.853.853,0,0,1,.271-.57,2.436,2.436,0,0,1,.484-.679V6.537H9.033A.722.722,0,0,0,9.171,6.1a.09.09,0,0,0,0-.018,1.931,1.931,0,0,0-.791.311l-.106.065-.12-.031c-.141-.036-.607-.189-.638-.569a.272.272,0,0,1,0-.032c0-.307.288-.556.56-.692,0,0,0,0,0,0a.773.773,0,0,1-.1-.3c.012-.37.46-.652.858-.956.018-.017.036-.037.054-.055a.382.382,0,0,1-.133-.138A.363.363,0,0,1,8.7,3.51.923.923,0,0,1,9.19,2.6l-.081-.114a1.369,1.369,0,0,1-.145-.523.481.481,0,0,1,.054-.228.41.41,0,0,1,.443-.272h.083c.009,0,.119-.237.2-.39,0-.008,0-.016-.005-.022H4.69L.992,4.737V14.873l3.146,3.149H5.743a1.675,1.675,0,0,1,1.319-.754A1.3,1.3,0,0,0,7.651,16.924Z" fill="#31343c"/>
    <path id="Path_38" data-name="Path 38" d="M5.545,22.714l-.137.243L5.339,23c-.181.109-.636.339-.944.147a.5.5,0,0,1-.224-.437c0-.025,0-.05,0-.077l0-.03.009-.031A8.333,8.333,0,0,1,4.7,21.333H1v4.581l3.152,3.2H5.822l.2-.418a1.3,1.3,0,0,1,.8-.673l.227-.043c.106-.017.106-.017.384-.194a.846.846,0,0,0,.246-.376,1.486,1.486,0,0,1,.829-.965,2.224,2.224,0,0,1,.359-.139,1.347,1.347,0,0,0,.243-.092c.039-.025.142-.089.217-.652.019-.147.047-.494.055-.917,0,0,.009-.505.009-.511s0-.027,0-.029l-.028.037.01-.327H7.062V22.112a1.14,1.14,0,0,1-.757.247A1.034,1.034,0,0,0,5.545,22.714Z" transform="translate(0 2.005)" fill="#31343c"/>
    <path id="Path_39" data-name="Path 39" d="M14.5,28.733l.045.382h1.08l3.143-3.15V15.687l-3.23-3.078h-3.17a1.932,1.932,0,0,0,.272.152,1.573,1.573,0,0,1,1,1.017V13.8a.372.372,0,0,1-.228.345,1.313,1.313,0,0,1-.776.032c-.2-.022-.551-.056-.927-.09a2.28,2.28,0,0,0,1.031.888l.431.259c.615.052,1.341.2,1.465.619a.481.481,0,0,1,.019.127.628.628,0,0,1-.3.5,1.83,1.83,0,0,0-.37.368c-.007.021-.03.092-.03.092L13.88,17a.873.873,0,0,1-1.072-.035,2.736,2.736,0,0,0-1-.444c0,.018-.01.039-.01.039l-.028.042a.228.228,0,0,0-.025.113c0,.178.145.492.676.9a1.973,1.973,0,0,0,1.1.293l.046-.008.047.009c.1.018.608.13.706.526.063.26-.076.53-.41.795a.26.26,0,0,0-.033.042.863.863,0,0,0,.134.049c.191.04,1.35.371,1.634,2.382a.5.5,0,0,1-.149.521c-.283.227-.717.029-1.063-.17l-.019-.01-.018-.016a6.376,6.376,0,0,0-.767-.518v2.307h-2.47l.036,1.029v.016a1.314,1.314,0,0,0,.03.547,2.145,2.145,0,0,0,.6,1.329,2.88,2.88,0,0,1,1,.673.984.984,0,0,0,.577.363C14.275,28.062,14.457,28.326,14.5,28.733Z" transform="translate(0 2.005)" fill="#31343c"/>
    <path id="Path_40" data-name="Path 40" d="M11.761,16.611l.008-.01v0Z" transform="translate(0 1.11)" fill="#31343c"/>
    <path id="Path_41" data-name="Path 41" d="M52.526,18.442a3.449,3.449,0,0,0-2.48,3.462c0,.812.268,3.46,3.756,3.46a4.351,4.351,0,0,0,3.221-1.329,1.871,1.871,0,0,0,1.97,1.3A3.108,3.108,0,0,0,61.534,23.9l.141-.182-.424-.483-.208.178a.605.605,0,0,1-.421.128c-.755,0-.9-.7-.9-1.614,0-.361.014-.955.03-1.638.023-.993.05-2.228.05-3.335a6.467,6.467,0,0,0-.582-3.337c-.725-1.1-1.893-1.61-3.687-1.61a4.3,4.3,0,0,0-4.34,2.7l-.064.2.645.386.139-.263a2.81,2.81,0,0,1,2.459-1.34,2.317,2.317,0,0,1,2.361,1.48,3.721,3.721,0,0,1,.152,1.426v.409C55.309,17.5,54.819,17.6,52.526,18.442Zm4.361,4.514a3.476,3.476,0,0,1-2.029.595,1.712,1.712,0,0,1-1.921-1.864,2.163,2.163,0,0,1,1.124-2.023A15.057,15.057,0,0,1,56.888,18.6v4.36Z" transform="translate(-1.674 1.447)" fill="#31343c"/>
    <path id="Path_42" data-name="Path 42" d="M28.252,24.721a13.054,13.054,0,0,0,4.246.607c1.868,0,6.214-.5,6.214-5.166,0-2.753-1.563-3.8-3.224-4.906l-1.949-1.291c-1.7-1.122-2.475-1.637-2.475-3.151,0-1.1.333-2.573,3.189-2.573a4.412,4.412,0,0,1,2.883.765,2.306,2.306,0,0,1,.623,1.556l.016.253h.653l-.02-.4c-.022-.54-.012-1.065-.012-1.667,0-.761.018-1.464.018-1.47l.009-.23L38.19,7A26.424,26.424,0,0,0,34.2,6.7c-5.393,0-5.811,3.623-5.811,4.73,0,2.267,1.089,3.4,3.227,4.818l1.539,1.028.233.16c1.458.982,2.514,1.694,2.514,3.4,0,2-1.142,2.922-3.6,2.922a4.3,4.3,0,0,1-2.977-.989,2.576,2.576,0,0,1-.583-1.553l-.013-.27-.76,0,.037.644c.027.4.054.885.054,2.133v.934Z" transform="translate(-0.928 1.181)" fill="#31343c"/>
    <path id="Path_43" data-name="Path 43" d="M48.788,13.978V12.385h-4.38V9.49h-.562l-.289.492a9.3,9.3,0,0,1-2.108,2.6,5.283,5.283,0,0,1-1.441.82l-.167.069v.5h1.7l-.011.9c-.022,1.912-.04,3.561-.04,5.617a10.911,10.911,0,0,0,.2,2.621c.486,1.59,1.591,2.3,3.581,2.3a4.225,4.225,0,0,0,3.376-1.345l.111-.124-.225-.525-.266.136A3.709,3.709,0,0,1,46.7,23.9c-1.912,0-2.287-1.149-2.287-3.171V13.979h4.38v0Z" transform="translate(-1.302 1.351)" fill="#31343c"/>
    <path id="Path_44" data-name="Path 44" d="M72.651,21.922a3.854,3.854,0,0,1-.471,2.262,1.885,1.885,0,0,1-1.067.44l-.232.029v.6l.3-.028a27.784,27.784,0,0,1,2.921-.11c.833,0,1.629.044,2.554.092l.638.033v-.6l-.254-.018a1.806,1.806,0,0,1-1-.361c-.4-.372-.482-.969-.482-3.093V17.408a13.224,13.224,0,0,0-.168-2.3c-.431-1.967-1.944-3.049-4.266-3.049A6.309,6.309,0,0,0,67.4,13.292V12.273l-.253-.149L67,12.19a4.15,4.15,0,0,1-1.354.457,13.486,13.486,0,0,1-2.325.244,1.709,1.709,0,0,1-.2-.006l-.291-.022V13.6l.242.027c.032,0,.069.007.106.008a1.512,1.512,0,0,1,1.155.441c.231.343.255,1.023.255,2.6v3.676c0,2.193-.023,3.289-.422,3.734a1.746,1.746,0,0,1-1.14.531l-.247.018v.613l.288-.029a29.347,29.347,0,0,1,2.956-.107c.807,0,1.581.042,2.472.086l.686.037v-.6l-.253-.018a1.812,1.812,0,0,1-.995-.363c-.4-.369-.483-.968-.483-3.091V14.408a4.963,4.963,0,0,1,2.409-.541A2.425,2.425,0,0,1,72.593,16.3a27.834,27.834,0,0,1,.1,2.942c0,.739,0,1.75-.022,2.231C72.661,21.634,72.653,21.781,72.651,21.922Z" transform="translate(-2.154 1.438)" fill="#31343c"/>
    <path id="Path_45" data-name="Path 45" d="M84.148,7.06a1.8,1.8,0,0,1,1.3-.509,2.224,2.224,0,0,1,2.168,1.668l.068.177.308,0,1.275-1.949-.038-.3-.1-.088a4.906,4.906,0,0,0-3.14-1.078c-2.918,0-4.654,1.48-5.164,4.4a27.385,27.385,0,0,0-.191,3.748A6.172,6.172,0,0,1,79.122,14l-.167.08v.791h1.676v7.007c0,2.41-.018,3.6-.417,4.09a1.631,1.631,0,0,1-1.143.58l-.25.025v.686l.3-.032a30.613,30.613,0,0,1,3.189-.118c.762,0,1.814.037,3.231.118l.285.019v-.755h-.272c-.322,0-1.418-.043-1.774-.639-.227-.365-.282-1.272-.282-3.139V14.871h2.867v-1.75H83.5V10.388C83.5,8.582,83.59,7.668,84.148,7.06Z" transform="translate(-2.609)" fill="#31343c"/>
    <path id="Path_46" data-name="Path 46" d="M93.616,25.465c4.83,0,6.543-3.711,6.543-6.894,0-4.093-2.346-6.54-6.272-6.54-4.831,0-6.541,3.713-6.541,6.9C87.346,23.021,89.692,25.465,93.616,25.465ZM91.957,14.1a2.7,2.7,0,0,1,1.82-.583c3.166,0,3.325,4.324,3.325,5.191,0,2.244-.521,3.823-1.553,4.687a2.732,2.732,0,0,1-1.823.584c-3.17,0-3.328-4.326-3.328-5.19C90.4,16.546,90.923,14.966,91.957,14.1Z" transform="translate(-2.952 1.456)" fill="#31343c"/>
    <path id="Path_47" data-name="Path 47" d="M107.482,14.22a2.3,2.3,0,0,1,2.072,1.034l.081.124h.521L111.24,13.4v-.405l-.088-.083A3.133,3.133,0,0,0,109,12.192a4.266,4.266,0,0,0-2.974,1.2V12.273l-.227-.12-.149.067a6.2,6.2,0,0,1-1.377.367,13.353,13.353,0,0,1-2.326.244c-.081,0-.163,0-.21-.007l-.276-.007V13.6l.251.027c.026,0,.063.007.1.008a1.51,1.51,0,0,1,1.155.441c.23.343.248,1.023.248,2.6v3.676c0,2.193-.016,3.25-.415,3.695a1.71,1.71,0,0,1-1.142.53l-.253.02v.652l.3-.029c1.149-.107,2.231-.107,3.189-.107.757,0,1.814.034,3.229.107l.285.017v-.713h-.268c-.326,0-1.413-.042-1.777-.58a6.775,6.775,0,0,1-.277-2.831V14.632A2.391,2.391,0,0,1,107.482,14.22Z" transform="translate(-3.819 1.441)" fill="#31343c"/>
    <path id="Path_48" data-name="Path 48" d="M125.469,25.98a1.433,1.433,0,0,1-1.13-.518,8.828,8.828,0,0,1-.248-3.129V10.821c0-1.868.01-4.355.1-5.521l.01-.138-.22-.146-.128.055a7.537,7.537,0,0,1-1.273.319,24.409,24.409,0,0,1-2.754.4h-.273l-.056.632.245.026c.029,0,.063.006.1.008a1.419,1.419,0,0,1,1.131.486,8.428,8.428,0,0,1,.25,3.078v3a11.606,11.606,0,0,0-2.512-.268,6.377,6.377,0,0,0-6.138,4.032,10.05,10.05,0,0,0-.7,3.8c0,4.17,2.284,6.858,5.813,6.858a5.781,5.781,0,0,0,3.6-1.326v1.193l.345.127.116-.057a5.9,5.9,0,0,1,1.312-.327,17.95,17.95,0,0,1,2.5-.289h.269V26l-.243-.011A.884.884,0,0,0,125.469,25.98Zm-4.248-1.133a3.686,3.686,0,0,1-2.04.578h-.118c-3.734,0-4.14-3.654-4.14-5.225,0-3.873,1.224-5.759,3.73-5.759a3.39,3.39,0,0,1,2.568.948Z" transform="translate(-3.819)" fill="#31343c"/>
  </g>
</svg>
