<svg xmlns="http://www.w3.org/2000/svg" xmlns:xlink="http://www.w3.org/1999/xlink" width="144" height="30" viewBox="0 0 144 30">
  <defs>
    <clipPath id="clip-path">
      <rect id="Rectangle_5" data-name="Rectangle 5" width="144" height="30" transform="translate(0.819)" fill="#fff"/>
    </clipPath>
  </defs>
  <g id="Group_6" data-name="Group 6" transform="translate(-1385 -982)">
    <g id="y_combinator" transform="translate(1384.181 982)" clip-path="url(#clip-path)">
      <path id="Path_23" data-name="Path 23" d="M30.612,0H.819V30H30.612Z" fill="#31343c"/>
      <path id="Path_24" data-name="Path 24" d="M14.723,17,9.559,7.3h2.383l2.979,6.1c0,.1.1.2.2.3s.1.2.2.4l.1.1v.1c.1.2.1.3.2.5.1.1.1.3.2.4a7.939,7.939,0,0,0,.4-.9,4.062,4.062,0,0,1,.5-.9l2.979-6.1h2.185l-5.164,9.8v6.2H14.723Z" fill="#fff"/>
      <path id="Path_25" data-name="Path 25" d="M44.218,5.8A5.887,5.887,0,0,1,47.992,7L47,8.2a5.021,5.021,0,0,0-2.88-1,3.809,3.809,0,0,0-3.674,2.6,10.935,10.935,0,0,0-.6,4,9.39,9.39,0,0,0,.5,3.2,4.052,4.052,0,0,0,4.072,2.8,4.665,4.665,0,0,0,2.979-1l.993,1.3a7.777,7.777,0,0,1-4.171,1.2,5.44,5.44,0,0,1-4.469-2.2,8.37,8.37,0,0,1-1.688-5.6,8.594,8.594,0,0,1,1.788-5.6A5.6,5.6,0,0,1,44.218,5.8Z" fill="#31343c"/>
      <path id="Path_26" data-name="Path 26" d="M49.879,15.7a6.071,6.071,0,0,1,1.291-4.2,4.378,4.378,0,0,1,3.377-1.6,4.314,4.314,0,0,1,3.774,1.9,7.159,7.159,0,0,1,.993,4.1,6.059,6.059,0,0,1-1.688,4.6,4.378,4.378,0,0,1-2.979,1.1A4.143,4.143,0,0,1,51.17,20,6.348,6.348,0,0,1,49.879,15.7Zm6.952-2.9a2.661,2.661,0,0,0-4.568-.2,5.618,5.618,0,0,0-.5,2.9,6.534,6.534,0,0,0,.7,3.6,2.506,2.506,0,0,0,2.185,1.1,2.36,2.36,0,0,0,2.383-1.7,7.855,7.855,0,0,0,.3-2.4A6.047,6.047,0,0,0,56.831,12.8Z" fill="#31343c"/>
      <path id="Path_27" data-name="Path 27" d="M62.491,13a7.035,7.035,0,0,0-.4-2.7l1.688-.4a3.183,3.183,0,0,1,.4,1.6v.1a5.224,5.224,0,0,1,1.39-1.1,3.764,3.764,0,0,1,1.887-.6A2.631,2.631,0,0,1,69.641,11c.1.2.3.5.4.7a4.943,4.943,0,0,1,3.476-1.8,2.763,2.763,0,0,1,1.986.8,3.24,3.24,0,0,1,.794,2.1v8.3H74.507V12.9c0-1.1-.5-1.6-1.39-1.6a2.63,2.63,0,0,0-1.589.6c-.2.2-.6.5-1.092.9l-.2.2v8.1H68.35V13.3a2.226,2.226,0,0,0-.3-1.4,1.351,1.351,0,0,0-1.092-.4A4.514,4.514,0,0,0,64.179,13v8.2H62.491Z" fill="#31343c"/>
      <path id="Path_28" data-name="Path 28" d="M79.374,5.4,81.162,5a11.51,11.51,0,0,1,.3,2.8v3.7A4.505,4.505,0,0,1,84.637,10a3.586,3.586,0,0,1,3.079,1.5,6.483,6.483,0,0,1,1.192,4.1,7.106,7.106,0,0,1-1.192,4.3,3.725,3.725,0,0,1-3.178,1.6,3.489,3.489,0,0,1-1.688-.4,3.426,3.426,0,0,1-1.291-1,10.456,10.456,0,0,1-.3,1.2H79.573a8.6,8.6,0,0,0,.3-2.8V8A6.976,6.976,0,0,0,79.374,5.4Zm2.88,6.8a3.035,3.035,0,0,0-.794.8v5.7A3.2,3.2,0,0,0,84.141,20a2.1,2.1,0,0,0,1.986-1,6.494,6.494,0,0,0,.795-3.5,4.763,4.763,0,0,0-.7-3,2.313,2.313,0,0,0-2.086-.9A2.383,2.383,0,0,0,82.254,12.2Z" fill="#31343c"/>
      <path id="Path_29" data-name="Path 29" d="M91.489,6.8a1.289,1.289,0,0,1,.4-1,1.433,1.433,0,0,1,1.986,0,1.289,1.289,0,0,1,.4,1,1.289,1.289,0,0,1-.4,1,1.433,1.433,0,0,1-1.986,0A1.289,1.289,0,0,1,91.489,6.8Zm.4,14.4v-11l1.788-.3V21.2Z" fill="#31343c"/>
      <path id="Path_30" data-name="Path 30" d="M97.547,13a4.987,4.987,0,0,0-.1-1.5,3.756,3.756,0,0,0-.4-1.1l1.688-.5a3.553,3.553,0,0,1,.4,1.7,5,5,0,0,1,3.476-1.7,2.9,2.9,0,0,1,1.589.4,2.539,2.539,0,0,1,1.093,1.2,2.791,2.791,0,0,1,.3,1.3v8.4H103.9V13.7a2.66,2.66,0,0,0-.4-1.8,1.639,1.639,0,0,0-1.192-.5,4.064,4.064,0,0,0-1.589.5A5.783,5.783,0,0,0,99.236,13v8.2H97.547Z" fill="#31343c"/>
      <path id="Path_31" data-name="Path 31" d="M109.564,12.6l-.894-1.2a8.033,8.033,0,0,1,4.569-1.5,3.025,3.025,0,0,1,3.078,1.7,4.746,4.746,0,0,1,.2,1.9v.6l-.1,3.6v.5a4.556,4.556,0,0,0,.1,1.3,1.415,1.415,0,0,0,.794.9l-.893,1.2a2.2,2.2,0,0,1-1.49-1.6,4.506,4.506,0,0,1-3.178,1.5,3.957,3.957,0,0,1-2.681-.9,2.879,2.879,0,0,1-.894-2.3,3.277,3.277,0,0,1,1.489-2.9,7.519,7.519,0,0,1,4.271-1h.794v-.8c0-.9-.1-1.5-.4-1.7a1.866,1.866,0,0,0-1.49-.6,6.24,6.24,0,0,0-2.085.5C110.458,12,110.061,12.3,109.564,12.6Zm5.264,5.9.1-2.9h-.894a4.32,4.32,0,0,0-3.178.9,2.456,2.456,0,0,0-.6,1.8c0,1.3.6,2,1.887,2A3.209,3.209,0,0,0,114.828,18.5Z" fill="#31343c"/>
      <path id="Path_32" data-name="Path 32" d="M122.176,10.2h2.781l-.5,1.4h-2.284v7.1a2.278,2.278,0,0,0,.3,1.3,1.583,1.583,0,0,0,1.092.4,3.548,3.548,0,0,0,1.093-.2l.2,1.1a4.005,4.005,0,0,1-1.887.4,2.176,2.176,0,0,1-2.482-2.5V11.6H119V10.2h1.39V10c0-.2.1-1,.2-2.3V7.4l1.788-.4A18.97,18.97,0,0,0,122.176,10.2Z" fill="#31343c"/>
      <path id="Path_33" data-name="Path 33" d="M126.745,15.7a6.07,6.07,0,0,1,1.291-4.2,4.232,4.232,0,0,1,3.377-1.6,4.312,4.312,0,0,1,3.773,1.9,7.152,7.152,0,0,1,.994,4.1,6.057,6.057,0,0,1-1.689,4.6,4.376,4.376,0,0,1-2.979,1.1,4.143,4.143,0,0,1-3.476-1.6A6.917,6.917,0,0,1,126.745,15.7Zm7.051-2.9a2.661,2.661,0,0,0-4.568-.2,5.621,5.621,0,0,0-.5,2.9,6.54,6.54,0,0,0,.695,3.6,2.507,2.507,0,0,0,2.185,1.1,2.36,2.36,0,0,0,2.384-1.7,7.874,7.874,0,0,0,.3-2.4A8.8,8.8,0,0,0,133.8,12.8Z" fill="#31343c"/>
      <path id="Path_34" data-name="Path 34" d="M139.456,12.8a5.5,5.5,0,0,0-.4-2.4l1.688-.5a3.552,3.552,0,0,1,.4,1.7v.2a3.78,3.78,0,0,1,3.079-1.8,1.254,1.254,0,0,1,.6.1l-.7,1.9a1.071,1.071,0,0,0-.5-.1,2.174,2.174,0,0,0-1.291.4,3.163,3.163,0,0,0-.993,1,3.733,3.733,0,0,0-.2,1.2v6.9h-1.688Z" fill="#31343c"/>
    </g>
  </g>
</svg>
